FiraSans-CondensedLight.ufo
<glyph name="exclam" format="2">
  <advance width="210"/>
  <unicode hex="0021"/>
  <outline>
    <contour>
      <point x="106" y="680" type="line"/>
      <point x="104" y="680" type="line"/>
      <point x="104" y="188" type="line"/>
      <point x="106" y="188" type="line"/>
    </contour>
    <contour>
      <point x="105" y="10" type="curve" smooth="yes"/>
      <point x="101" y="10"/>
      <point x="98" y="7"/>
      <point x="98" y="3" type="curve" smooth="yes"/>
      <point x="98" y="-1"/>
      <point x="101" y="-4"/>
      <point x="105" y="-4" type="curve" smooth="yes"/>
      <point x="109" y="-4"/>
      <point x="112" y="-1"/>
      <point x="112" y="3" type="curve" smooth="yes"/>
      <point x="112" y="7"/>
      <point x="109" y="10"/>
    </contour>
  </outline>
</glyph>
<glyph name="numbersign" format="2">
  <advance width="392"/>
  <unicode hex="0023"/>
  <outline>
    <contour>
      <point x="337" y="662" type="line"/>
      <point x="335" y="662" type="line"/>
      <point x="249" y="0" type="line"/>
      <point x="251" y="0" type="line"/>
    </contour>
    <contour>
      <point x="350" y="216" type="line"/>
      <point x="12" y="216" type="line"/>
      <point x="12" y="214" type="line"/>
      <point x="350" y="214" type="line"/>
    </contour>
    <contour>
      <point x="145" y="662" type="line"/>
      <point x="143" y="662" type="line"/>
      <point x="57" y="0" type="line"/>
      <point x="59" y="0" type="line"/>
    </contour>
    <contour>
      <point x="380" y="468" type="line"/>
      <point x="42" y="468" type="line"/>
      <point x="42" y="466" type="line"/>
      <point x="380" y="466" type="line"/>
    </contour>
  </outline>
</glyph>
<glyph name="dollar" format="2">
  <advance width="432"/>
  <unicode hex="0024"/>
  <outline>
    <contour>
      <point x="210" y="-8" type="line"/>
      <point x="208" y="-8" type="line"/>
      <point x="208" y="-144" type="line"/>
      <point x="210" y="-144" type="line"/>
    </contour>
    <contour>
      <point x="214" y="805" type="line"/>
      <point x="212" y="805" type="line"/>
      <point x="212" y="669" type="line"/>
      <point x="214" y="669" type="line"/>
    </contour>
    <contour>
      <point x="214" y="670" type="curve" smooth="yes"/>
      <point x="127" y="670"/>
      <point x="71" y="601"/>
      <point x="71" y="522" type="curve" smooth="yes"/>
      <point x="71" y="439"/>
      <point x="106" y="400"/>
      <point x="216" y="357" type="curve" smooth="yes"/>
      <point x="318" y="317"/>
      <point x="365" y="274"/>
      <point x="365" y="173" type="curve" smooth="yes"/>
      <point x="365" y="72"/>
      <point x="302" y="-7"/>
      <point x="208" y="-7" type="curve" smooth="yes"/>
      <point x="135" y="-7"/>
      <point x="93" y="23"/>
      <point x="54" y="69" type="curve"/>
      <point x="53" y="67" type="line"/>
      <point x="92" y="21"/>
      <point x="135" y="-9"/>
      <point x="208" y="-9" type="curve" smooth="yes"/>
      <point x="304" y="-9"/>
      <point x="367" y="71"/>
      <point x="367" y="173" type="curve" smooth="yes"/>
      <point x="367" y="275"/>
      <point x="320" y="319"/>
      <point x="216" y="359" type="curve" smooth="yes"/>
      <point x="106" y="402"/>
      <point x="73" y="441"/>
      <point x="73" y="522" type="curve" smooth="yes"/>
      <point x="73" y="599"/>
      <point x="127" y="668"/>
      <point x="214" y="668" type="curve" smooth="yes"/>
      <point x="276" y="668"/>
      <point x="315" y="643"/>
      <point x="348" y="606" type="curve"/>
      <point x="349" y="608" type="line"/>
      <point x="316" y="644"/>
      <point x="277" y="670"/>
    </contour>
  </outline>
</glyph>
<glyph name="ampersand" format="2">
  <advance width="611"/>
  <unicode hex="0026"/>
  <outline>
    <contour>
      <point x="256" y="691" type="curve" smooth="yes"/>
      <point x="188" y="691"/>
      <point x="138" y="639"/>
      <point x="138" y="549" type="curve" smooth="yes"/>
      <point x="138" y="472"/>
      <point x="160" y="436"/>
      <point x="226" y="361" type="curve"/>
      <point x="144" y="308"/>
      <point x="102" y="252"/>
      <point x="102" y="158" type="curve" smooth="yes"/>
      <point x="102" y="57"/>
      <point x="165" y="-9"/>
      <point x="261" y="-9" type="curve" smooth="yes"/>
      <point x="341" y="-9"/>
      <point x="401" y="34"/>
      <point x="441" y="114" type="curve"/>
      <point x="539" y="-1" type="line"/>
      <point x="541" y="0" type="line"/>
      <point x="442" y="115" type="line"/>
      <point x="473" y="187"/>
      <point x="489" y="258"/>
      <point x="502" y="347" type="curve"/>
      <point x="500" y="347" type="line"/>
      <point x="487" y="258"/>
      <point x="472" y="189"/>
      <point x="441" y="116" type="curve"/>
      <point x="230" y="361" type="line"/>
      <point x="315" y="420"/>
      <point x="369" y="461"/>
      <point x="369" y="550" type="curve" smooth="yes"/>
      <point x="369" y="638"/>
      <point x="324" y="691"/>
    </contour>
    <contour>
      <point x="228" y="360" type="curve"/>
      <point x="440" y="115" type="line"/>
      <point x="399" y="35"/>
      <point x="341" y="-7"/>
      <point x="261" y="-7" type="curve" smooth="yes"/>
      <point x="166" y="-7"/>
      <point x="104" y="58"/>
      <point x="104" y="158" type="curve" smooth="yes"/>
      <point x="104" y="251"/>
      <point x="146" y="306"/>
    </contour>
    <contour>
      <point x="256" y="689" type="curve" smooth="yes"/>
      <point x="323" y="689"/>
      <point x="367" y="637"/>
      <point x="367" y="550" type="curve" smooth="yes"/>
      <point x="367" y="463"/>
      <point x="314" y="422"/>
      <point x="228" y="362" type="curve"/>
      <point x="161" y="438"/>
      <point x="140" y="473"/>
      <point x="140" y="549" type="curve" smooth="yes"/>
      <point x="140" y="638"/>
      <point x="189" y="689"/>
    </contour>
  </outline>
</glyph>
<glyph name="quotesingle" format="2">
  <advance width="160"/>
  <unicode hex="0027"/>
  <outline>
    <contour>
      <point x="79" y="446" type="line"/>
      <point x="81" y="446" type="line"/>
      <point x="81" y="680" type="line"/>
      <point x="79" y="680" type="line"/>
    </contour>
  </outline>
</glyph>
<glyph name="parenleft" format="2">
  <advance width="269"/>
  <unicode hex="0028"/>
  <outline>
    <contour>
      <point x="202" y="825" type="line"/>
      <point x="129" y="694"/>
      <point x="65" y="577"/>
      <point x="65" y="350" type="curve"/>
      <point x="65" y="123"/>
      <point x="129" y="6"/>
      <point x="202" y="-125" type="curve"/>
      <point x="204" y="-124" type="line"/>
      <point x="131" y="7"/>
      <point x="67" y="123"/>
      <point x="67" y="350" type="curve"/>
      <point x="67" y="577"/>
      <point x="131" y="693"/>
      <point x="204" y="824" type="curve"/>
    </contour>
  </outline>
</glyph>
<glyph name="parenright" format="2">
  <advance width="269"/>
  <unicode hex="0029"/>
  <outline>
    <contour>
      <point x="67" y="825" type="curve"/>
      <point x="65" y="824" type="line"/>
      <point x="138" y="693"/>
      <point x="202" y="577"/>
      <point x="202" y="350" type="curve"/>
      <point x="202" y="123"/>
      <point x="138" y="7"/>
      <point x="65" y="-124" type="curve"/>
      <point x="67" y="-125" type="line"/>
      <point x="140" y="6"/>
      <point x="204" y="123"/>
      <point x="204" y="350" type="curve"/>
      <point x="204" y="577"/>
      <point x="140" y="694"/>
    </contour>
  </outline>
</glyph>
<glyph name="asterisk" format="2">
  <advance width="363"/>
  <unicode hex="002A"/>
  <outline>
    <contour>
      <point x="182" y="566" type="line"/>
      <point x="181" y="564" type="line"/>
      <point x="258" y="435" type="line"/>
      <point x="260" y="436" type="line"/>
      <point x="183" y="565" type="line" smooth="yes"/>
    </contour>
    <contour>
      <point x="183" y="727" type="line"/>
      <point x="181" y="727" type="line"/>
      <point x="181" y="567" type="line"/>
      <point x="182" y="566" type="line"/>
      <point x="183" y="567" type="line"/>
    </contour>
    <contour>
      <point x="307" y="616" type="line"/>
      <point x="183" y="567" type="line"/>
      <point x="182" y="566" type="line"/>
      <point x="183" y="565" type="line"/>
      <point x="308" y="614" type="line"/>
    </contour>
    <contour>
      <point x="56" y="616" type="line"/>
      <point x="55" y="614" type="line"/>
      <point x="180" y="565" type="line"/>
      <point x="182" y="566" type="line"/>
      <point x="181" y="567" type="line"/>
    </contour>
    <contour>
      <point x="182" y="566" type="line"/>
      <point x="180" y="565" type="line"/>
      <point x="103" y="436" type="line"/>
      <point x="104" y="435" type="line"/>
      <point x="182" y="564" type="line"/>
    </contour>
  </outline>
</glyph>
<glyph name="plus" format="2">
  <advance width="393"/>
  <unicode hex="002B"/>
  <outline>
    <contour>
      <point x="197" y="485" type="line"/>
      <point x="195" y="485" type="line"/>
      <point x="195" y="332" type="line"/>
      <point x="70" y="332" type="line"/>
      <point x="70" y="330" type="line"/>
      <point x="195" y="330" type="line"/>
      <point x="195" y="177" type="line"/>
      <point x="197" y="177" type="line"/>
      <point x="197" y="330" type="line"/>
      <point x="323" y="330" type="line"/>
      <point x="323" y="332" type="line"/>
      <point x="197" y="332" type="line"/>
    </contour>
  </outline>
</glyph>
<glyph name="comma" format="2">
  <advance width="113"/>
  <unicode hex="002C"/>
  <outline>
    <contour>
      <point x="59" y="10" type="curve" smooth="yes"/>
      <point x="55" y="10"/>
      <point x="52" y="7"/>
      <point x="52" y="3" type="curve" smooth="yes"/>
      <point x="52" y="0"/>
      <point x="54" y="-2"/>
      <point x="57" y="-3" type="curve"/>
      <point x="30" y="-109" type="line"/>
      <point x="33" y="-109" type="line"/>
      <point x="63" y="-6" type="line" smooth="yes"/>
      <point x="64" y="-3"/>
      <point x="65" y="1"/>
      <point x="65" y="4" type="curve" smooth="yes"/>
      <point x="65" y="7"/>
      <point x="63" y="10"/>
    </contour>
  </outline>
</glyph>
<glyph name="hyphen" format="2">
  <advance width="329"/>
  <unicode hex="002D"/>
  <outline>
    <contour>
      <point x="70" y="311" type="line"/>
      <point x="259" y="311" type="line"/>
      <point x="259" y="313" type="line"/>
      <point x="70" y="313" type="line"/>
    </contour>
  </outline>
</glyph>
<glyph name="period" format="2">
  <advance width="110"/>
  <unicode hex="002E"/>
  <outline>
    <contour>
      <point x="55" y="10" type="curve" smooth="yes"/>
      <point x="51" y="10"/>
      <point x="48" y="7"/>
      <point x="48" y="3" type="curve" smooth="yes"/>
      <point x="48" y="-1"/>
      <point x="51" y="-4"/>
      <point x="55" y="-4" type="curve" smooth="yes"/>
      <point x="59" y="-4"/>
      <point x="62" y="-1"/>
      <point x="62" y="3" type="curve" smooth="yes"/>
      <point x="62" y="7"/>
      <point x="59" y="10"/>
    </contour>
  </outline>
</glyph>
<glyph name="slash" format="2">
  <advance width="426"/>
  <unicode hex="002F"/>
  <outline>
    <contour>
      <point x="307" y="794" type="line"/>
      <point x="117" y="-91" type="line"/>
      <point x="119" y="-92" type="line"/>
      <point x="309" y="793" type="line"/>
    </contour>
  </outline>
</glyph>
<glyph name="zero" format="2">
  <advance width="449"/>
  <unicode hex="0030"/>
  <outline>
    <contour>
      <point x="224" y="670" type="curve" smooth="yes"/>
      <point x="119" y="670"/>
      <point x="70" y="566"/>
      <point x="70" y="331" type="curve" smooth="yes"/>
      <point x="70" y="96"/>
      <point x="119" y="-9"/>
      <point x="224" y="-9" type="curve" smooth="yes"/>
      <point x="329" y="-9"/>
      <point x="379" y="96"/>
      <point x="379" y="331" type="curve" smooth="yes"/>
      <point x="379" y="566"/>
      <point x="329" y="670"/>
    </contour>
    <contour>
      <point x="224" y="668" type="curve"/>
      <point x="328" y="668"/>
      <point x="377" y="564"/>
      <point x="377" y="331" type="curve" smooth="yes"/>
      <point x="377" y="98"/>
      <point x="328" y="-7"/>
      <point x="224" y="-7" type="curve" smooth="yes"/>
      <point x="120" y="-7"/>
      <point x="72" y="98"/>
      <point x="72" y="331" type="curve" smooth="yes"/>
      <point x="72" y="564"/>
      <point x="120" y="668"/>
    </contour>
  </outline>
</glyph>
<glyph name="one" format="2">
  <advance width="317"/>
  <unicode hex="0031"/>
  <outline>
    <contour>
      <point x="197" y="660" type="line"/>
      <point x="195" y="660" type="line"/>
      <point x="45" y="543" type="line"/>
      <point x="46" y="541" type="line"/>
      <point x="195" y="658" type="line"/>
      <point x="195" y="0" type="line"/>
      <point x="197" y="0" type="line"/>
    </contour>
  </outline>
</glyph>
<glyph name="two" format="2">
  <advance width="369"/>
  <unicode hex="0032"/>
  <outline>
    <contour>
      <point x="171" y="670" type="curve" smooth="yes"/>
      <point x="108" y="670"/>
      <point x="69" y="637"/>
      <point x="32" y="582" type="curve"/>
      <point x="33" y="581" type="line"/>
      <point x="71" y="636"/>
      <point x="109" y="668"/>
      <point x="171" y="668" type="curve" smooth="yes"/>
      <point x="257" y="668"/>
      <point x="304" y="601"/>
      <point x="304" y="512" type="curve" smooth="yes"/>
      <point x="304" y="376"/>
      <point x="245" y="301"/>
      <point x="30" y="2" type="curve"/>
      <point x="30" y="0" type="line"/>
      <point x="311" y="0" type="line"/>
      <point x="312" y="2" type="line"/>
      <point x="33" y="2" type="line"/>
      <point x="246" y="300"/>
      <point x="306" y="374"/>
      <point x="306" y="512" type="curve" smooth="yes"/>
      <point x="306" y="601"/>
      <point x="259" y="670"/>
    </contour>
  </outline>
</glyph>
<glyph name="three" format="2">
  <advance width="385"/>
  <unicode hex="0033"/>
  <outline>
    <contour>
      <point x="178" y="670" type="curve" smooth="yes"/>
      <point x="129" y="670"/>
      <point x="84" y="649"/>
      <point x="45" y="599" type="curve"/>
      <point x="46" y="598" type="line"/>
      <point x="86" y="648"/>
      <point x="131" y="668"/>
      <point x="178" y="668" type="curve" smooth="yes"/>
      <point x="257" y="668"/>
      <point x="306" y="608"/>
      <point x="306" y="513" type="curve" smooth="yes"/>
      <point x="306" y="404"/>
      <point x="242" y="354"/>
      <point x="167" y="354" type="curve" smooth="yes"/>
      <point x="141" y="354" type="line"/>
      <point x="141" y="352" type="line"/>
      <point x="164" y="352" type="line" smooth="yes"/>
      <point x="264" y="352"/>
      <point x="322" y="292"/>
      <point x="322" y="178" type="curve" smooth="yes"/>
      <point x="322" y="69"/>
      <point x="263" y="-7"/>
      <point x="174" y="-7" type="curve" smooth="yes"/>
      <point x="111" y="-7"/>
      <point x="72" y="16"/>
      <point x="31" y="73" type="curve"/>
      <point x="29" y="72" type="line"/>
      <point x="70" y="15"/>
      <point x="110" y="-9"/>
      <point x="174" y="-9" type="curve" smooth="yes"/>
      <point x="264" y="-9"/>
      <point x="324" y="68"/>
      <point x="324" y="178" type="curve" smooth="yes"/>
      <point x="324" y="293"/>
      <point x="265" y="348"/>
      <point x="180" y="353" type="curve"/>
      <point x="250" y="359"/>
      <point x="308" y="407"/>
      <point x="308" y="513" type="curve" smooth="yes"/>
      <point x="308" y="609"/>
      <point x="258" y="670"/>
    </contour>
  </outline>
</glyph>
<glyph name="four" format="2">
  <advance width="405"/>
  <unicode hex="0034"/>
  <outline>
    <contour>
      <point x="216" y="670" type="line"/>
      <point x="45" y="199" type="line"/>
      <point x="45" y="196" type="line"/>
      <point x="372" y="196" type="line"/>
      <point x="372" y="198" type="line"/>
      <point x="47" y="198" type="line"/>
      <point x="218" y="669" type="line"/>
    </contour>
    <contour>
      <point x="294" y="418" type="line"/>
      <point x="292" y="418" type="line"/>
      <point x="292" y="197" type="line"/>
      <point x="292" y="0" type="line"/>
      <point x="294" y="0" type="line"/>
    </contour>
  </outline>
</glyph>
<glyph name="five" format="2">
  <advance width="385"/>
  <unicode hex="0035"/>
  <outline>
    <contour>
      <point x="311" y="660" type="line"/>
      <point x="75" y="660" type="line"/>
      <point x="75" y="360" type="line"/>
      <point x="77" y="360" type="line"/>
      <point x="107" y="389"/>
      <point x="141" y="407"/>
      <point x="184" y="407" type="curve" smooth="yes"/>
      <point x="275" y="407"/>
      <point x="326" y="334"/>
      <point x="326" y="213" type="curve" smooth="yes"/>
      <point x="326" y="85"/>
      <point x="274" y="-7"/>
      <point x="177" y="-7" type="curve" smooth="yes"/>
      <point x="118" y="-7"/>
      <point x="73" y="20"/>
      <point x="43" y="64" type="curve"/>
      <point x="41" y="63" type="line"/>
      <point x="72" y="18"/>
      <point x="118" y="-9"/>
      <point x="177" y="-9" type="curve" smooth="yes"/>
      <point x="275" y="-9"/>
      <point x="328" y="84"/>
      <point x="328" y="213" type="curve" smooth="yes"/>
      <point x="328" y="335"/>
      <point x="276" y="409"/>
      <point x="184" y="409" type="curve" smooth="yes"/>
      <point x="140" y="409"/>
      <point x="105" y="390"/>
      <point x="77" y="362" type="curve"/>
      <point x="77" y="658" type="line"/>
      <point x="311" y="658" type="line"/>
    </contour>
  </outline>
</glyph>
<glyph name="six" format="2">
  <advance width="420"/>
  <unicode hex="0036"/>
  <outline>
    <contour>
      <point x="247" y="670" type="curve" smooth="yes"/>
      <point x="131" y="670"/>
      <point x="70" y="516"/>
      <point x="70" y="287" type="curve" smooth="yes"/>
      <point x="70" y="114"/>
      <point x="114" y="-9"/>
      <point x="226" y="-9" type="curve" smooth="yes"/>
      <point x="316" y="-9"/>
      <point x="365" y="67"/>
      <point x="365" y="222" type="curve" smooth="yes"/>
      <point x="365" y="361"/>
      <point x="310" y="423"/>
      <point x="229" y="423" type="curve" smooth="yes"/>
      <point x="154" y="423"/>
      <point x="106" y="359"/>
      <point x="72" y="289" type="curve"/>
      <point x="72" y="286" type="line"/>
      <point x="108" y="358"/>
      <point x="155" y="421"/>
      <point x="229" y="421" type="curve" smooth="yes"/>
      <point x="309" y="421"/>
      <point x="363" y="360"/>
      <point x="363" y="222" type="curve" smooth="yes"/>
      <point x="363" y="69"/>
      <point x="315" y="-7"/>
      <point x="226" y="-7" type="curve" smooth="yes"/>
      <point x="115" y="-7"/>
      <point x="72" y="116"/>
      <point x="72" y="287" type="curve"/>
      <point x="72" y="288" type="line"/>
      <point x="72" y="516"/>
      <point x="133" y="668"/>
      <point x="247" y="668" type="curve" smooth="yes"/>
      <point x="284" y="668"/>
      <point x="309" y="655"/>
      <point x="331" y="633" type="curve"/>
      <point x="332" y="635" type="line"/>
      <point x="310" y="656"/>
      <point x="285" y="670"/>
    </contour>
  </outline>
</glyph>
<glyph name="seven" format="2">
  <advance width="357"/>
  <unicode hex="0037"/>
  <outline>
    <contour>
      <point x="316" y="660" type="line"/>
      <point x="37" y="660" type="line"/>
      <point x="37" y="658" type="line"/>
      <point x="314" y="658" type="line"/>
      <point x="81" y="-4" type="line"/>
      <point x="83" y="-5" type="line"/>
      <point x="316" y="658" type="line"/>
    </contour>
  </outline>
</glyph>
<glyph name="eight" format="2">
  <advance width="434"/>
  <unicode hex="0038"/>
  <outline>
    <contour>
      <point x="218" y="670" type="curve" smooth="yes"/>
      <point x="146" y="670"/>
      <point x="85" y="619"/>
      <point x="85" y="514" type="curve" smooth="yes"/>
      <point x="85" y="446"/>
      <point x="109" y="406"/>
      <point x="189" y="365" type="curve"/>
      <point x="191" y="364" type="line"/>
      <point x="224" y="348" type="line" smooth="yes"/>
      <point x="323" y="300"/>
      <point x="372" y="262"/>
      <point x="372" y="164" type="curve" smooth="yes"/>
      <point x="372" y="54"/>
      <point x="313" y="-7"/>
      <point x="219" y="-7" type="curve" smooth="yes"/>
      <point x="121" y="-7"/>
      <point x="62" y="53"/>
      <point x="62" y="169" type="curve" smooth="yes"/>
      <point x="62" y="261"/>
      <point x="105" y="319"/>
      <point x="191" y="364" type="curve"/>
      <point x="189" y="365" type="line"/>
      <point x="105" y="321"/>
      <point x="60" y="264"/>
      <point x="60" y="169" type="curve" smooth="yes"/>
      <point x="60" y="51"/>
      <point x="120" y="-9"/>
      <point x="219" y="-9" type="curve" smooth="yes"/>
      <point x="314" y="-9"/>
      <point x="374" y="52"/>
      <point x="374" y="164" type="curve" smooth="yes"/>
      <point x="374" y="251"/>
      <point x="338" y="293"/>
      <point x="245" y="340" type="curve"/>
      <point x="243" y="341" type="line"/>
      <point x="203" y="360" type="line" smooth="yes"/>
      <point x="119" y="401"/>
      <point x="87" y="439"/>
      <point x="87" y="514" type="curve" smooth="yes"/>
      <point x="87" y="618"/>
      <point x="147" y="668"/>
      <point x="218" y="668" type="curve" smooth="yes"/>
      <point x="289" y="668"/>
      <point x="349" y="624"/>
      <point x="349" y="513" type="curve" smooth="yes"/>
      <point x="349" y="433"/>
      <point x="317" y="389"/>
      <point x="243" y="341" type="curve"/>
      <point x="245" y="340" type="line"/>
      <point x="321" y="389"/>
      <point x="351" y="435"/>
      <point x="351" y="513" type="curve" smooth="yes"/>
      <point x="351" y="625"/>
      <point x="290" y="670"/>
    </contour>
  </outline>
</glyph>
<glyph name="nine" format="2">
  <advance width="413"/>
  <unicode hex="0039"/>
  <outline>
    <contour>
      <point x="347" y="389" type="curve"/>
      <point x="347" y="393" type="line"/>
      <point x="309" y="310"/>
      <point x="260" y="263"/>
      <point x="196" y="263" type="curve" smooth="yes"/>
      <point x="113" y="263"/>
      <point x="55" y="333"/>
      <point x="55" y="460" type="curve" smooth="yes"/>
      <point x="55" y="599"/>
      <point x="116" y="668"/>
      <point x="201" y="668" type="curve" smooth="yes"/>
      <point x="306" y="668"/>
      <point x="346" y="575"/>
      <point x="346" y="391" type="curve"/>
      <point x="346" y="389" type="line"/>
      <point x="345" y="151"/>
      <point x="256" y="50"/>
      <point x="101" y="-9" type="curve"/>
      <point x="102" y="-11" type="line"/>
      <point x="258" y="48"/>
      <point x="348" y="151"/>
      <point x="348" y="393" type="curve" smooth="yes"/>
      <point x="348" y="575"/>
      <point x="307" y="670"/>
      <point x="201" y="670" type="curve" smooth="yes"/>
      <point x="115" y="670"/>
      <point x="53" y="600"/>
      <point x="53" y="460" type="curve" smooth="yes"/>
      <point x="53" y="332"/>
      <point x="112" y="261"/>
      <point x="196" y="261" type="curve" smooth="yes"/>
      <point x="260" y="261"/>
      <point x="310" y="308"/>
    </contour>
  </outline>
</glyph>
<glyph name="greater" format="2">
  <advance width="407"/>
  <unicode hex="003E"/>
  <outline>
    <contour>
      <point x="75" y="487" type="line"/>
      <point x="74" y="485" type="line"/>
      <point x="331" y="333" type="line"/>
      <point x="74" y="177" type="line"/>
      <point x="75" y="175" type="line"/>
      <point x="333" y="332" type="line"/>
      <point x="333" y="334" type="line"/>
    </contour>
  </outline>
</glyph>
<glyph name="question" format="2">
  <advance width="383"/>
  <unicode hex="003F"/>
  <outline>
    <contour>
      <point x="199" y="690" type="curve"/>
      <point x="144" y="690"/>
      <point x="102" y="663"/>
      <point x="65" y="610" type="curve"/>
      <point x="67" y="609" type="line"/>
      <point x="103" y="661"/>
      <point x="145" y="688"/>
      <point x="199" y="688" type="curve"/>
      <point x="270" y="688"/>
      <point x="316" y="637"/>
      <point x="316" y="559" type="curve"/>
      <point x="316" y="413"/>
      <point x="164" y="434"/>
      <point x="164" y="271" type="curve"/>
      <point x="164" y="188" type="line"/>
      <point x="166" y="188" type="line"/>
      <point x="166" y="271" type="line"/>
      <point x="166" y="433"/>
      <point x="318" y="412"/>
      <point x="318" y="559" type="curve"/>
      <point x="318" y="638"/>
      <point x="271" y="690"/>
    </contour>
    <contour>
      <point x="164" y="10" type="curve" smooth="yes"/>
      <point x="160" y="10"/>
      <point x="157" y="7"/>
      <point x="157" y="3" type="curve" smooth="yes"/>
      <point x="157" y="-1"/>
      <point x="160" y="-4"/>
      <point x="164" y="-4" type="curve" smooth="yes"/>
      <point x="168" y="-4"/>
      <point x="171" y="-1"/>
      <point x="171" y="3" type="curve" smooth="yes"/>
      <point x="171" y="7"/>
      <point x="168" y="10"/>
    </contour>
  </outline>
</glyph>
<glyph name="at" format="2">
  <advance width="846"/>
  <unicode hex="0040"/>
  <outline>
    <contour>
      <point x="438" y="691" type="curve"/>
      <point x="230" y="691"/>
      <point x="93" y="492"/>
      <point x="93" y="244" type="curve"/>
      <point x="93" y="-46"/>
      <point x="241" y="-192"/>
      <point x="436" y="-192" type="curve"/>
      <point x="485" y="-192"/>
      <point x="543" y="-180"/>
      <point x="583" y="-161" type="curve"/>
      <point x="583" y="-159" type="line"/>
      <point x="543" y="-178"/>
      <point x="485" y="-190"/>
      <point x="436" y="-190" type="curve"/>
      <point x="242" y="-190"/>
      <point x="95" y="-45"/>
      <point x="95" y="244" type="curve"/>
      <point x="95" y="491"/>
      <point x="231" y="689"/>
      <point x="438" y="689" type="curve"/>
      <point x="649" y="689"/>
      <point x="751" y="517"/>
      <point x="751" y="309" type="curve"/>
      <point x="751" y="81"/>
      <point x="686" y="16"/>
      <point x="627" y="16" type="curve"/>
      <point x="569" y="16"/>
      <point x="532" y="72"/>
      <point x="532" y="175" type="curve"/>
      <point x="530" y="175" type="line"/>
      <point x="530" y="71"/>
      <point x="568" y="14"/>
      <point x="627" y="14" type="curve"/>
      <point x="687" y="14"/>
      <point x="753" y="80"/>
      <point x="753" y="309" type="curve"/>
      <point x="753" y="518"/>
      <point x="650" y="691"/>
    </contour>
    <contour>
      <point x="435" y="474" type="curve"/>
      <point x="353" y="474"/>
      <point x="278" y="403"/>
      <point x="278" y="231" type="curve"/>
      <point x="278" y="87"/>
      <point x="333" y="16"/>
      <point x="408" y="16" type="curve"/>
      <point x="467" y="16"/>
      <point x="509" y="70"/>
      <point x="532" y="169" type="curve"/>
      <point x="530" y="169" type="line"/>
      <point x="507" y="72"/>
      <point x="467" y="18"/>
      <point x="408" y="18" type="curve"/>
      <point x="334" y="18"/>
      <point x="280" y="88"/>
      <point x="280" y="231" type="curve"/>
      <point x="280" y="402"/>
      <point x="354" y="472"/>
      <point x="435" y="472" type="curve"/>
      <point x="476" y="472"/>
      <point x="509" y="456"/>
      <point x="530" y="443" type="curve"/>
      <point x="530" y="175" type="line"/>
      <point x="531" y="174" type="line"/>
      <point x="532" y="175" type="line"/>
      <point x="532" y="444" type="line"/>
      <point x="510" y="458"/>
      <point x="476" y="474"/>
    </contour>
  </outline>
</glyph>
<glyph name="A" format="2">
  <advance width="469"/>
  <unicode hex="0041"/>
  <anchor x="234" y="0" name="bottom"/>
  <anchor x="442" y="0" name="ogonek"/>
  <anchor x="234" y="680" name="top"/>
  <anchor x="146" y="680" name="topleft"/>
  <outline>
    <contour>
      <point x="235" y="680" type="line"/>
      <point x="233" y="680" type="line"/>
      <point x="35" y="0" type="line"/>
      <point x="37" y="0" type="line"/>
      <point x="234" y="678" type="line"/>
      <point x="432" y="0" type="line"/>
      <point x="434" y="0" type="line"/>
    </contour>
    <contour>
      <point x="370" y="215" type="line"/>
      <point x="98" y="215" type="line"/>
      <point x="98" y="213" type="line"/>
      <point x="370" y="213" type="line"/>
    </contour>
  </outline>
</glyph>
<glyph name="B" format="2">
  <advance width="476"/>
  <unicode hex="0042"/>
  <anchor x="254" y="0" name="bottom"/>
  <anchor x="230" y="680" name="top"/>
  <outline>
    <contour>
      <point x="196" y="680" type="curve" smooth="yes"/>
      <point x="106" y="680" type="line"/>
      <point x="106" y="0" type="line"/>
      <point x="215" y="0" type="line" smooth="yes"/>
      <point x="342" y="0"/>
      <point x="423" y="46"/>
      <point x="423" y="183" type="curve" smooth="yes"/>
      <point x="423" y="293"/>
      <point x="353" y="358"/>
      <point x="251" y="360" type="curve"/>
      <point x="339" y="367"/>
      <point x="392" y="429"/>
      <point x="392" y="513" type="curve" smooth="yes"/>
      <point x="392" y="619"/>
      <point x="330" y="680"/>
    </contour>
    <contour>
      <point x="197" y="678" type="line" smooth="yes"/>
      <point x="330" y="678"/>
      <point x="390" y="617"/>
      <point x="390" y="513" type="curve" smooth="yes"/>
      <point x="390" y="429"/>
      <point x="334" y="361"/>
      <point x="235" y="361" type="curve" smooth="yes"/>
      <point x="107" y="361" type="line"/>
      <point x="107" y="359" type="line"/>
      <point x="240" y="359" type="line" smooth="yes"/>
      <point x="352" y="359"/>
      <point x="421" y="292"/>
      <point x="421" y="183" type="curve" smooth="yes"/>
      <point x="421" y="46"/>
      <point x="340" y="2"/>
      <point x="216" y="2" type="curve" smooth="yes"/>
      <point x="108" y="2" type="line"/>
      <point x="108" y="678" type="line"/>
    </contour>
  </outline>
</glyph>
<glyph name="C" format="2">
  <advance width="434"/>
  <unicode hex="0043"/>
  <anchor x="280" y="0" name="bottom"/>
  <anchor x="265" y="341" name="center"/>
  <anchor x="282" y="680" name="top"/>
  <outline>
    <contour>
      <point x="281" y="690" type="curve" smooth="yes"/>
      <point x="157" y="690"/>
      <point x="70" y="577"/>
      <point x="70" y="339" type="curve" smooth="yes"/>
      <point x="70" y="114"/>
      <point x="155" y="-9"/>
      <point x="280" y="-9" type="curve" smooth="yes"/>
      <point x="347" y="-9"/>
      <point x="387" y="23"/>
      <point x="413" y="50" type="curve"/>
      <point x="412" y="52" type="line"/>
      <point x="386" y="25"/>
      <point x="346" y="-7"/>
      <point x="280" y="-7" type="curve" smooth="yes"/>
      <point x="157" y="-7"/>
      <point x="72" y="115"/>
      <point x="72" y="339" type="curve" smooth="yes"/>
      <point x="72" y="575"/>
      <point x="159" y="688"/>
      <point x="281" y="688" type="curve" smooth="yes"/>
      <point x="341" y="688"/>
      <point x="376" y="662"/>
      <point x="405" y="631" type="curve"/>
      <point x="406" y="633" type="line"/>
      <point x="377" y="664"/>
      <point x="342" y="690"/>
    </contour>
  </outline>
</glyph>
<glyph name="D" format="2">
  <advance width="503"/>
  <unicode hex="0044"/>
  <anchor x="254" y="0" name="bottom"/>
  <anchor x="253" y="340" name="center"/>
  <anchor x="237" y="680" name="top"/>
  <outline>
    <contour>
      <point x="192" y="680" type="curve" smooth="yes"/>
      <point x="106" y="680" type="line"/>
      <point x="106" y="0" type="line"/>
      <point x="197" y="0" type="line" smooth="yes"/>
      <point x="311" y="0"/>
      <point x="433" y="69"/>
      <point x="433" y="348" type="curve" smooth="yes"/>
      <point x="433" y="626"/>
      <point x="310" y="680"/>
    </contour>
    <contour>
      <point x="192" y="678" type="line" smooth="yes"/>
      <point x="309" y="678"/>
      <point x="431" y="624"/>
      <point x="431" y="348" type="curve" smooth="yes"/>
      <point x="431" y="71"/>
      <point x="311" y="2"/>
      <point x="197" y="2" type="curve" smooth="yes"/>
      <point x="108" y="2" type="line"/>
      <point x="108" y="678" type="line"/>
    </contour>
  </outline>
</glyph>
<glyph name="E" format="2">
  <advance width="406"/>
  <unicode hex="0045"/>
  <anchor x="232" y="0" name="bottom"/>
  <anchor x="348" y="0" name="ogonek"/>
  <anchor x="232" y="680" name="top"/>
  <anchor x="65" y="680" name="topleft"/>
  <outline>
    <contour>
      <point x="356" y="680" type="line"/>
      <point x="106" y="680" type="line"/>
      <point x="106" y="0" type="line"/>
      <point x="365" y="0" type="line"/>
      <point x="365" y="2" type="line"/>
      <point x="108" y="2" type="line"/>
      <point x="108" y="360" type="line"/>
      <point x="321" y="360" type="line"/>
      <point x="321" y="362" type="line"/>
      <point x="108" y="362" type="line"/>
      <point x="108" y="678" type="line"/>
      <point x="356" y="678" type="line"/>
    </contour>
  </outline>
</glyph>
<glyph name="F" format="2">
  <advance width="385"/>
  <unicode hex="0046"/>
  <anchor x="107" y="0" name="bottom"/>
  <anchor x="237" y="680" name="top"/>
  <outline>
    <contour>
      <point x="106" y="0" type="line"/>
      <point x="108" y="0" type="line"/>
      <point x="108" y="345" type="line"/>
      <point x="319" y="345" type="line"/>
      <point x="319" y="347" type="line"/>
      <point x="108" y="347" type="line"/>
      <point x="108" y="678" type="line"/>
      <point x="352" y="678" type="line"/>
      <point x="352" y="680" type="line"/>
      <point x="106" y="680" type="line"/>
    </contour>
  </outline>
</glyph>
<glyph name="G" format="2">
  <advance width="491"/>
  <unicode hex="0047"/>
  <anchor x="278" y="0" name="bottom"/>
  <anchor x="277" y="680" name="top"/>
  <outline>
    <contour>
      <point x="282" y="690" type="curve" smooth="yes"/>
      <point x="178" y="690"/>
      <point x="70" y="582"/>
      <point x="70" y="345" type="curve" smooth="yes"/>
      <point x="70" y="114"/>
      <point x="156" y="-9"/>
      <point x="290" y="-9" type="curve" smooth="yes"/>
      <point x="347" y="-9"/>
      <point x="393" y="15"/>
      <point x="426" y="39" type="curve"/>
      <point x="426" y="342" type="line"/>
      <point x="300" y="342" type="line"/>
      <point x="301" y="340" type="line"/>
      <point x="424" y="340" type="line"/>
      <point x="424" y="40" type="line"/>
      <point x="393" y="17"/>
      <point x="348" y="-7"/>
      <point x="290" y="-7" type="curve" smooth="yes"/>
      <point x="156" y="-7"/>
      <point x="72" y="116"/>
      <point x="72" y="345" type="curve" smooth="yes"/>
      <point x="72" y="580"/>
      <point x="179" y="688"/>
      <point x="282" y="688" type="curve" smooth="yes"/>
      <point x="332" y="688"/>
      <point x="371" y="669"/>
      <point x="410" y="633" type="curve"/>
      <point x="411" y="635" type="line"/>
      <point x="371" y="671"/>
      <point x="333" y="690"/>
    </contour>
  </outline>
</glyph>
<glyph name="H" format="2">
  <advance width="535"/>
  <unicode hex="0048"/>
  <anchor x="268" y="0" name="bottom"/>
  <anchor x="438" y="0" name="bottomright"/>
  <anchor x="267" y="340" name="center"/>
  <anchor x="267" y="680" name="top"/>
  <anchor x="65" y="680" name="topleft"/>
  <outline>
    <contour>
      <point x="427" y="0" type="line"/>
      <point x="429" y="0" type="line"/>
      <point x="429" y="680" type="line"/>
      <point x="427" y="680" type="line"/>
      <point x="427" y="362" type="line"/>
      <point x="108" y="362" type="line"/>
      <point x="108" y="680" type="line"/>
      <point x="106" y="680" type="line"/>
      <point x="106" y="0" type="line"/>
      <point x="108" y="0" type="line"/>
      <point x="108" y="360" type="line"/>
      <point x="427" y="360" type="line"/>
    </contour>
  </outline>
</glyph>
<glyph name="I" format="2">
  <advance width="214"/>
  <unicode hex="0049"/>
  <anchor x="107" y="0" name="bottom"/>
  <anchor x="116" y="0" name="ogonek"/>
  <anchor x="107" y="680" name="top"/>
  <anchor x="65" y="680" name="topleft"/>
  <outline>
    <contour>
      <point x="108" y="680" type="line"/>
      <point x="106" y="680" type="line"/>
      <point x="106" y="0" type="line"/>
      <point x="108" y="0" type="line"/>
    </contour>
  </outline>
</glyph>
<glyph name="J" format="2">
  <advance width="224"/>
  <unicode hex="004A"/>
  <anchor x="112" y="-188" name="bottom"/>
  <anchor x="122" y="680" name="top"/>
  <outline>
    <contour>
      <point x="123" y="680" type="line"/>
      <point x="121" y="680" type="line"/>
      <point x="121" y="85" type="line" smooth="yes"/>
      <point x="121" y="-6"/>
      <point x="105" y="-49"/>
      <point x="24" y="-89" type="curve"/>
      <point x="25" y="-91" type="line"/>
      <point x="107" y="-50"/>
      <point x="123" y="-7"/>
      <point x="123" y="85" type="curve" smooth="yes"/>
    </contour>
  </outline>
</glyph>
<glyph name="K" format="2">
  <advance width="419"/>
  <unicode hex="004B"/>
  <anchor x="233" y="0" name="bottom"/>
  <anchor x="232" y="680" name="top"/>
  <outline>
    <contour>
      <point x="388" y="680" type="line"/>
      <point x="385" y="680" type="line"/>
      <point x="110" y="366" type="line"/>
      <point x="398" y="0" type="line"/>
      <point x="401" y="0" type="line"/>
      <point x="113" y="366" type="line"/>
    </contour>
    <contour>
      <point x="108" y="680" type="line"/>
      <point x="106" y="680" type="line"/>
      <point x="106" y="1" type="line"/>
      <point x="108" y="1" type="line"/>
    </contour>
  </outline>
</glyph>
<glyph name="L" format="2">
  <advance width="364"/>
  <unicode hex="004C"/>
  <anchor x="225" y="0" name="bottom"/>
  <anchor x="287" y="355" name="center"/>
  <anchor x="107" y="680" name="top"/>
  <anchor x="149" y="680" name="topright"/>
  <outline>
    <contour>
      <point x="108" y="680" type="line"/>
      <point x="106" y="680" type="line"/>
      <point x="106" y="0" type="line"/>
      <point x="344" y="0" type="line"/>
      <point x="344" y="2" type="line"/>
      <point x="108" y="2" type="line"/>
    </contour>
  </outline>
</glyph>
<glyph name="M" format="2">
  <advance width="622"/>
  <unicode hex="004D"/>
  <anchor x="311" y="0" name="bottom"/>
  <anchor x="559" y="0" name="bottomright"/>
  <anchor x="310" y="680" name="top"/>
  <outline>
    <contour>
      <point x="486" y="680" type="line"/>
      <point x="483" y="680" type="line"/>
      <point x="310" y="88" type="line"/>
      <point x="138" y="680" type="line"/>
      <point x="135" y="680" type="line"/>
      <point x="70" y="0" type="line"/>
      <point x="72" y="0" type="line"/>
      <point x="106" y="361" type="line" smooth="yes"/>
      <point x="117" y="474"/>
      <point x="133" y="632"/>
      <point x="137" y="676" type="curve"/>
      <point x="309" y="85" type="line"/>
      <point x="311" y="85" type="line"/>
      <point x="484" y="676" type="line"/>
      <point x="491" y="604"/>
      <point x="504" y="468"/>
      <point x="515" y="354" type="curve" smooth="yes"/>
      <point x="549" y="0" type="line"/>
      <point x="552" y="0" type="line"/>
    </contour>
  </outline>
</glyph>
<glyph name="N" format="2">
  <advance width="535"/>
  <unicode hex="004E"/>
  <anchor x="263" y="0" name="bottom"/>
  <anchor x="271" y="680" name="top"/>
  <outline>
    <contour>
      <point x="429" y="680" type="line"/>
      <point x="427" y="680" type="line"/>
      <point x="427" y="136" type="line"/>
      <point x="427" y="95"/>
      <point x="427" y="43"/>
      <point x="428" y="2" type="curve"/>
      <point x="109" y="680" type="line"/>
      <point x="106" y="680" type="line"/>
      <point x="106" y="0" type="line"/>
      <point x="108" y="0" type="line"/>
      <point x="108" y="575" type="line"/>
      <point x="108" y="622"/>
      <point x="108" y="655"/>
      <point x="108" y="678" type="curve"/>
      <point x="427" y="0" type="line"/>
      <point x="429" y="0" type="line"/>
    </contour>
  </outline>
</glyph>
<glyph name="O" format="2">
  <advance width="564"/>
  <unicode hex="004F"/>
  <anchor x="283" y="0" name="bottom"/>
  <anchor x="347" y="0" name="ogonek"/>
  <anchor x="283" y="680" name="top"/>
  <anchor x="84" y="680" name="topleft"/>
  <anchor x="425" y="680" name="topright"/>
  <outline>
    <contour>
      <point x="282" y="690" type="curve" smooth="yes"/>
      <point x="155" y="690"/>
      <point x="70" y="572"/>
      <point x="70" y="338" type="curve" smooth="yes"/>
      <point x="70" y="104"/>
      <point x="151" y="-9"/>
      <point x="282" y="-9" type="curve" smooth="yes"/>
      <point x="419" y="-9"/>
      <point x="494" y="105"/>
      <point x="494" y="340" type="curve" smooth="yes"/>
      <point x="494" y="578"/>
      <point x="414" y="690"/>
    </contour>
    <contour>
      <point x="282" y="688" type="curve" smooth="yes"/>
      <point x="413" y="688"/>
      <point x="492" y="576"/>
      <point x="492" y="340" type="curve" smooth="yes"/>
      <point x="492" y="107"/>
      <point x="418" y="-7"/>
      <point x="282" y="-7" type="curve" smooth="yes"/>
      <point x="152" y="-7"/>
      <point x="72" y="106"/>
      <point x="72" y="338" type="curve" smooth="yes"/>
      <point x="72" y="570"/>
      <point x="156" y="688"/>
    </contour>
  </outline>
</glyph>
<glyph name="P" format="2">
  <advance width="447"/>
  <unicode hex="0050"/>
  <anchor x="107" y="0" name="bottom"/>
  <anchor x="226" y="680" name="top"/>
  <anchor x="65" y="680" name="topleft"/>
  <outline>
    <contour>
      <point x="108" y="0" type="line"/>
      <point x="108" y="678" type="line"/>
      <point x="171" y="678" type="line" smooth="yes"/>
      <point x="336" y="678"/>
      <point x="397" y="618"/>
      <point x="397" y="485" type="curve" smooth="yes"/>
      <point x="397" y="351"/>
      <point x="323" y="293"/>
      <point x="169" y="293" type="curve" smooth="yes"/>
      <point x="107" y="293" type="line"/>
      <point x="107" y="291" type="line"/>
      <point x="169" y="291" type="line" smooth="yes"/>
      <point x="324" y="291"/>
      <point x="399" y="350"/>
      <point x="399" y="485" type="curve" smooth="yes"/>
      <point x="399" y="619"/>
      <point x="337" y="680"/>
      <point x="171" y="680" type="curve" smooth="yes"/>
      <point x="106" y="680" type="line"/>
      <point x="106" y="0" type="line"/>
    </contour>
  </outline>
</glyph>
<glyph name="Q" format="2">
  <advance width="564"/>
  <unicode hex="0051"/>
  <anchor x="277" y="0" name="bottom"/>
  <anchor x="277" y="680" name="top"/>
  <outline>
    <contour>
      <point x="282" y="690" type="curve" smooth="yes"/>
      <point x="155" y="690"/>
      <point x="70" y="572"/>
      <point x="70" y="338" type="curve" smooth="yes"/>
      <point x="70" y="104"/>
      <point x="151" y="-9"/>
      <point x="282" y="-9" type="curve" smooth="yes"/>
      <point x="286" y="-9"/>
      <point x="290" y="-9"/>
      <point x="301" y="-8" type="curve"/>
      <point x="307" y="-7" type="line"/>
      <point x="427" y="6"/>
      <point x="494" y="118"/>
      <point x="494" y="340" type="curve" smooth="yes"/>
      <point x="494" y="578"/>
      <point x="414" y="690"/>
    </contour>
    <contour>
      <point x="307" y="-7" type="curve"/>
      <point x="282" y="-9" type="line"/>
      <point x="398" y="-7"/>
      <point x="454" y="-24"/>
      <point x="504" y="-73" type="curve"/>
      <point x="506" y="-72" type="line"/>
      <point x="454" y="-21"/>
      <point x="396" y="-8"/>
    </contour>
    <contour>
      <point x="282" y="688" type="curve" smooth="yes"/>
      <point x="413" y="688"/>
      <point x="492" y="576"/>
      <point x="492" y="340" type="curve" smooth="yes"/>
      <point x="492" y="107"/>
      <point x="418" y="-7"/>
      <point x="282" y="-7" type="curve" smooth="yes"/>
      <point x="152" y="-7"/>
      <point x="72" y="106"/>
      <point x="72" y="338" type="curve" smooth="yes"/>
      <point x="72" y="570"/>
      <point x="156" y="688"/>
    </contour>
  </outline>
</glyph>
<glyph name="R" format="2">
  <advance width="460"/>
  <unicode hex="0052"/>
  <anchor x="246" y="0" name="bottom"/>
  <anchor x="230" y="680" name="top"/>
  <outline>
    <contour>
      <point x="209" y="680" type="curve" smooth="yes"/>
      <point x="106" y="680" type="line"/>
      <point x="106" y="0" type="line"/>
      <point x="108" y="0" type="line"/>
      <point x="108" y="678" type="line"/>
      <point x="209" y="678" type="line" smooth="yes"/>
      <point x="349" y="678"/>
      <point x="393" y="609"/>
      <point x="393" y="506" type="curve" smooth="yes"/>
      <point x="393" y="388"/>
      <point x="321" y="336"/>
      <point x="230" y="336" type="curve" smooth="yes"/>
      <point x="107" y="336" type="line"/>
      <point x="107" y="334" type="line"/>
      <point x="230" y="334" type="line"/>
      <point x="323" y="334"/>
      <point x="395" y="387"/>
      <point x="395" y="506" type="curve" smooth="yes"/>
      <point x="395" y="610"/>
      <point x="350" y="680"/>
    </contour>
    <contour>
      <point x="256" y="336" type="line"/>
      <point x="254" y="336" type="line"/>
      <point x="412" y="0" type="line"/>
      <point x="415" y="0" type="line"/>
    </contour>
  </outline>
</glyph>
<glyph name="S" format="2">
  <advance width="442"/>
  <unicode hex="0053"/>
  <anchor x="214" y="0" name="bottom"/>
  <anchor x="224" y="680" name="top"/>
  <outline>
    <contour>
      <point x="219" y="690" type="curve" smooth="yes"/>
      <point x="129" y="690"/>
      <point x="72" y="619"/>
      <point x="72" y="538" type="curve" smooth="yes"/>
      <point x="72" y="452"/>
      <point x="108" y="412"/>
      <point x="221" y="368" type="curve" smooth="yes"/>
      <point x="326" y="327"/>
      <point x="375" y="282"/>
      <point x="375" y="178" type="curve" smooth="yes"/>
      <point x="375" y="74"/>
      <point x="310" y="-7"/>
      <point x="213" y="-7" type="curve" smooth="yes"/>
      <point x="138" y="-7"/>
      <point x="94" y="24"/>
      <point x="54" y="71" type="curve"/>
      <point x="53" y="69" type="line"/>
      <point x="93" y="22"/>
      <point x="138" y="-9"/>
      <point x="213" y="-9" type="curve" smooth="yes"/>
      <point x="312" y="-9"/>
      <point x="377" y="73"/>
      <point x="377" y="178" type="curve" smooth="yes"/>
      <point x="377" y="283"/>
      <point x="328" y="329"/>
      <point x="221" y="370" type="curve" smooth="yes"/>
      <point x="108" y="414"/>
      <point x="74" y="454"/>
      <point x="74" y="538" type="curve" smooth="yes"/>
      <point x="74" y="617"/>
      <point x="130" y="688"/>
      <point x="219" y="688" type="curve" smooth="yes"/>
      <point x="283" y="688"/>
      <point x="323" y="662"/>
      <point x="357" y="624" type="curve"/>
      <point x="358" y="626" type="line"/>
      <point x="324" y="663"/>
      <point x="284" y="690"/>
    </contour>
  </outline>
</glyph>
<glyph name="T" format="2">
  <advance width="386"/>
  <unicode hex="0054"/>
  <anchor x="193" y="0" name="bottom"/>
  <anchor x="202" y="0" name="bottomright"/>
  <anchor x="193" y="340" name="center"/>
  <anchor x="193" y="680" name="top"/>
  <outline>
    <contour>
      <point x="370" y="680" type="line"/>
      <point x="16" y="680" type="line"/>
      <point x="16" y="678" type="line"/>
      <point x="192" y="678" type="line"/>
      <point x="192" y="0" type="line"/>
      <point x="194" y="0" type="line"/>
      <point x="194" y="678" type="line"/>
      <point x="370" y="678" type="line"/>
    </contour>
  </outline>
</glyph>
<glyph name="U" format="2">
  <advance width="515"/>
  <unicode hex="0055"/>
  <anchor x="258" y="0" name="bottom"/>
  <anchor x="323" y="0" name="ogonek"/>
  <anchor x="258" y="680" name="top"/>
  <anchor x="428" y="680" name="topright"/>
  <outline>
    <contour>
      <point x="419" y="680" type="line"/>
      <point x="417" y="680" type="line"/>
      <point x="417" y="176" type="line" smooth="yes"/>
      <point x="417" y="74"/>
      <point x="375" y="-7"/>
      <point x="258" y="-7" type="curve" smooth="yes"/>
      <point x="139" y="-7"/>
      <point x="98" y="74"/>
      <point x="98" y="176" type="curve" smooth="yes"/>
      <point x="98" y="680" type="line"/>
      <point x="96" y="680" type="line"/>
      <point x="96" y="176" type="line" smooth="yes"/>
      <point x="96" y="73"/>
      <point x="138" y="-9"/>
      <point x="258" y="-9" type="curve" smooth="yes"/>
      <point x="376" y="-9"/>
      <point x="419" y="73"/>
      <point x="419" y="176" type="curve" smooth="yes"/>
    </contour>
  </outline>
</glyph>
<glyph name="V" format="2">
  <advance width="430"/>
  <unicode hex="0056"/>
  <anchor x="215" y="0" name="bottom"/>
  <anchor x="215" y="680" name="top"/>
  <outline>
    <contour>
      <point x="401" y="680" type="line"/>
      <point x="399" y="680" type="line"/>
      <point x="216" y="2" type="line"/>
      <point x="31" y="680" type="line"/>
      <point x="29" y="680" type="line"/>
      <point x="215" y="0" type="line"/>
      <point x="217" y="0" type="line"/>
    </contour>
  </outline>
</glyph>
<glyph name="W" format="2">
  <advance width="643"/>
  <unicode hex="0057"/>
  <anchor x="322" y="0" name="bottom"/>
  <anchor x="322" y="680" name="top"/>
  <outline>
    <contour>
      <point x="603" y="680" type="line"/>
      <point x="601" y="680" type="line"/>
      <point x="471" y="3" type="line"/>
      <point x="323" y="680" type="line"/>
      <point x="321" y="680" type="line"/>
      <point x="172" y="2" type="line"/>
      <point x="42" y="680" type="line"/>
      <point x="40" y="680" type="line"/>
      <point x="171" y="0" type="line"/>
      <point x="173" y="0" type="line"/>
      <point x="322" y="678" type="line"/>
      <point x="470" y="0" type="line"/>
      <point x="472" y="0" type="line"/>
    </contour>
  </outline>
</glyph>
<glyph name="X" format="2">
  <advance width="383"/>
  <unicode hex="0058"/>
  <anchor x="191" y="0" name="bottom"/>
  <anchor x="372" y="0" name="bottomright"/>
  <anchor x="191" y="680" name="top"/>
  <outline>
    <contour>
      <point x="43" y="680" type="line"/>
      <point x="41" y="680" type="line"/>
      <point x="189" y="370" type="line"/>
      <point x="191" y="369" type="line"/>
      <point x="365" y="0" type="line"/>
      <point x="367" y="0" type="line"/>
      <point x="193" y="370" type="line"/>
      <point x="191" y="371" type="line"/>
    </contour>
    <contour>
      <point x="341" y="680" type="line"/>
      <point x="339" y="680" type="line"/>
      <point x="191" y="371" type="line"/>
      <point x="189" y="370" type="line"/>
      <point x="16" y="0" type="line"/>
      <point x="18" y="0" type="line"/>
      <point x="191" y="369" type="line"/>
      <point x="193" y="370" type="line"/>
    </contour>
  </outline>
</glyph>
<glyph name="Y" format="2">
  <advance width="392"/>
  <unicode hex="0059"/>
  <anchor x="197" y="0" name="bottom"/>
  <anchor x="196" y="680" name="top"/>
  <anchor x="12" y="680" name="topleft"/>
  <outline>
    <contour>
      <point x="372" y="680" type="line"/>
      <point x="370" y="680" type="line"/>
      <point x="197" y="273" type="line"/>
      <point x="22" y="680" type="line"/>
      <point x="20" y="680" type="line"/>
      <point x="196" y="271" type="line"/>
      <point x="196" y="0" type="line"/>
      <point x="198" y="0" type="line"/>
      <point x="198" y="271" type="line"/>
    </contour>
  </outline>
</glyph>
<glyph name="Z" format="2">
  <advance width="414"/>
  <unicode hex="005A"/>
  <anchor x="212" y="0" name="bottom"/>
  <anchor x="208" y="680" name="top"/>
  <outline>
    <contour>
      <point x="373" y="680" type="line"/>
      <point x="67" y="680" type="line"/>
      <point x="67" y="678" type="line"/>
      <point x="371" y="678" type="line"/>
      <point x="37" y="2" type="line"/>
      <point x="37" y="0" type="line"/>
      <point x="359" y="0" type="line"/>
      <point x="359" y="2" type="line"/>
      <point x="39" y="2" type="line"/>
      <point x="373" y="678" type="line"/>
    </contour>
  </outline>
</glyph>
<glyph name="bracketleft" format="2">
  <advance width="254"/>
  <unicode hex="005B"/>
  <outline>
    <contour>
      <point x="180" y="790" type="line"/>
      <point x="90" y="790" type="line"/>
      <point x="90" y="-100" type="line"/>
      <point x="180" y="-100" type="line"/>
      <point x="180" y="-98" type="line"/>
      <point x="92" y="-98" type="line"/>
      <point x="92" y="788" type="line"/>
      <point x="180" y="788" type="line"/>
    </contour>
  </outline>
</glyph>
<glyph name="backslash" format="2">
  <advance width="426"/>
  <unicode hex="005C"/>
  <outline>
    <contour>
      <point x="119" y="794" type="line"/>
      <point x="117" y="793" type="line"/>
      <point x="307" y="-92" type="line"/>
      <point x="309" y="-91" type="line"/>
    </contour>
  </outline>
</glyph>
<glyph name="bracketright" format="2">
  <advance width="254"/>
  <unicode hex="005D"/>
  <outline>
    <contour>
      <point x="164" y="790" type="line"/>
      <point x="74" y="790" type="line"/>
      <point x="74" y="788" type="line"/>
      <point x="162" y="788" type="line"/>
      <point x="162" y="-98" type="line"/>
      <point x="74" y="-98" type="line"/>
      <point x="74" y="-100" type="line"/>
      <point x="164" y="-100" type="line"/>
    </contour>
  </outline>
</glyph>
<glyph name="asciicircum" format="2">
  <advance width="434"/>
  <unicode hex="005E"/>
  <outline>
    <contour>
      <point x="214" y="817" type="line"/>
      <point x="212" y="817" type="line"/>
      <point x="74" y="527" type="line"/>
      <point x="76" y="527" type="line"/>
      <point x="213" y="815" type="line"/>
      <point x="350" y="527" type="line"/>
      <point x="352" y="527" type="line"/>
    </contour>
  </outline>
</glyph>
<glyph name="underscore" format="2">
  <advance width="430"/>
  <unicode hex="005F"/>
  <outline>
    <contour>
      <point x="45" y="-87" type="line"/>
      <point x="385" y="-87" type="line"/>
      <point x="385" y="-85" type="line"/>
      <point x="45" y="-85" type="line"/>
    </contour>
  </outline>
</glyph>
<glyph name="b" format="2">
  <advance width="460"/>
  <unicode hex="0062"/>
  <anchor x="233" y="0" name="bottom"/>
  <anchor x="237" y="727" name="top"/>
  <outline>
    <contour>
      <point x="249" y="527" type="curve" smooth="yes"/>
      <point x="344" y="527"/>
      <point x="395" y="438"/>
      <point x="395" y="264" type="curve" smooth="yes"/>
      <point x="395" y="89"/>
      <point x="344" y="-9"/>
      <point x="246" y="-9" type="curve" smooth="yes"/>
      <point x="180" y="-9"/>
      <point x="136" y="35"/>
      <point x="103" y="100" type="curve"/>
      <point x="103" y="103" type="line"/>
      <point x="137" y="37"/>
      <point x="181" y="-7"/>
      <point x="246" y="-7" type="curve" smooth="yes"/>
      <point x="343" y="-7"/>
      <point x="393" y="91"/>
      <point x="393" y="264" type="curve" smooth="yes"/>
      <point x="393" y="436"/>
      <point x="344" y="525"/>
      <point x="249" y="525" type="curve" smooth="yes"/>
      <point x="183" y="525"/>
      <point x="141" y="482"/>
      <point x="103" y="417" type="curve"/>
      <point x="103" y="420" type="line"/>
      <point x="138" y="481"/>
      <point x="181" y="527"/>
    </contour>
    <contour>
      <point x="104" y="730" type="line"/>
      <point x="104" y="101" type="line"/>
      <point x="104" y="0" type="line"/>
      <point x="102" y="0" type="line"/>
      <point x="102" y="730" type="line"/>
    </contour>
  </outline>
</glyph>
<glyph name="c" format="2">
  <advance width="379"/>
  <unicode hex="0063"/>
  <anchor x="233" y="-1" name="bottom"/>
  <anchor x="220" y="517" name="top"/>
  <outline>
    <contour>
      <point x="231" y="527" type="curve" smooth="yes"/>
      <point x="127" y="527"/>
      <point x="65" y="436"/>
      <point x="65" y="256" type="curve" smooth="yes"/>
      <point x="65" y="76"/>
      <point x="135" y="-9"/>
      <point x="229" y="-9" type="curve" smooth="yes"/>
      <point x="279" y="-9"/>
      <point x="312" y="13"/>
      <point x="339" y="44" type="curve"/>
      <point x="337" y="45" type="line"/>
      <point x="310" y="14"/>
      <point x="277" y="-7"/>
      <point x="229" y="-7" type="curve" smooth="yes"/>
      <point x="136" y="-7"/>
      <point x="67" y="77"/>
      <point x="67" y="256" type="curve" smooth="yes"/>
      <point x="67" y="435"/>
      <point x="129" y="525"/>
      <point x="231" y="525" type="curve" smooth="yes"/>
      <point x="273" y="525"/>
      <point x="305" y="509"/>
      <point x="334" y="476" type="curve"/>
      <point x="336" y="477" type="line"/>
      <point x="307" y="510"/>
      <point x="274" y="527"/>
    </contour>
  </outline>
</glyph>
<glyph name="d" format="2">
  <advance width="464"/>
  <unicode hex="0064"/>
  <anchor x="232" y="0" name="bottom"/>
  <anchor x="232" y="259" name="center"/>
  <anchor x="225" y="727" name="top"/>
  <anchor x="403" y="727" name="topright"/>
  <outline>
    <contour>
      <point x="227" y="527" type="curve" smooth="yes"/>
      <point x="124" y="527"/>
      <point x="65" y="423"/>
      <point x="65" y="257" type="curve" smooth="yes"/>
      <point x="65" y="81"/>
      <point x="126" y="-9"/>
      <point x="221" y="-9" type="curve" smooth="yes"/>
      <point x="294" y="-9"/>
      <point x="333" y="40"/>
      <point x="361" y="102" type="curve"/>
      <point x="361" y="106" type="line"/>
      <point x="332" y="42"/>
      <point x="294" y="-7"/>
      <point x="221" y="-7" type="curve" smooth="yes"/>
      <point x="127" y="-7"/>
      <point x="67" y="82"/>
      <point x="67" y="257" type="curve" smooth="yes"/>
      <point x="67" y="422"/>
      <point x="125" y="525"/>
      <point x="227" y="525" type="curve" smooth="yes"/>
      <point x="297" y="525"/>
      <point x="340" y="471"/>
      <point x="361" y="419" type="curve"/>
      <point x="361" y="422" type="line"/>
      <point x="341" y="472"/>
      <point x="298" y="527"/>
    </contour>
    <contour>
      <point x="360" y="730" type="line"/>
      <point x="360" y="104" type="line" smooth="yes"/>
      <point x="360" y="102" type="line"/>
      <point x="360" y="0" type="line"/>
      <point x="362" y="0" type="line"/>
      <point x="362" y="730" type="line"/>
    </contour>
  </outline>
</glyph>
<glyph name="e" format="2">
  <advance width="431"/>
  <unicode hex="0065"/>
  <anchor x="226" y="0" name="bottom"/>
  <anchor x="298" y="4" name="ogonek"/>
  <anchor x="226" y="517" name="top"/>
  <outline>
    <contour>
      <point x="226" y="527" type="curve" smooth="yes"/>
      <point x="127" y="527"/>
      <point x="65" y="425"/>
      <point x="65" y="253" type="curve" smooth="yes"/>
      <point x="65" y="85"/>
      <point x="128" y="-9"/>
      <point x="226" y="-9" type="curve" smooth="yes"/>
      <point x="281" y="-9"/>
      <point x="315" y="13"/>
      <point x="352" y="50" type="curve"/>
      <point x="351" y="52" type="line"/>
      <point x="314" y="14"/>
      <point x="279" y="-7"/>
      <point x="226" y="-7" type="curve" smooth="yes"/>
      <point x="129" y="-7"/>
      <point x="67" y="86"/>
      <point x="67" y="253" type="curve"/>
      <point x="67" y="424"/>
      <point x="129" y="525"/>
      <point x="226" y="525" type="curve" smooth="yes"/>
      <point x="326" y="525"/>
      <point x="369" y="422"/>
      <point x="369" y="288" type="curve" smooth="yes"/>
      <point x="369" y="275"/>
      <point x="369" y="267"/>
      <point x="368" y="254" type="curve"/>
      <point x="66" y="254" type="line"/>
      <point x="66" y="252" type="line"/>
      <point x="370" y="252" type="line"/>
      <point x="371" y="266"/>
      <point x="371" y="274"/>
      <point x="371" y="288" type="curve" smooth="yes"/>
      <point x="371" y="423"/>
      <point x="327" y="527"/>
    </contour>
  </outline>
</glyph>
<glyph name="f" format="2">
  <advance width="246"/>
  <unicode hex="0066"/>
  <anchor x="105" y="0" name="bottom"/>
  <anchor x="197" y="727" name="top"/>
  <outline>
    <contour>
      <point x="196" y="733" type="curve" smooth="yes"/>
      <point x="143" y="733"/>
      <point x="104" y="698"/>
      <point x="104" y="628" type="curve" smooth="yes"/>
      <point x="104" y="0" type="line"/>
      <point x="106" y="0" type="line"/>
      <point x="106" y="628" type="line" smooth="yes"/>
      <point x="106" y="696"/>
      <point x="144" y="731"/>
      <point x="196" y="731" type="curve" smooth="yes"/>
      <point x="232" y="731"/>
      <point x="261" y="717"/>
      <point x="286" y="698" type="curve"/>
      <point x="287" y="700" type="line"/>
      <point x="262" y="719"/>
      <point x="232" y="733"/>
    </contour>
    <contour>
      <point x="230" y="517" type="line"/>
      <point x="29" y="517" type="line"/>
      <point x="29" y="515" type="line"/>
      <point x="230" y="515" type="line"/>
    </contour>
  </outline>
</glyph>
<glyph name="g" format="2">
  <advance width="399"/>
  <unicode hex="0067"/>
  <anchor x="207" y="-188" name="bottom"/>
  <anchor x="200" y="517" name="top"/>
  <outline>
    <contour>
      <point x="379" y="544" type="line"/>
      <point x="348" y="534"/>
      <point x="326" y="527"/>
      <point x="198" y="527" type="curve" smooth="yes"/>
      <point x="119" y="527"/>
      <point x="61" y="464"/>
      <point x="61" y="357" type="curve" smooth="yes"/>
      <point x="61" y="282"/>
      <point x="95" y="238"/>
      <point x="132" y="215" type="curve"/>
      <point x="108" y="195"/>
      <point x="87" y="168"/>
      <point x="87" y="128" type="curve" smooth="yes"/>
      <point x="87" y="82"/>
      <point x="117" y="54"/>
      <point x="188" y="54" type="curve" smooth="yes"/>
      <point x="243" y="54" type="line" smooth="yes"/>
      <point x="323" y="54"/>
      <point x="369" y="10"/>
      <point x="369" y="-59" type="curve" smooth="yes"/>
      <point x="369" y="-135"/>
      <point x="316" y="-190"/>
      <point x="207" y="-190" type="curve" smooth="yes"/>
      <point x="96" y="-190"/>
      <point x="47" y="-157"/>
      <point x="47" y="-60" type="curve"/>
      <point x="45" y="-60" type="line"/>
      <point x="45" y="-158"/>
      <point x="94" y="-192"/>
      <point x="207" y="-192" type="curve" smooth="yes"/>
      <point x="318" y="-192"/>
      <point x="371" y="-136"/>
      <point x="371" y="-59" type="curve" smooth="yes"/>
      <point x="371" y="10"/>
      <point x="325" y="56"/>
      <point x="243" y="56" type="curve" smooth="yes"/>
      <point x="188" y="56" type="line" smooth="yes"/>
      <point x="118" y="56"/>
      <point x="89" y="83"/>
      <point x="89" y="128" type="curve" smooth="yes"/>
      <point x="89" y="165"/>
      <point x="108" y="194"/>
      <point x="134" y="214" type="curve"/>
      <point x="155" y="202"/>
      <point x="178" y="194"/>
      <point x="209" y="194" type="curve" smooth="yes"/>
      <point x="288" y="194"/>
      <point x="344" y="247"/>
      <point x="344" y="356" type="curve" smooth="yes"/>
      <point x="344" y="445"/>
      <point x="307" y="512"/>
      <point x="223" y="525" type="curve"/>
      <point x="310" y="525"/>
      <point x="349" y="531"/>
      <point x="380" y="542" type="curve"/>
    </contour>
    <contour>
      <point x="198" y="525" type="curve" smooth="yes"/>
      <point x="270" y="525"/>
      <point x="342" y="481"/>
      <point x="342" y="356" type="curve" smooth="yes"/>
      <point x="342" y="248"/>
      <point x="286" y="196"/>
      <point x="209" y="196" type="curve" smooth="yes"/>
      <point x="135" y="196"/>
      <point x="63" y="250"/>
      <point x="63" y="357" type="curve" smooth="yes"/>
      <point x="63" y="459"/>
      <point x="117" y="525"/>
    </contour>
  </outline>
</glyph>
<glyph name="h" format="2">
  <advance width="475"/>
  <unicode hex="0068"/>
  <anchor x="240" y="0" name="bottom"/>
  <anchor x="240" y="260" name="center"/>
  <anchor x="240" y="727" name="top"/>
  <outline>
    <contour>
      <point x="375" y="0" type="line"/>
      <point x="377" y="0" type="line"/>
      <point x="377" y="368" type="line" smooth="yes"/>
      <point x="377" y="467"/>
      <point x="345" y="527"/>
      <point x="267" y="527" type="curve" smooth="yes"/>
      <point x="195" y="527"/>
      <point x="142" y="475"/>
      <point x="103" y="389" type="curve"/>
      <point x="104" y="387" type="line"/>
      <point x="143" y="473"/>
      <point x="196" y="525"/>
      <point x="267" y="525" type="curve" smooth="yes"/>
      <point x="344" y="525"/>
      <point x="375" y="466"/>
      <point x="375" y="368" type="curve" smooth="yes"/>
    </contour>
    <contour>
      <point x="102" y="0" type="line"/>
      <point x="104" y="0" type="line"/>
      <point x="104" y="730" type="line"/>
      <point x="102" y="730" type="line"/>
    </contour>
  </outline>
</glyph>
<glyph name="k" format="2">
  <advance width="367"/>
  <unicode hex="006B"/>
  <anchor x="220" y="0" name="bottom"/>
  <anchor x="213" y="727" name="top"/>
  <outline>
    <contour>
      <point x="325" y="517" type="line"/>
      <point x="322" y="517" type="line"/>
      <point x="109" y="283" type="line"/>
      <point x="344" y="0" type="line"/>
      <point x="347" y="0" type="line"/>
      <point x="112" y="283" type="line"/>
    </contour>
    <contour>
      <point x="104" y="730" type="line"/>
      <point x="102" y="730" type="line"/>
      <point x="102" y="0" type="line"/>
      <point x="104" y="0" type="line"/>
    </contour>
  </outline>
</glyph>
<glyph name="l" format="2">
  <advance width="224"/>
  <unicode hex="006C"/>
  <anchor x="141" y="0" name="bottom"/>
  <anchor x="209" y="375" name="center"/>
  <anchor x="98" y="730" name="top"/>
  <anchor x="148" y="727" name="topright"/>
  <outline>
    <contour>
      <point x="146" y="-9" type="curve" smooth="yes"/>
      <point x="158" y="-9"/>
      <point x="169" y="-6"/>
      <point x="179" y="-1" type="curve"/>
      <point x="179" y="1" type="line"/>
      <point x="169" y="-4"/>
      <point x="158" y="-7"/>
      <point x="146" y="-7" type="curve" smooth="yes"/>
      <point x="114" y="-7"/>
      <point x="99" y="15"/>
      <point x="99" y="50" type="curve" smooth="yes"/>
      <point x="99" y="730" type="line"/>
      <point x="97" y="730" type="line"/>
      <point x="97" y="50" type="line" smooth="yes"/>
      <point x="97" y="14"/>
      <point x="113" y="-9"/>
    </contour>
  </outline>
</glyph>
<glyph name="m" format="2">
  <advance width="692"/>
  <unicode hex="006D"/>
  <anchor x="347" y="0" name="bottom"/>
  <anchor x="347" y="517" name="top"/>
  <outline>
    <contour>
      <point x="247" y="527" type="curve" smooth="yes"/>
      <point x="183" y="527"/>
      <point x="138" y="475"/>
      <point x="103" y="389" type="curve"/>
      <point x="104" y="387" type="line"/>
      <point x="139" y="473"/>
      <point x="184" y="525"/>
      <point x="247" y="525" type="curve" smooth="yes"/>
      <point x="315" y="525"/>
      <point x="347" y="464"/>
      <point x="347" y="378" type="curve" smooth="yes"/>
      <point x="347" y="0" type="line"/>
      <point x="349" y="0" type="line"/>
      <point x="349" y="388" type="line"/>
      <point x="349" y="389" type="line"/>
      <point x="347" y="473"/>
      <point x="311" y="527"/>
    </contour>
    <contour>
      <point x="104" y="517" type="line"/>
      <point x="102" y="517" type="line"/>
      <point x="102" y="0" type="line"/>
      <point x="104" y="0" type="line"/>
      <point x="104" y="389" type="line"/>
    </contour>
    <contour>
      <point x="492" y="527" type="curve" smooth="yes"/>
      <point x="428" y="527"/>
      <point x="383" y="475"/>
      <point x="348" y="389" type="curve"/>
      <point x="349" y="387" type="line"/>
      <point x="384" y="473"/>
      <point x="429" y="525"/>
      <point x="492" y="525" type="curve" smooth="yes"/>
      <point x="560" y="525"/>
      <point x="592" y="464"/>
      <point x="592" y="368" type="curve" smooth="yes"/>
      <point x="592" y="0" type="line"/>
      <point x="594" y="0" type="line"/>
      <point x="594" y="368" type="line" smooth="yes"/>
      <point x="594" y="465"/>
      <point x="561" y="527"/>
    </contour>
  </outline>
</glyph>
<glyph name="n" format="2">
  <advance width="475"/>
  <unicode hex="006E"/>
  <anchor x="235" y="0" name="bottom"/>
  <anchor x="242" y="517" name="top"/>
  <anchor x="94" y="517" name="topleft"/>
  <outline>
    <contour>
      <point x="267" y="527" type="curve" smooth="yes"/>
      <point x="195" y="527"/>
      <point x="142" y="475"/>
      <point x="103" y="389" type="curve"/>
      <point x="104" y="387" type="line"/>
      <point x="143" y="473"/>
      <point x="196" y="525"/>
      <point x="267" y="525" type="curve" smooth="yes"/>
      <point x="344" y="525"/>
      <point x="375" y="466"/>
      <point x="375" y="368" type="curve" smooth="yes"/>
      <point x="375" y="0" type="line"/>
      <point x="377" y="0" type="line"/>
      <point x="377" y="368" type="line" smooth="yes"/>
      <point x="377" y="467"/>
      <point x="345" y="527"/>
    </contour>
    <contour>
      <point x="104" y="517" type="line"/>
      <point x="102" y="517" type="line"/>
      <point x="102" y="0" type="line"/>
      <point x="104" y="0" type="line"/>
      <point x="104" y="389" type="line"/>
    </contour>
  </outline>
</glyph>
<glyph name="o" format="2">
  <advance width="457"/>
  <unicode hex="006F"/>
  <anchor x="229" y="0" name="bottom"/>
  <anchor x="285" y="0" name="ogonek"/>
  <anchor x="229" y="517" name="top"/>
  <anchor x="353" y="517" name="topright"/>
  <outline>
    <contour>
      <point x="230" y="527" type="curve" smooth="yes"/>
      <point x="131" y="527"/>
      <point x="65" y="446"/>
      <point x="65" y="258" type="curve" smooth="yes"/>
      <point x="65" y="76"/>
      <point x="127" y="-9"/>
      <point x="228" y="-9" type="curve" smooth="yes"/>
      <point x="329" y="-9"/>
      <point x="392" y="74"/>
      <point x="392" y="262" type="curve" smooth="yes"/>
      <point x="392" y="444"/>
      <point x="330" y="527"/>
    </contour>
    <contour>
      <point x="230" y="525" type="curve" smooth="yes"/>
      <point x="329" y="525"/>
      <point x="390" y="443"/>
      <point x="390" y="262" type="curve" smooth="yes"/>
      <point x="390" y="76"/>
      <point x="328" y="-7"/>
      <point x="228" y="-7" type="curve" smooth="yes"/>
      <point x="128" y="-7"/>
      <point x="67" y="77"/>
      <point x="67" y="258" type="curve" smooth="yes"/>
      <point x="67" y="444"/>
      <point x="132" y="525"/>
    </contour>
  </outline>
</glyph>
<glyph name="p" format="2">
  <advance width="460"/>
  <unicode hex="0070"/>
  <anchor x="233" y="-188" name="bottom"/>
  <anchor x="233" y="517" name="top"/>
  <outline>
    <contour>
      <point x="251" y="527" type="curve" smooth="yes"/>
      <point x="183" y="527"/>
      <point x="138" y="481"/>
      <point x="103" y="420" type="curve"/>
      <point x="103" y="417" type="line"/>
      <point x="141" y="482"/>
      <point x="185" y="525"/>
      <point x="251" y="525" type="curve" smooth="yes"/>
      <point x="344" y="525"/>
      <point x="393" y="439"/>
      <point x="393" y="264" type="curve" smooth="yes"/>
      <point x="393" y="88"/>
      <point x="343" y="-7"/>
      <point x="247" y="-7" type="curve" smooth="yes"/>
      <point x="183" y="-7"/>
      <point x="138" y="37"/>
      <point x="103" y="103" type="curve"/>
      <point x="103" y="100" type="line"/>
      <point x="136" y="36"/>
      <point x="182" y="-9"/>
      <point x="247" y="-9" type="curve" smooth="yes"/>
      <point x="344" y="-9"/>
      <point x="395" y="87"/>
      <point x="395" y="264" type="curve" smooth="yes"/>
      <point x="395" y="440"/>
      <point x="345" y="527"/>
    </contour>
    <contour>
      <point x="104" y="517" type="line"/>
      <point x="102" y="517" type="line"/>
      <point x="102" y="-190" type="line"/>
      <point x="104" y="-190" type="line"/>
      <point x="104" y="419" type="line"/>
      <point x="104" y="421" type="line"/>
    </contour>
  </outline>
</glyph>
<glyph name="q" format="2">
  <advance width="464"/>
  <unicode hex="0071"/>
  <anchor x="232" y="-188" name="bottom"/>
  <anchor x="232" y="517" name="top"/>
  <outline>
    <contour>
      <point x="360" y="421" type="line"/>
      <point x="360" y="-190" type="line"/>
      <point x="362" y="-190" type="line"/>
      <point x="362" y="517" type="line"/>
      <point x="360" y="517" type="line"/>
      <point x="360" y="424" type="line"/>
    </contour>
    <contour>
      <point x="227" y="527" type="curve" smooth="yes"/>
      <point x="124" y="527"/>
      <point x="65" y="425"/>
      <point x="65" y="257" type="curve" smooth="yes"/>
      <point x="65" y="81"/>
      <point x="126" y="-9"/>
      <point x="222" y="-9" type="curve" smooth="yes"/>
      <point x="295" y="-9"/>
      <point x="333" y="41"/>
      <point x="361" y="102" type="curve"/>
      <point x="361" y="106" type="line"/>
      <point x="332" y="42"/>
      <point x="294" y="-7"/>
      <point x="222" y="-7" type="curve" smooth="yes"/>
      <point x="127" y="-7"/>
      <point x="67" y="82"/>
      <point x="67" y="257" type="curve" smooth="yes"/>
      <point x="67" y="424"/>
      <point x="125" y="525"/>
      <point x="227" y="525" type="curve" smooth="yes"/>
      <point x="297" y="525"/>
      <point x="340" y="470"/>
      <point x="361" y="419" type="curve"/>
      <point x="361" y="423" type="line"/>
      <point x="341" y="472"/>
      <point x="298" y="527"/>
    </contour>
  </outline>
</glyph>
<glyph name="r" format="2">
  <advance width="295"/>
  <unicode hex="0072"/>
  <anchor x="103" y="0" name="bottom"/>
  <anchor x="188" y="517" name="top"/>
  <outline>
    <contour>
      <point x="238" y="527" type="curve" smooth="yes"/>
      <point x="170" y="527"/>
      <point x="130" y="484"/>
      <point x="103" y="372" type="curve"/>
      <point x="103" y="365" type="line"/>
      <point x="131" y="482"/>
      <point x="170" y="525"/>
      <point x="238" y="525" type="curve" smooth="yes"/>
      <point x="254" y="525"/>
      <point x="265" y="523"/>
      <point x="275" y="520" type="curve"/>
      <point x="275" y="522" type="line"/>
      <point x="265" y="525"/>
      <point x="254" y="527"/>
    </contour>
    <contour>
      <point x="104" y="517" type="line"/>
      <point x="102" y="517" type="line"/>
      <point x="102" y="0" type="line"/>
      <point x="104" y="0" type="line"/>
      <point x="104" y="371" type="line"/>
      <point x="104" y="372" type="line"/>
    </contour>
  </outline>
</glyph>
<glyph name="s" format="2">
  <advance width="374"/>
  <unicode hex="0073"/>
  <anchor x="188" y="0" name="bottom"/>
  <anchor x="192" y="517" name="top"/>
  <outline>
    <contour>
      <point x="184" y="527" type="curve" smooth="yes"/>
      <point x="117" y="527"/>
      <point x="63" y="477"/>
      <point x="63" y="405" type="curve" smooth="yes"/>
      <point x="63" y="343"/>
      <point x="98" y="314"/>
      <point x="188" y="274" type="curve" smooth="yes"/>
      <point x="280" y="233"/>
      <point x="315" y="209"/>
      <point x="315" y="130" type="curve" smooth="yes"/>
      <point x="315" y="46"/>
      <point x="260" y="-7"/>
      <point x="186" y="-7" type="curve" smooth="yes"/>
      <point x="121" y="-7"/>
      <point x="84" y="21"/>
      <point x="50" y="59" type="curve"/>
      <point x="49" y="57" type="line"/>
      <point x="83" y="19"/>
      <point x="121" y="-9"/>
      <point x="186" y="-9" type="curve" smooth="yes"/>
      <point x="261" y="-9"/>
      <point x="317" y="44"/>
      <point x="317" y="130" type="curve" smooth="yes"/>
      <point x="317" y="209"/>
      <point x="282" y="235"/>
      <point x="189" y="276" type="curve" smooth="yes"/>
      <point x="99" y="316"/>
      <point x="65" y="345"/>
      <point x="65" y="405" type="curve" smooth="yes"/>
      <point x="65" y="476"/>
      <point x="119" y="525"/>
      <point x="184" y="525" type="curve" smooth="yes"/>
      <point x="236" y="525"/>
      <point x="270" y="508"/>
      <point x="304" y="473" type="curve"/>
      <point x="305" y="475" type="line"/>
      <point x="272" y="509"/>
      <point x="237" y="527"/>
    </contour>
  </outline>
</glyph>
<glyph name="t" format="2">
  <advance width="264"/>
  <unicode hex="0074"/>
  <anchor x="185" y="0" name="bottom"/>
  <anchor x="120" y="259" name="center"/>
  <anchor x="97" y="651" name="top"/>
  <anchor x="129" y="730" name="topright"/>
  <outline>
    <contour>
      <point x="98" y="651" type="line"/>
      <point x="96" y="651" type="line"/>
      <point x="96" y="93" type="line" smooth="yes"/>
      <point x="96" y="28"/>
      <point x="128" y="-9"/>
      <point x="181" y="-9" type="curve" smooth="yes"/>
      <point x="216" y="-9"/>
      <point x="238" y="4"/>
      <point x="258" y="19" type="curve"/>
      <point x="257" y="21" type="line"/>
      <point x="236" y="5"/>
      <point x="215" y="-7"/>
      <point x="181" y="-7" type="curve" smooth="yes"/>
      <point x="129" y="-7"/>
      <point x="98" y="29"/>
      <point x="98" y="93" type="curve" smooth="yes"/>
    </contour>
    <contour>
      <point x="218" y="517" type="line"/>
      <point x="25" y="517" type="line"/>
      <point x="25" y="515" type="line"/>
      <point x="218" y="515" type="line"/>
    </contour>
  </outline>
</glyph>
<glyph name="u" format="2">
  <advance width="471"/>
  <unicode hex="0075"/>
  <anchor x="237" y="0" name="bottom"/>
  <anchor x="377" y="0" name="ogonek"/>
  <anchor x="237" y="517" name="top"/>
  <anchor x="377" y="517" name="topright"/>
  <outline>
    <contour>
      <point x="369" y="517" type="line"/>
      <point x="367" y="517" type="line"/>
      <point x="367" y="120" type="line"/>
      <point x="333" y="45"/>
      <point x="285" y="-7"/>
      <point x="216" y="-7" type="curve" smooth="yes"/>
      <point x="142" y="-7"/>
      <point x="100" y="48"/>
      <point x="100" y="134" type="curve" smooth="yes"/>
      <point x="100" y="517" type="line"/>
      <point x="98" y="517" type="line"/>
      <point x="98" y="134" type="line" smooth="yes"/>
      <point x="98" y="46"/>
      <point x="141" y="-9"/>
      <point x="216" y="-9" type="curve" smooth="yes"/>
      <point x="284" y="-9"/>
      <point x="333" y="40"/>
      <point x="367" y="116" type="curve"/>
      <point x="367" y="0" type="line"/>
      <point x="369" y="0" type="line"/>
    </contour>
  </outline>
</glyph>
<glyph name="v" format="2">
  <advance width="364"/>
  <unicode hex="0076"/>
  <anchor x="186" y="0" name="bottom"/>
  <anchor x="182" y="517" name="top"/>
  <outline>
    <contour>
      <point x="336" y="517" type="line"/>
      <point x="334" y="517" type="line"/>
      <point x="186" y="2" type="line"/>
      <point x="30" y="517" type="line"/>
      <point x="28" y="517" type="line"/>
      <point x="185" y="0" type="line"/>
      <point x="187" y="0" type="line"/>
    </contour>
  </outline>
</glyph>
<glyph name="w" format="2">
  <advance width="556"/>
  <unicode hex="0077"/>
  <anchor x="278" y="0" name="bottom"/>
  <anchor x="278" y="517" name="top"/>
  <outline>
    <contour>
      <point x="521" y="517" type="line"/>
      <point x="519" y="517" type="line"/>
      <point x="404" y="2" type="line"/>
      <point x="279" y="517" type="line"/>
      <point x="277" y="517" type="line"/>
      <point x="152" y="2" type="line"/>
      <point x="37" y="517" type="line"/>
      <point x="35" y="517" type="line"/>
      <point x="151" y="0" type="line"/>
      <point x="153" y="0" type="line"/>
      <point x="278" y="515" type="line"/>
      <point x="403" y="0" type="line"/>
      <point x="405" y="0" type="line"/>
    </contour>
  </outline>
</glyph>
<glyph name="x" format="2">
  <advance width="357"/>
  <unicode hex="0078"/>
  <anchor x="179" y="0" name="bottom"/>
  <anchor x="338" y="0" name="bottomright"/>
  <anchor x="179" y="517" name="top"/>
  <outline>
    <contour>
      <point x="49" y="517" type="line"/>
      <point x="47" y="517" type="line"/>
      <point x="176" y="278" type="line"/>
      <point x="177" y="277" type="line"/>
      <point x="330" y="0" type="line"/>
      <point x="332" y="0" type="line"/>
      <point x="178" y="278" type="line"/>
      <point x="177" y="279" type="line"/>
    </contour>
    <contour>
      <point x="310" y="517" type="line"/>
      <point x="308" y="517" type="line"/>
      <point x="177" y="279" type="line"/>
      <point x="176" y="278" type="line"/>
      <point x="25" y="0" type="line"/>
      <point x="27" y="0" type="line"/>
      <point x="177" y="277" type="line"/>
      <point x="178" y="278" type="line"/>
    </contour>
  </outline>
</glyph>
<glyph name="y" format="2">
  <advance width="363"/>
  <unicode hex="0079"/>
  <anchor x="189" y="-188" name="bottom"/>
  <anchor x="182" y="517" name="top"/>
  <outline>
    <contour>
      <point x="335" y="517" type="line"/>
      <point x="333" y="517" type="line"/>
      <point x="187" y="0" type="line"/>
      <point x="30" y="517" type="line"/>
      <point x="28" y="517" type="line"/>
      <point x="185" y="0" type="line"/>
      <point x="187" y="0" type="line"/>
      <point x="155" y="-112"/>
      <point x="137" y="-157"/>
      <point x="53" y="-187" type="curve"/>
      <point x="54" y="-189" type="line"/>
      <point x="139" y="-159"/>
      <point x="157" y="-112"/>
      <point x="189" y="0" type="curve" smooth="yes"/>
    </contour>
  </outline>
</glyph>
<glyph name="z" format="2">
  <advance width="337"/>
  <unicode hex="007A"/>
  <anchor x="170" y="0" name="bottom"/>
  <anchor x="177" y="517" name="top"/>
  <outline>
    <contour>
      <point x="304" y="517" type="line"/>
      <point x="54" y="517" type="line"/>
      <point x="54" y="515" type="line"/>
      <point x="302" y="515" type="line"/>
      <point x="29" y="2" type="line"/>
      <point x="29" y="0" type="line"/>
      <point x="295" y="0" type="line"/>
      <point x="295" y="2" type="line"/>
      <point x="31" y="2" type="line"/>
      <point x="304" y="515" type="line"/>
    </contour>
  </outline>
</glyph>
<glyph name="braceleft" format="2">
  <advance width="267"/>
  <unicode hex="007B"/>
  <outline>
    <contour>
      <point x="189" y="808" type="line"/>
      <point x="149" y="808"/>
      <point x="123" y="782"/>
      <point x="123" y="714" type="curve" smooth="yes"/>
      <point x="123" y="427" type="line"/>
      <point x="123" y="375"/>
      <point x="98" y="350"/>
      <point x="61" y="350" type="curve"/>
      <point x="61" y="348" type="line"/>
      <point x="98" y="348"/>
      <point x="123" y="323"/>
      <point x="123" y="271" type="curve"/>
      <point x="123" y="-16" type="line" smooth="yes"/>
      <point x="123" y="-84"/>
      <point x="149" y="-110"/>
      <point x="189" y="-110" type="curve"/>
      <point x="189" y="-108" type="line"/>
      <point x="149" y="-108"/>
      <point x="125" y="-82"/>
      <point x="125" y="-15" type="curve" smooth="yes"/>
      <point x="125" y="271" type="line"/>
      <point x="125" y="320"/>
      <point x="102" y="349"/>
      <point x="63" y="349" type="curve"/>
      <point x="102" y="349"/>
      <point x="125" y="378"/>
      <point x="125" y="427" type="curve"/>
      <point x="125" y="713" type="line" smooth="yes"/>
      <point x="125" y="780"/>
      <point x="149" y="806"/>
      <point x="189" y="806" type="curve"/>
    </contour>
  </outline>
</glyph>
<glyph name="bar" format="2">
  <advance width="344"/>
  <unicode hex="007C"/>
  <outline>
    <contour>
      <point x="173" y="800" type="line"/>
      <point x="171" y="800" type="line"/>
      <point x="171" y="-97" type="line"/>
      <point x="173" y="-97" type="line"/>
    </contour>
  </outline>
</glyph>
<glyph name="braceright" format="2">
  <advance width="267"/>
  <unicode hex="007D"/>
  <outline>
    <contour>
      <point x="78" y="808" type="curve"/>
      <point x="78" y="806" type="line"/>
      <point x="118" y="806"/>
      <point x="142" y="780"/>
      <point x="142" y="713" type="curve" smooth="yes"/>
      <point x="142" y="427" type="line"/>
      <point x="142" y="378"/>
      <point x="165" y="349"/>
      <point x="204" y="349" type="curve"/>
      <point x="165" y="349"/>
      <point x="142" y="320"/>
      <point x="142" y="271" type="curve"/>
      <point x="142" y="-15" type="line" smooth="yes"/>
      <point x="142" y="-82"/>
      <point x="118" y="-108"/>
      <point x="78" y="-108" type="curve"/>
      <point x="78" y="-110" type="line"/>
      <point x="118" y="-110"/>
      <point x="144" y="-84"/>
      <point x="144" y="-16" type="curve" smooth="yes"/>
      <point x="144" y="271" type="line"/>
      <point x="144" y="323"/>
      <point x="169" y="348"/>
      <point x="206" y="348" type="curve"/>
      <point x="206" y="350" type="line"/>
      <point x="169" y="350"/>
      <point x="144" y="375"/>
      <point x="144" y="427" type="curve"/>
      <point x="144" y="714" type="line" smooth="yes"/>
      <point x="144" y="782"/>
      <point x="118" y="808"/>
    </contour>
  </outline>
</glyph>
<glyph name="asciitilde" format="2">
  <advance width="371"/>
  <unicode hex="007E"/>
  <anchor x="295" y="332" name="_center"/>
  <outline>
    <contour>
      <point x="246" y="291" type="curve" smooth="yes"/>
      <point x="274" y="291"/>
      <point x="292" y="313"/>
      <point x="302" y="336" type="curve"/>
      <point x="300" y="336" type="line"/>
      <point x="289" y="313"/>
      <point x="273" y="293"/>
      <point x="246" y="293" type="curve"/>
      <point x="206" y="293"/>
      <point x="168" y="348"/>
      <point x="127" y="348" type="curve"/>
      <point x="100" y="348"/>
      <point x="82" y="326"/>
      <point x="69" y="303" type="curve"/>
      <point x="71" y="303" type="line"/>
      <point x="85" y="326"/>
      <point x="101" y="346"/>
      <point x="127" y="346" type="curve" smooth="yes"/>
      <point x="168" y="346"/>
      <point x="206" y="291"/>
    </contour>
  </outline>
</glyph>
<glyph name="exclamdown" format="2">
  <advance width="210"/>
  <unicode hex="00A1"/>
  <outline>
    <contour>
      <point x="106" y="254" type="line"/>
      <point x="104" y="254" type="line"/>
      <point x="104" y="-188" type="line"/>
      <point x="106" y="-188" type="line"/>
    </contour>
    <contour>
      <point x="105" y="439" type="curve" smooth="yes"/>
      <point x="101" y="439"/>
      <point x="98" y="436"/>
      <point x="98" y="432" type="curve" smooth="yes"/>
      <point x="98" y="428"/>
      <point x="101" y="425"/>
      <point x="105" y="425" type="curve" smooth="yes"/>
      <point x="109" y="425"/>
      <point x="112" y="428"/>
      <point x="112" y="432" type="curve" smooth="yes"/>
      <point x="112" y="436"/>
      <point x="109" y="439"/>
    </contour>
  </outline>
</glyph>
<glyph name="sterling" format="2">
  <advance width="403"/>
  <unicode hex="00A3"/>
  <outline>
    <contour>
      <point x="242" y="670" type="curve" smooth="yes"/>
      <point x="160" y="670"/>
      <point x="122" y="598"/>
      <point x="122" y="506" type="curve" smooth="yes"/>
      <point x="122" y="118" type="line" smooth="yes"/>
      <point x="122" y="51"/>
      <point x="102" y="23"/>
      <point x="57" y="2" type="curve"/>
      <point x="57" y="0" type="line"/>
      <point x="347" y="0" type="line"/>
      <point x="347" y="2" type="line"/>
      <point x="62" y="2" type="line"/>
      <point x="105" y="23"/>
      <point x="124" y="52"/>
      <point x="124" y="118" type="curve" smooth="yes"/>
      <point x="124" y="506" type="line" smooth="yes"/>
      <point x="124" y="597"/>
      <point x="162" y="668"/>
      <point x="242" y="668" type="curve" smooth="yes"/>
      <point x="289" y="668"/>
      <point x="322" y="646"/>
      <point x="348" y="608" type="curve"/>
      <point x="350" y="609" type="line"/>
      <point x="323" y="648"/>
      <point x="289" y="670"/>
    </contour>
    <contour>
      <point x="296" y="356" type="line"/>
      <point x="76" y="356" type="line"/>
      <point x="76" y="354" type="line"/>
      <point x="296" y="354" type="line"/>
    </contour>
  </outline>
</glyph>
<glyph name="currency" format="2">
  <advance width="460"/>
  <unicode hex="00A4"/>
  <outline>
    <contour>
      <point x="229" y="510" type="curve"/>
      <point x="152" y="510"/>
      <point x="94" y="446"/>
      <point x="94" y="339" type="curve"/>
      <point x="94" y="231"/>
      <point x="154" y="170"/>
      <point x="229" y="170" type="curve"/>
      <point x="305" y="170"/>
      <point x="365" y="231"/>
      <point x="365" y="339" type="curve"/>
      <point x="365" y="446"/>
      <point x="308" y="510"/>
    </contour>
    <contour>
      <point x="76" y="135" type="line"/>
      <point x="138" y="210" type="line"/>
      <point x="137" y="212" type="line"/>
      <point x="74" y="136" type="line"/>
    </contour>
    <contour>
      <point x="384" y="135" type="line"/>
      <point x="386" y="136" type="line"/>
      <point x="322" y="212" type="line"/>
      <point x="321" y="210" type="line"/>
    </contour>
    <contour>
      <point x="76" y="541" type="line"/>
      <point x="74" y="540" type="line"/>
      <point x="134" y="465" type="line"/>
      <point x="136" y="466" type="line"/>
    </contour>
    <contour>
      <point x="384" y="541" type="line"/>
      <point x="324" y="465" type="line"/>
      <point x="326" y="464" type="line"/>
      <point x="386" y="540" type="line"/>
    </contour>
    <contour>
      <point x="229" y="508" type="curve"/>
      <point x="308" y="508"/>
      <point x="363" y="444"/>
      <point x="363" y="339" type="curve" smooth="yes"/>
      <point x="363" y="230"/>
      <point x="303" y="172"/>
      <point x="229" y="172" type="curve"/>
      <point x="156" y="172"/>
      <point x="96" y="230"/>
      <point x="96" y="339" type="curve" smooth="yes"/>
      <point x="96" y="445"/>
      <point x="152" y="508"/>
    </contour>
  </outline>
</glyph>
<glyph name="yen" format="2">
  <advance width="384"/>
  <unicode hex="00A5"/>
  <outline>
    <contour>
      <point x="364" y="660" type="line"/>
      <point x="362" y="660" type="line"/>
      <point x="192" y="321" type="line"/>
      <point x="22" y="660" type="line"/>
      <point x="20" y="660" type="line"/>
      <point x="191" y="319" type="line"/>
      <point x="191" y="0" type="line"/>
      <point x="193" y="0" type="line"/>
      <point x="193" y="319" type="line"/>
    </contour>
    <contour>
      <point x="302" y="186" type="line"/>
      <point x="86" y="186" type="line"/>
      <point x="86" y="184" type="line"/>
      <point x="302" y="184" type="line"/>
    </contour>
    <contour>
      <point x="302" y="320" type="line"/>
      <point x="86" y="320" type="line"/>
      <point x="86" y="318" type="line"/>
      <point x="302" y="318" type="line"/>
    </contour>
  </outline>
</glyph>
<glyph name="brokenbar" format="2">
  <advance width="344"/>
  <unicode hex="00A6"/>
  <outline>
    <contour>
      <point x="173" y="800" type="line"/>
      <point x="171" y="800" type="line"/>
      <point x="171" y="443" type="line"/>
      <point x="173" y="443" type="line"/>
    </contour>
    <contour>
      <point x="173" y="262" type="line"/>
      <point x="171" y="262" type="line"/>
      <point x="171" y="-97" type="line"/>
      <point x="173" y="-97" type="line"/>
    </contour>
  </outline>
</glyph>
<glyph name="section" format="2">
  <advance width="435"/>
  <unicode hex="00A7"/>
  <outline>
    <contour>
      <point x="226" y="670" type="curve"/>
      <point x="165" y="670"/>
      <point x="111" y="628"/>
      <point x="111" y="552" type="curve"/>
      <point x="111" y="493"/>
      <point x="135" y="463"/>
      <point x="230" y="424" type="curve"/>
      <point x="313" y="388"/>
      <point x="343" y="358"/>
      <point x="343" y="284" type="curve"/>
      <point x="343" y="224"/>
      <point x="313" y="184"/>
      <point x="273" y="157" type="curve"/>
      <point x="275" y="156" type="line"/>
      <point x="316" y="184"/>
      <point x="345" y="224"/>
      <point x="345" y="284" type="curve"/>
      <point x="345" y="359"/>
      <point x="314" y="390"/>
      <point x="230" y="426" type="curve"/>
      <point x="137" y="465"/>
      <point x="113" y="493"/>
      <point x="113" y="552" type="curve"/>
      <point x="113" y="627"/>
      <point x="166" y="668"/>
      <point x="226" y="668" type="curve"/>
      <point x="268" y="668"/>
      <point x="300" y="655"/>
      <point x="335" y="628" type="curve"/>
      <point x="336" y="630" type="line"/>
      <point x="300" y="657"/>
      <point x="268" y="670"/>
    </contour>
    <contour>
      <point x="167" y="455" type="line"/>
      <point x="115" y="414"/>
      <point x="90" y="375"/>
      <point x="90" y="321" type="curve"/>
      <point x="90" y="248"/>
      <point x="125" y="220"/>
      <point x="211" y="185" type="curve"/>
      <point x="298" y="151"/>
      <point x="325" y="124"/>
      <point x="325" y="61" type="curve" smooth="yes"/>
      <point x="325" y="-13"/>
      <point x="277" y="-57"/>
      <point x="210" y="-57" type="curve"/>
      <point x="165" y="-57"/>
      <point x="130" y="-44"/>
      <point x="95" y="-16" type="curve"/>
      <point x="94" y="-18" type="line"/>
      <point x="129" y="-46"/>
      <point x="164" y="-59"/>
      <point x="210" y="-59" type="curve"/>
      <point x="278" y="-59"/>
      <point x="327" y="-14"/>
      <point x="327" y="61" type="curve" smooth="yes"/>
      <point x="327" y="125"/>
      <point x="300" y="153"/>
      <point x="211" y="187" type="curve"/>
      <point x="125" y="222"/>
      <point x="92" y="250"/>
      <point x="92" y="321" type="curve"/>
      <point x="92" y="375"/>
      <point x="117" y="413"/>
      <point x="169" y="454" type="curve"/>
    </contour>
  </outline>
</glyph>
<glyph name="copyright" format="2">
  <advance width="664"/>
  <unicode hex="00A9"/>
  <outline>
    <contour>
      <point x="332" y="711" type="curve"/>
      <point x="205" y="711"/>
      <point x="113" y="611"/>
      <point x="113" y="435" type="curve" smooth="yes"/>
      <point x="113" y="256"/>
      <point x="205" y="159"/>
      <point x="332" y="159" type="curve"/>
      <point x="459" y="159"/>
      <point x="551" y="259"/>
      <point x="551" y="435" type="curve" smooth="yes"/>
      <point x="551" y="614"/>
      <point x="459" y="711"/>
    </contour>
    <contour>
      <point x="330" y="602" type="curve"/>
      <point x="284" y="602"/>
      <point x="227" y="558"/>
      <point x="227" y="437" type="curve" smooth="yes"/>
      <point x="227" y="323"/>
      <point x="273" y="271"/>
      <point x="330" y="271" type="curve"/>
      <point x="366" y="271"/>
      <point x="388" y="285"/>
      <point x="403" y="301" type="curve"/>
      <point x="402" y="303" type="line"/>
      <point x="386" y="287"/>
      <point x="366" y="273"/>
      <point x="330" y="273" type="curve"/>
      <point x="274" y="273"/>
      <point x="229" y="324"/>
      <point x="229" y="437" type="curve" smooth="yes"/>
      <point x="229" y="557"/>
      <point x="285" y="600"/>
      <point x="330" y="600" type="curve"/>
      <point x="361" y="600"/>
      <point x="379" y="588"/>
      <point x="393" y="574" type="curve"/>
      <point x="394" y="576" type="line"/>
      <point x="380" y="590"/>
      <point x="361" y="602"/>
    </contour>
    <contour>
      <point x="332" y="709" type="curve"/>
      <point x="458" y="709"/>
      <point x="549" y="613"/>
      <point x="549" y="435" type="curve" smooth="yes"/>
      <point x="549" y="260"/>
      <point x="458" y="161"/>
      <point x="332" y="161" type="curve"/>
      <point x="206" y="161"/>
      <point x="115" y="257"/>
      <point x="115" y="435" type="curve" smooth="yes"/>
      <point x="115" y="610"/>
      <point x="206" y="709"/>
    </contour>
  </outline>
</glyph>
<glyph name="ordfeminine" format="2">
  <advance width="500"/>
  <unicode hex="00AA"/>
  <outline>
    <contour>
      <point x="201" y="680" type="curve" smooth="yes"/>
      <point x="170" y="680"/>
      <point x="140" y="672"/>
      <point x="104" y="655" type="curve"/>
      <point x="105" y="653" type="line"/>
      <point x="141" y="670"/>
      <point x="171" y="678"/>
      <point x="201" y="678" type="curve" smooth="yes"/>
      <point x="269" y="678"/>
      <point x="292" y="634"/>
      <point x="292" y="564" type="curve" smooth="yes"/>
      <point x="292" y="366" type="line"/>
      <point x="292" y="364" type="line"/>
      <point x="292" y="310"/>
      <point x="299" y="289"/>
      <point x="328" y="278" type="curve"/>
      <point x="329" y="280" type="line"/>
      <point x="300" y="290"/>
      <point x="294" y="313"/>
      <point x="294" y="368" type="curve" smooth="yes"/>
      <point x="294" y="564" type="line" smooth="yes"/>
      <point x="294" y="636"/>
      <point x="270" y="680"/>
    </contour>
    <contour>
      <point x="292" y="513" type="line"/>
      <point x="210" y="513" type="line" smooth="yes"/>
      <point x="130" y="513"/>
      <point x="80" y="470"/>
      <point x="80" y="394" type="curve" smooth="yes"/>
      <point x="80" y="327"/>
      <point x="115" y="278"/>
      <point x="179" y="278" type="curve" smooth="yes"/>
      <point x="235" y="278"/>
      <point x="269" y="309"/>
      <point x="292" y="365" type="curve"/>
      <point x="292" y="369" type="line"/>
      <point x="269" y="312"/>
      <point x="236" y="280"/>
      <point x="179" y="280" type="curve" smooth="yes"/>
      <point x="116" y="280"/>
      <point x="82" y="328"/>
      <point x="82" y="394" type="curve" smooth="yes"/>
      <point x="82" y="468"/>
      <point x="131" y="511"/>
      <point x="211" y="511" type="curve" smooth="yes"/>
      <point x="292" y="511" type="line"/>
    </contour>
    <component base="minus" xOffset="11" yOffset="-330"/>
  </outline>
</glyph>
<glyph name="logicalnot" format="2">
  <advance width="401"/>
  <unicode hex="00AC"/>
  <outline>
    <contour>
      <point x="331" y="322" type="line"/>
      <point x="70" y="322" type="line"/>
      <point x="70" y="320" type="line"/>
      <point x="329" y="320" type="line"/>
      <point x="329" y="215" type="line"/>
      <point x="331" y="215" type="line"/>
    </contour>
  </outline>
</glyph>
<glyph name="registered" format="2">
  <advance width="520"/>
  <unicode hex="00AE"/>
  <outline>
    <contour>
      <point x="260" y="709" type="curve"/>
      <point x="148" y="709"/>
      <point x="90" y="625"/>
      <point x="90" y="499" type="curve"/>
      <point x="90" y="373"/>
      <point x="156" y="294"/>
      <point x="260" y="294" type="curve"/>
      <point x="372" y="294"/>
      <point x="430" y="378"/>
      <point x="430" y="504" type="curve"/>
      <point x="430" y="630"/>
      <point x="364" y="709"/>
    </contour>
    <contour>
      <point x="272" y="496" type="line"/>
      <point x="270" y="496" type="line"/>
      <point x="331" y="371" type="line"/>
      <point x="333" y="371" type="line"/>
    </contour>
    <contour>
      <point x="260" y="707" type="curve"/>
      <point x="363" y="707"/>
      <point x="428" y="629"/>
      <point x="428" y="504" type="curve"/>
      <point x="428" y="379"/>
      <point x="371" y="296"/>
      <point x="260" y="296" type="curve"/>
      <point x="157" y="296"/>
      <point x="92" y="374"/>
      <point x="92" y="499" type="curve"/>
      <point x="92" y="624"/>
      <point x="149" y="707"/>
    </contour>
    <contour>
      <point x="251" y="639" type="curve"/>
      <point x="205" y="639" type="line"/>
      <point x="205" y="372" type="line"/>
      <point x="207" y="372" type="line"/>
      <point x="207" y="637" type="line"/>
      <point x="251" y="637" type="line"/>
      <point x="297" y="637"/>
      <point x="324" y="614"/>
      <point x="324" y="566" type="curve"/>
      <point x="324" y="519"/>
      <point x="298" y="497"/>
      <point x="266" y="497" type="curve"/>
      <point x="206" y="497" type="line"/>
      <point x="206" y="495" type="line"/>
      <point x="270" y="495" type="line"/>
      <point x="271" y="495" type="line"/>
      <point x="299" y="497"/>
      <point x="326" y="518"/>
      <point x="326" y="566" type="curve"/>
      <point x="326" y="616"/>
      <point x="297" y="639"/>
    </contour>
  </outline>
</glyph>
<glyph name="degree" format="2">
  <advance width="412"/>
  <unicode hex="00B0"/>
  <outline>
    <contour>
      <point x="181" y="423" type="curve"/>
      <point x="123" y="423"/>
      <point x="80" y="470"/>
      <point x="80" y="556" type="curve"/>
      <point x="80" y="638"/>
      <point x="122" y="688"/>
      <point x="181" y="688" type="curve"/>
      <point x="245" y="688"/>
      <point x="282" y="638"/>
      <point x="282" y="555" type="curve"/>
      <point x="282" y="470"/>
      <point x="245" y="423"/>
    </contour>
    <contour>
      <point x="181" y="421" type="curve"/>
      <point x="246" y="421"/>
      <point x="284" y="469"/>
      <point x="284" y="555" type="curve"/>
      <point x="284" y="639"/>
      <point x="246" y="690"/>
      <point x="181" y="690" type="curve"/>
      <point x="121" y="690"/>
      <point x="78" y="639"/>
      <point x="78" y="556" type="curve"/>
      <point x="78" y="469"/>
      <point x="122" y="421"/>
    </contour>
  </outline>
</glyph>
<glyph name="paragraph" format="2">
  <advance width="559"/>
  <unicode hex="00B6"/>
  <outline>
    <contour>
      <point x="404" y="680" type="line"/>
      <point x="280" y="680" type="line"/>
      <point x="279" y="678" type="line"/>
      <point x="279" y="-190" type="line"/>
      <point x="281" y="-190" type="line"/>
      <point x="281" y="678" type="line"/>
      <point x="402" y="678" type="line"/>
      <point x="402" y="-190" type="line"/>
      <point x="404" y="-190" type="line"/>
    </contour>
    <contour>
      <point x="280" y="680" type="line"/>
      <point x="177" y="680"/>
      <point x="106" y="613"/>
      <point x="106" y="496" type="curve"/>
      <point x="106" y="399"/>
      <point x="152" y="312"/>
      <point x="280" y="312" type="curve"/>
    </contour>
  </outline>
</glyph>
<glyph name="ordmasculine" format="2">
  <advance width="411"/>
  <unicode hex="00BA"/>
  <outline>
    <contour>
      <point x="206" y="680" type="curve" smooth="yes"/>
      <point x="127" y="680"/>
      <point x="74" y="618"/>
      <point x="74" y="479" type="curve" smooth="yes"/>
      <point x="74" y="344"/>
      <point x="123" y="278"/>
      <point x="205" y="278" type="curve" smooth="yes"/>
      <point x="286" y="278"/>
      <point x="337" y="342"/>
      <point x="337" y="482" type="curve" smooth="yes"/>
      <point x="337" y="616"/>
      <point x="287" y="680"/>
    </contour>
    <contour>
      <point x="206" y="678" type="curve" smooth="yes"/>
      <point x="286" y="678"/>
      <point x="335" y="615"/>
      <point x="335" y="482" type="curve" smooth="yes"/>
      <point x="335" y="343"/>
      <point x="285" y="280"/>
      <point x="205" y="280" type="curve" smooth="yes"/>
      <point x="124" y="280"/>
      <point x="76" y="345"/>
      <point x="76" y="479" type="curve" smooth="yes"/>
      <point x="76" y="617"/>
      <point x="128" y="678"/>
    </contour>
    <component base="minus" xOffset="9" yOffset="-330"/>
  </outline>
</glyph>
<glyph name="questiondown" format="2">
  <advance width="383"/>
  <unicode hex="00BF"/>
  <outline>
    <contour>
      <point x="182" y="-192" type="curve"/>
      <point x="238" y="-192"/>
      <point x="281" y="-165"/>
      <point x="318" y="-112" type="curve"/>
      <point x="316" y="-110" type="line"/>
      <point x="280" y="-163"/>
      <point x="238" y="-190"/>
      <point x="182" y="-190" type="curve"/>
      <point x="115" y="-190"/>
      <point x="67" y="-136"/>
      <point x="67" y="-68" type="curve"/>
      <point x="67" y="76"/>
      <point x="219" y="54"/>
      <point x="219" y="217" type="curve"/>
      <point x="219" y="255" type="line"/>
      <point x="217" y="255" type="line"/>
      <point x="217" y="217" type="line"/>
      <point x="217" y="56"/>
      <point x="65" y="76"/>
      <point x="65" y="-68" type="curve"/>
      <point x="65" y="-137"/>
      <point x="115" y="-192"/>
    </contour>
    <contour>
      <point x="218" y="425" type="curve" smooth="yes"/>
      <point x="222" y="425"/>
      <point x="225" y="428"/>
      <point x="225" y="432" type="curve" smooth="yes"/>
      <point x="225" y="436"/>
      <point x="222" y="439"/>
      <point x="218" y="439" type="curve" smooth="yes"/>
      <point x="214" y="439"/>
      <point x="211" y="436"/>
      <point x="211" y="432" type="curve" smooth="yes"/>
      <point x="211" y="428"/>
      <point x="214" y="425"/>
    </contour>
  </outline>
</glyph>
<glyph name="AE" format="2">
  <advance width="615"/>
  <unicode hex="00C6"/>
  <anchor x="307" y="0" name="bottom"/>
  <anchor x="374" y="680" name="top"/>
  <outline>
    <contour>
      <point x="529" y="680" type="line"/>
      <point x="233" y="680" type="line"/>
      <point x="17" y="0" type="line"/>
      <point x="19" y="0" type="line"/>
      <point x="234" y="678" type="line"/>
      <point x="380" y="0" type="line"/>
      <point x="574" y="0" type="line"/>
      <point x="574" y="2" type="line"/>
      <point x="382" y="2" type="line"/>
      <point x="236" y="678" type="line"/>
      <point x="529" y="678" type="line"/>
    </contour>
    <contour>
      <point x="336" y="207" type="line"/>
      <point x="84" y="207" type="line"/>
      <point x="83" y="205" type="line"/>
      <point x="336" y="205" type="line"/>
    </contour>
    <contour>
      <point x="521" y="362" type="line"/>
      <point x="303" y="362" type="line"/>
      <point x="303" y="360" type="line"/>
      <point x="521" y="360" type="line"/>
    </contour>
  </outline>
</glyph>
<glyph name="Eth" format="2">
  <advance width="499"/>
  <unicode hex="00D0"/>
  <anchor x="250" y="0" name="bottom"/>
  <anchor x="249" y="340" name="center"/>
  <anchor x="233" y="680" name="top"/>
  <outline>
    <contour>
      <point x="265" y="354" type="line"/>
      <point x="102" y="354" type="line"/>
      <point x="25" y="354" type="line"/>
      <point x="25" y="352" type="line"/>
      <point x="265" y="352" type="line"/>
    </contour>
    <component base="D" xOffset="-4"/>
  </outline>
</glyph>
<glyph name="multiply" format="2">
  <advance width="392"/>
  <unicode hex="00D7"/>
  <outline>
    <contour>
      <point x="304" y="444" type="line"/>
      <point x="196" y="309" type="line"/>
      <point x="88" y="444" type="line"/>
      <point x="86" y="443" type="line"/>
      <point x="194" y="308" type="line"/>
      <point x="86" y="172" type="line"/>
      <point x="88" y="171" type="line"/>
      <point x="196" y="306" type="line"/>
      <point x="304" y="171" type="line"/>
      <point x="306" y="172" type="line"/>
      <point x="198" y="308" type="line"/>
      <point x="306" y="443" type="line"/>
    </contour>
  </outline>
</glyph>
<glyph name="Oslash" format="2">
  <advance width="564"/>
  <unicode hex="00D8"/>
  <anchor x="282" y="0" name="bottom"/>
  <anchor x="275" y="687" name="top"/>
  <outline>
    <contour>
      <point x="282" y="690" type="curve" smooth="yes"/>
      <point x="155" y="690"/>
      <point x="70" y="572"/>
      <point x="70" y="338" type="curve" smooth="yes"/>
      <point x="70" y="104"/>
      <point x="151" y="-9"/>
      <point x="282" y="-9" type="curve" smooth="yes"/>
      <point x="419" y="-9"/>
      <point x="494" y="105"/>
      <point x="494" y="340" type="curve" smooth="yes"/>
      <point x="494" y="578"/>
      <point x="414" y="690"/>
    </contour>
    <contour>
      <point x="282" y="688" type="curve" smooth="yes"/>
      <point x="413" y="688"/>
      <point x="492" y="576"/>
      <point x="492" y="340" type="curve" smooth="yes"/>
      <point x="492" y="107"/>
      <point x="418" y="-7"/>
      <point x="282" y="-7" type="curve" smooth="yes"/>
      <point x="152" y="-7"/>
      <point x="72" y="106"/>
      <point x="72" y="338" type="curve" smooth="yes"/>
      <point x="72" y="570"/>
      <point x="156" y="688"/>
    </contour>
    <contour>
      <point x="388" y="787" type="line"/>
      <point x="361" y="674" type="line"/>
      <point x="361" y="673" type="line"/>
      <point x="203" y="9" type="line"/>
      <point x="203" y="8" type="line"/>
      <point x="175" y="-102" type="line"/>
      <point x="177" y="-103" type="line"/>
      <point x="205" y="7" type="line"/>
      <point x="205" y="8" type="line"/>
      <point x="363" y="672" type="line"/>
      <point x="363" y="673" type="line"/>
      <point x="390" y="786" type="line"/>
    </contour>
  </outline>
</glyph>
<glyph name="Thorn" format="2">
  <advance width="447"/>
  <unicode hex="00DE"/>
  <anchor x="226" y="0" name="bottom"/>
  <anchor x="226" y="680" name="top"/>
  <outline>
    <contour>
      <point x="176" y="550" type="curve" smooth="yes"/>
      <point x="106" y="550" type="line"/>
      <point x="108" y="548" type="line"/>
      <point x="176" y="548" type="line" smooth="yes"/>
      <point x="336" y="548"/>
      <point x="397" y="491"/>
      <point x="397" y="351" type="curve" smooth="yes"/>
      <point x="397" y="210"/>
      <point x="322" y="156"/>
      <point x="174" y="156" type="curve" smooth="yes"/>
      <point x="107" y="156" type="line"/>
      <point x="107" y="154" type="line"/>
      <point x="174" y="154" type="line" smooth="yes"/>
      <point x="324" y="154"/>
      <point x="399" y="209"/>
      <point x="399" y="351" type="curve" smooth="yes"/>
      <point x="399" y="492"/>
      <point x="337" y="550"/>
    </contour>
    <contour>
      <point x="108" y="680" type="line"/>
      <point x="106" y="680" type="line"/>
      <point x="106" y="0" type="line"/>
      <point x="108" y="0" type="line"/>
    </contour>
  </outline>
</glyph>
<glyph name="germandbls" format="2">
  <advance width="467"/>
  <unicode hex="00DF"/>
  <outline>
    <contour>
      <point x="237" y="733" type="curve"/>
      <point x="158" y="733"/>
      <point x="102" y="670"/>
      <point x="102" y="571" type="curve"/>
      <point x="102" y="0" type="line"/>
      <point x="104" y="0" type="line"/>
      <point x="104" y="571" type="line"/>
      <point x="104" y="669"/>
      <point x="159" y="731"/>
      <point x="237" y="731" type="curve"/>
      <point x="309" y="731"/>
      <point x="350" y="685"/>
      <point x="350" y="612" type="curve"/>
      <point x="350" y="507"/>
      <point x="251" y="490"/>
      <point x="251" y="416" type="curve"/>
      <point x="251" y="324"/>
      <point x="412" y="327"/>
      <point x="412" y="142" type="curve"/>
      <point x="412" y="49"/>
      <point x="372" y="-8"/>
      <point x="303" y="-8" type="curve"/>
      <point x="268" y="-8"/>
      <point x="248" y="2"/>
      <point x="229" y="15" type="curve"/>
      <point x="228" y="13" type="line"/>
      <point x="246" y="1"/>
      <point x="267" y="-10"/>
      <point x="303" y="-10" type="curve"/>
      <point x="373" y="-10"/>
      <point x="414" y="48"/>
      <point x="414" y="142" type="curve"/>
      <point x="414" y="328"/>
      <point x="253" y="325"/>
      <point x="253" y="416" type="curve"/>
      <point x="253" y="489"/>
      <point x="352" y="506"/>
      <point x="352" y="612" type="curve"/>
      <point x="352" y="686"/>
      <point x="310" y="733"/>
    </contour>
  </outline>
</glyph>
<glyph name="ae" format="2">
  <advance width="688"/>
  <unicode hex="00E6"/>
  <anchor x="342" y="0" name="bottom"/>
  <anchor x="345" y="517" name="top"/>
  <outline>
    <contour>
      <point x="483" y="527" type="curve" smooth="yes"/>
      <point x="391" y="527"/>
      <point x="331" y="439"/>
      <point x="323" y="288" type="curve"/>
      <point x="322" y="253" type="line"/>
      <point x="322" y="75"/>
      <point x="385" y="-9"/>
      <point x="483" y="-9" type="curve" smooth="yes"/>
      <point x="538" y="-9"/>
      <point x="572" y="13"/>
      <point x="609" y="50" type="curve"/>
      <point x="608" y="52" type="line"/>
      <point x="571" y="14"/>
      <point x="536" y="-7"/>
      <point x="483" y="-7" type="curve" smooth="yes"/>
      <point x="387" y="-7"/>
      <point x="324" y="76"/>
      <point x="324" y="253" type="curve"/>
      <point x="324" y="424"/>
      <point x="385" y="525"/>
      <point x="483" y="525" type="curve" smooth="yes"/>
      <point x="583" y="525"/>
      <point x="626" y="432"/>
      <point x="626" y="288" type="curve" smooth="yes"/>
      <point x="626" y="275"/>
      <point x="626" y="267"/>
      <point x="625" y="254" type="curve"/>
      <point x="323" y="254" type="line"/>
      <point x="323" y="252" type="line"/>
      <point x="627" y="252" type="line"/>
      <point x="628" y="266"/>
      <point x="628" y="274"/>
      <point x="628" y="288" type="curve" smooth="yes"/>
      <point x="628" y="434"/>
      <point x="584" y="527"/>
    </contour>
    <contour>
      <point x="323" y="304" type="line"/>
      <point x="230" y="304" type="line" smooth="yes"/>
      <point x="119" y="304"/>
      <point x="57" y="246"/>
      <point x="57" y="145" type="curve" smooth="yes"/>
      <point x="57" y="56"/>
      <point x="101" y="-9"/>
      <point x="180" y="-9" type="curve" smooth="yes"/>
      <point x="251" y="-9"/>
      <point x="293" y="30"/>
      <point x="338" y="123" type="curve"/>
      <point x="337" y="125" type="line"/>
      <point x="293" y="35"/>
      <point x="252" y="-7"/>
      <point x="180" y="-7" type="curve" smooth="yes"/>
      <point x="102" y="-7"/>
      <point x="59" y="57"/>
      <point x="59" y="145" type="curve" smooth="yes"/>
      <point x="59" y="244"/>
      <point x="120" y="302"/>
      <point x="230" y="302" type="curve" smooth="yes"/>
      <point x="323" y="302" type="line"/>
    </contour>
    <contour>
      <point x="208" y="527" type="curve" smooth="yes"/>
      <point x="170" y="527"/>
      <point x="132" y="516"/>
      <point x="87" y="493" type="curve"/>
      <point x="87" y="491" type="line"/>
      <point x="133" y="514"/>
      <point x="170" y="525"/>
      <point x="208" y="525" type="curve" smooth="yes"/>
      <point x="292" y="525"/>
      <point x="322" y="466"/>
      <point x="322" y="372" type="curve" smooth="yes"/>
      <point x="322" y="253" type="line"/>
      <point x="324" y="253" type="line"/>
      <point x="324" y="372" type="line" smooth="yes"/>
      <point x="324" y="468"/>
      <point x="293" y="527"/>
    </contour>
  </outline>
</glyph>
<glyph name="eth" format="2">
  <advance width="443"/>
  <unicode hex="00F0"/>
  <anchor x="219" y="0" name="bottom"/>
  <anchor x="234" y="727" name="top"/>
  <outline>
    <contour>
      <point x="124" y="734" type="curve"/>
      <point x="124" y="732" type="line"/>
      <point x="164" y="720"/>
      <point x="207" y="699"/>
      <point x="242" y="669" type="curve"/>
      <point x="326" y="596"/>
      <point x="368" y="491"/>
      <point x="371" y="335" type="curve"/>
      <point x="371" y="334" type="line"/>
      <point x="371" y="330"/>
      <point x="371" y="326"/>
      <point x="371" y="322" type="curve"/>
      <point x="371" y="83"/>
      <point x="316" y="-7"/>
      <point x="216" y="-7" type="curve" smooth="yes"/>
      <point x="123" y="-7"/>
      <point x="67" y="79"/>
      <point x="67" y="228" type="curve" smooth="yes"/>
      <point x="67" y="361"/>
      <point x="120" y="455"/>
      <point x="213" y="455" type="curve" smooth="yes"/>
      <point x="281" y="455"/>
      <point x="332" y="405"/>
      <point x="372" y="332" type="curve"/>
      <point x="372" y="335" type="line"/>
      <point x="333" y="407"/>
      <point x="282" y="457"/>
      <point x="213" y="457" type="curve" smooth="yes"/>
      <point x="118" y="457"/>
      <point x="65" y="361"/>
      <point x="65" y="228" type="curve" smooth="yes"/>
      <point x="65" y="78"/>
      <point x="122" y="-9"/>
      <point x="216" y="-9" type="curve" smooth="yes"/>
      <point x="318" y="-9"/>
      <point x="373" y="83"/>
      <point x="373" y="322" type="curve" smooth="yes"/>
      <point x="373" y="486"/>
      <point x="328" y="598"/>
      <point x="244" y="670" type="curve"/>
      <point x="209" y="701"/>
      <point x="165" y="722"/>
    </contour>
    <contour>
      <point x="294" y="737" type="line"/>
      <point x="243" y="671" type="line"/>
      <point x="242" y="670" type="line"/>
      <point x="169" y="577" type="line"/>
      <point x="171" y="576" type="line"/>
      <point x="244" y="669" type="line"/>
      <point x="245" y="670" type="line"/>
      <point x="296" y="736" type="line"/>
    </contour>
  </outline>
</glyph>
<glyph name="oslash" format="2">
  <advance width="457"/>
  <unicode hex="00F8"/>
  <anchor x="229" y="0" name="bottom"/>
  <anchor x="229" y="517" name="top"/>
  <outline>
    <contour>
      <point x="230" y="527" type="curve" smooth="yes"/>
      <point x="131" y="527"/>
      <point x="65" y="446"/>
      <point x="65" y="258" type="curve" smooth="yes"/>
      <point x="65" y="76"/>
      <point x="127" y="-9"/>
      <point x="228" y="-9" type="curve" smooth="yes"/>
      <point x="329" y="-9"/>
      <point x="392" y="74"/>
      <point x="392" y="262" type="curve" smooth="yes"/>
      <point x="392" y="444"/>
      <point x="330" y="527"/>
    </contour>
    <contour>
      <point x="230" y="525" type="curve" smooth="yes"/>
      <point x="329" y="525"/>
      <point x="390" y="442"/>
      <point x="390" y="262" type="curve" smooth="yes"/>
      <point x="390" y="76"/>
      <point x="328" y="-7"/>
      <point x="228" y="-7" type="curve" smooth="yes"/>
      <point x="128" y="-7"/>
      <point x="67" y="78"/>
      <point x="67" y="258" type="curve" smooth="yes"/>
      <point x="67" y="444"/>
      <point x="132" y="525"/>
    </contour>
    <contour>
      <point x="327" y="630" type="line"/>
      <point x="295" y="512" type="line"/>
      <point x="295" y="511" type="line"/>
      <point x="160" y="9" type="line"/>
      <point x="160" y="8" type="line"/>
      <point x="127" y="-112" type="line"/>
      <point x="129" y="-112" type="line"/>
      <point x="162" y="7" type="line"/>
      <point x="162" y="8" type="line"/>
      <point x="296" y="510" type="line"/>
      <point x="296" y="511" type="line"/>
      <point x="329" y="630" type="line"/>
    </contour>
  </outline>
</glyph>
<glyph name="thorn" format="2">
  <advance width="460"/>
  <unicode hex="00FE"/>
  <anchor x="232" y="-188" name="bottom"/>
  <anchor x="232" y="727" name="top"/>
  <outline>
    <contour>
      <point x="251" y="527" type="curve" smooth="yes"/>
      <point x="183" y="527"/>
      <point x="138" y="481"/>
      <point x="103" y="420" type="curve"/>
      <point x="103" y="417" type="line"/>
      <point x="141" y="482"/>
      <point x="185" y="525"/>
      <point x="251" y="525" type="curve" smooth="yes"/>
      <point x="344" y="525"/>
      <point x="393" y="439"/>
      <point x="393" y="264" type="curve" smooth="yes"/>
      <point x="393" y="88"/>
      <point x="343" y="-7"/>
      <point x="247" y="-7" type="curve" smooth="yes"/>
      <point x="183" y="-7"/>
      <point x="138" y="37"/>
      <point x="103" y="103" type="curve"/>
      <point x="103" y="100" type="line"/>
      <point x="136" y="36"/>
      <point x="182" y="-9"/>
      <point x="247" y="-9" type="curve" smooth="yes"/>
      <point x="344" y="-9"/>
      <point x="395" y="87"/>
      <point x="395" y="264" type="curve" smooth="yes"/>
      <point x="395" y="440"/>
      <point x="345" y="527"/>
    </contour>
    <contour>
      <point x="104" y="730" type="line"/>
      <point x="102" y="730" type="line"/>
      <point x="102" y="-190" type="line"/>
      <point x="104" y="-190" type="line"/>
    </contour>
  </outline>
</glyph>
<glyph name="dcroat" format="2">
  <advance width="473"/>
  <unicode hex="0111"/>
  <anchor x="232" y="0" name="bottom"/>
  <anchor x="232" y="259" name="center"/>
  <anchor x="225" y="727" name="top"/>
  <anchor x="403" y="727" name="topright"/>
  <outline>
    <contour>
      <point x="429" y="640" type="line"/>
      <point x="218" y="640" type="line"/>
      <point x="218" y="638" type="line"/>
      <point x="367" y="638" type="line"/>
      <point x="429" y="638" type="line"/>
    </contour>
    <component base="d"/>
  </outline>
</glyph>
<glyph name="Hbar" format="2">
  <advance width="547"/>
  <unicode hex="0126"/>
  <anchor x="274" y="0" name="bottom"/>
  <anchor x="444" y="0" name="bottomright"/>
  <anchor x="273" y="340" name="center"/>
  <anchor x="273" y="680" name="top"/>
  <anchor x="71" y="680" name="topleft"/>
  <outline>
    <contour>
      <point x="478" y="528" type="line"/>
      <point x="434" y="528" type="line"/>
      <point x="69" y="528" type="line"/>
      <point x="69" y="526" type="line"/>
      <point x="113" y="526" type="line"/>
      <point x="478" y="526" type="line"/>
    </contour>
    <component base="H" xOffset="6"/>
  </outline>
</glyph>
<glyph name="hbar" format="2">
  <advance width="479"/>
  <unicode hex="0127"/>
  <anchor x="244" y="0" name="bottom"/>
  <anchor x="244" y="260" name="center"/>
  <anchor x="244" y="727" name="top"/>
  <outline>
    <contour>
      <point x="264" y="640" type="line"/>
      <point x="44" y="640" type="line"/>
      <point x="44" y="638" type="line"/>
      <point x="106" y="638" type="line"/>
      <point x="264" y="638" type="line"/>
    </contour>
    <component base="h" xOffset="4"/>
  </outline>
</glyph>
<glyph name="dotlessi" format="2">
  <advance width="206"/>
  <unicode hex="0131"/>
  <anchor x="103" y="0" name="bottom"/>
  <anchor x="112" y="0" name="ogonek"/>
  <anchor x="103" y="517" name="top"/>
  <outline>
    <contour>
      <point x="104" y="517" type="line"/>
      <point x="102" y="517" type="line"/>
      <point x="102" y="0" type="line"/>
      <point x="104" y="0" type="line"/>
    </contour>
  </outline>
</glyph>
<glyph name="kgreenlandic" format="2">
  <advance width="365"/>
  <unicode hex="0138"/>
  <anchor x="183" y="0" name="bottom"/>
  <anchor x="183" y="517" name="top"/>
  <outline>
    <contour>
      <point x="323" y="517" type="line"/>
      <point x="320" y="517" type="line"/>
      <point x="107" y="273" type="line"/>
      <point x="342" y="0" type="line"/>
      <point x="345" y="0" type="line"/>
      <point x="110" y="273" type="line"/>
    </contour>
    <contour>
      <point x="104" y="517" type="line"/>
      <point x="102" y="517" type="line"/>
      <point x="102" y="0" type="line"/>
      <point x="104" y="0" type="line"/>
    </contour>
  </outline>
</glyph>
<glyph name="Lslash" format="2">
  <advance width="366"/>
  <unicode hex="0141"/>
  <anchor x="227" y="0" name="bottom"/>
  <anchor x="289" y="355" name="center"/>
  <anchor x="109" y="680" name="top"/>
  <anchor x="151" y="680" name="topright"/>
  <outline>
    <contour>
      <point x="280" y="456" type="line"/>
      <point x="109" y="327" type="line"/>
      <point x="43" y="278" type="line"/>
      <point x="44" y="276" type="line"/>
      <point x="281" y="454" type="line"/>
    </contour>
    <component base="L" xOffset="2"/>
  </outline>
</glyph>
<glyph name="lslash" format="2">
  <advance width="237"/>
  <unicode hex="0142"/>
  <anchor x="146" y="0" name="bottom"/>
  <anchor x="214" y="375" name="center"/>
  <anchor x="103" y="730" name="top"/>
  <anchor x="153" y="727" name="topright"/>
  <outline>
    <contour>
      <point x="46" y="317" type="line"/>
      <point x="196" y="432" type="line"/>
      <point x="195" y="434" type="line"/>
      <point x="103" y="364" type="line"/>
      <point x="45" y="319" type="line"/>
    </contour>
    <component base="l" xOffset="5"/>
  </outline>
</glyph>
<glyph name="napostrophe" format="2">
  <advance width="523"/>
  <unicode hex="0149"/>
  <anchor x="283" y="0" name="bottom"/>
  <anchor x="290" y="517" name="top"/>
  <anchor x="142" y="517" name="topleft"/>
  <outline>
    <contour>
      <point x="83" y="733" type="curve" smooth="yes"/>
      <point x="80" y="733"/>
      <point x="78" y="731"/>
      <point x="78" y="728" type="curve" smooth="yes"/>
      <point x="78" y="725"/>
      <point x="80" y="723"/>
      <point x="84" y="723" type="curve"/>
      <point x="64" y="601" type="line"/>
      <point x="65" y="601" type="line"/>
      <point x="85" y="712" type="line" smooth="yes"/>
      <point x="87" y="721"/>
      <point x="88" y="726"/>
      <point x="88" y="728" type="curve" smooth="yes"/>
      <point x="88" y="731"/>
      <point x="86" y="733"/>
    </contour>
    <component base="n" xOffset="48"/>
  </outline>
</glyph>
<glyph name="OE" format="2">
  <advance width="688"/>
  <unicode hex="0152"/>
  <anchor x="344" y="0" name="bottom"/>
  <anchor x="344" y="680" name="top"/>
  <outline>
    <contour>
      <point x="266" y="690" type="curve" smooth="yes"/>
      <point x="150" y="690"/>
      <point x="70" y="557"/>
      <point x="70" y="338" type="curve" smooth="yes"/>
      <point x="70" y="119"/>
      <point x="146" y="-9"/>
      <point x="266" y="-9" type="curve" smooth="yes"/>
      <point x="290" y="-9"/>
      <point x="309" y="-5"/>
      <point x="326" y="1" type="curve"/>
      <point x="419" y="37"/>
      <point x="470" y="156"/>
      <point x="470" y="361" type="curve" smooth="yes"/>
      <point x="470" y="525"/>
      <point x="420" y="642"/>
      <point x="327" y="679" type="curve"/>
      <point x="312" y="685"/>
      <point x="290" y="690"/>
    </contour>
    <contour>
      <point x="647" y="2" type="line"/>
      <point x="327" y="2" type="line"/>
      <point x="322" y="0" type="line"/>
      <point x="647" y="0" type="line"/>
    </contour>
    <contour>
      <point x="603" y="362" type="line"/>
      <point x="469" y="362" type="line"/>
      <point x="469" y="360" type="line"/>
      <point x="603" y="360" type="line"/>
    </contour>
    <contour>
      <point x="639" y="680" type="line"/>
      <point x="324" y="680" type="line"/>
      <point x="328" y="678" type="line"/>
      <point x="639" y="678" type="line"/>
    </contour>
    <contour>
      <point x="266" y="688" type="curve" smooth="yes"/>
      <point x="392" y="688"/>
      <point x="468" y="561"/>
      <point x="468" y="361" type="curve" smooth="yes"/>
      <point x="468" y="122"/>
      <point x="397" y="-7"/>
      <point x="266" y="-7" type="curve" smooth="yes"/>
      <point x="148" y="-7"/>
      <point x="72" y="121"/>
      <point x="72" y="338" type="curve" smooth="yes"/>
      <point x="72" y="555"/>
      <point x="151" y="688"/>
    </contour>
  </outline>
</glyph>
<glyph name="oe" format="2">
  <advance width="757"/>
  <unicode hex="0153"/>
  <anchor x="392" y="0" name="bottom"/>
  <anchor x="391" y="517" name="top"/>
  <outline>
    <contour>
      <point x="230" y="527" type="curve" smooth="yes"/>
      <point x="131" y="527"/>
      <point x="65" y="441"/>
      <point x="65" y="258" type="curve" smooth="yes"/>
      <point x="65" y="81"/>
      <point x="127" y="-9"/>
      <point x="229" y="-9" type="curve" smooth="yes"/>
      <point x="329" y="-9"/>
      <point x="392" y="89"/>
      <point x="392" y="262" type="curve" smooth="yes"/>
      <point x="392" y="429"/>
      <point x="330" y="527"/>
    </contour>
    <contour>
      <point x="230" y="525" type="curve" smooth="yes"/>
      <point x="329" y="525"/>
      <point x="390" y="427"/>
      <point x="390" y="262" type="curve" smooth="yes"/>
      <point x="390" y="91"/>
      <point x="328" y="-7"/>
      <point x="229" y="-7" type="curve" smooth="yes"/>
      <point x="128" y="-7"/>
      <point x="67" y="83"/>
      <point x="67" y="258" type="curve" smooth="yes"/>
      <point x="67" y="439"/>
      <point x="132" y="525"/>
    </contour>
    <contour>
      <point x="551" y="527" type="curve" smooth="yes"/>
      <point x="453" y="527"/>
      <point x="390" y="426"/>
      <point x="390" y="253" type="curve" smooth="yes"/>
      <point x="390" y="85"/>
      <point x="454" y="-9"/>
      <point x="551" y="-9" type="curve" smooth="yes"/>
      <point x="606" y="-9"/>
      <point x="641" y="13"/>
      <point x="678" y="50" type="curve"/>
      <point x="677" y="52" type="line"/>
      <point x="640" y="14"/>
      <point x="605" y="-7"/>
      <point x="551" y="-7" type="curve" smooth="yes"/>
      <point x="455" y="-7"/>
      <point x="393" y="86"/>
      <point x="392" y="253" type="curve"/>
      <point x="392" y="424"/>
      <point x="454" y="525"/>
      <point x="551" y="525" type="curve" smooth="yes"/>
      <point x="651" y="525"/>
      <point x="695" y="432"/>
      <point x="695" y="288" type="curve" smooth="yes"/>
      <point x="695" y="275"/>
      <point x="695" y="267"/>
      <point x="694" y="254" type="curve"/>
      <point x="392" y="254" type="line"/>
      <point x="392" y="252" type="line"/>
      <point x="696" y="252" type="line"/>
      <point x="697" y="266"/>
      <point x="697" y="274"/>
      <point x="697" y="288" type="curve" smooth="yes"/>
      <point x="697" y="434"/>
      <point x="652" y="527"/>
    </contour>
  </outline>
</glyph>
<glyph name="Tbar" format="2">
  <advance width="386"/>
  <unicode hex="0166"/>
  <anchor x="193" y="0" name="bottom"/>
  <anchor x="202" y="0" name="bottomright"/>
  <anchor x="193" y="340" name="center"/>
  <anchor x="193" y="680" name="top"/>
  <outline>
    <contour>
      <point x="296" y="376" type="line"/>
      <point x="90" y="376" type="line"/>
      <point x="90" y="374" type="line"/>
      <point x="192" y="374" type="line"/>
      <point x="296" y="374" type="line"/>
    </contour>
    <component base="T"/>
  </outline>
</glyph>
<glyph name="tbar" format="2">
  <advance width="264"/>
  <unicode hex="0167"/>
  <anchor x="185" y="0" name="bottom"/>
  <anchor x="120" y="259" name="center"/>
  <anchor x="97" y="651" name="top"/>
  <anchor x="129" y="730" name="topright"/>
  <outline>
    <contour>
      <point x="218" y="335" type="line"/>
      <point x="96" y="335" type="line"/>
      <point x="25" y="335" type="line"/>
      <point x="25" y="333" type="line"/>
      <point x="218" y="333" type="line"/>
    </contour>
    <component base="t"/>
  </outline>
</glyph>
<glyph name="bstroke" format="2">
  <advance width="572"/>
  <unicode hex="0180"/>
  <anchor x="237" y="0" name="bottom"/>
  <anchor x="241" y="727" name="top"/>
  <outline>
    <contour>
      <point x="265" y="640" type="line"/>
      <point x="45" y="640" type="line"/>
      <point x="45" y="638" type="line"/>
      <point x="107" y="638" type="line"/>
      <point x="265" y="638" type="line"/>
    </contour>
    <component base="b" xOffset="4"/>
  </outline>
</glyph>
<glyph name="btopbar" format="2">
  <advance width="465"/>
  <unicode hex="0183"/>
  <anchor x="232" y="0" name="bottom"/>
  <anchor x="232" y="727" name="top"/>
  <outline>
    <contour>
      <point x="246" y="-9" type="curve" smooth="yes"/>
      <point x="344" y="-9"/>
      <point x="395" y="95"/>
      <point x="395" y="264" type="curve" smooth="yes"/>
      <point x="395" y="431"/>
      <point x="344" y="527"/>
      <point x="249" y="527" type="curve" smooth="yes"/>
      <point x="181" y="527"/>
      <point x="138" y="481"/>
      <point x="103" y="420" type="curve"/>
      <point x="103" y="417" type="line"/>
      <point x="141" y="482"/>
      <point x="183" y="525"/>
      <point x="249" y="525" type="curve" smooth="yes"/>
      <point x="344" y="525"/>
      <point x="393" y="429"/>
      <point x="393" y="264" type="curve" smooth="yes"/>
      <point x="393" y="97"/>
      <point x="343" y="-7"/>
      <point x="246" y="-7" type="curve" smooth="yes"/>
      <point x="181" y="-7"/>
      <point x="137" y="37"/>
      <point x="103" y="103" type="curve"/>
      <point x="103" y="100" type="line"/>
      <point x="136" y="36"/>
      <point x="180" y="-9"/>
    </contour>
    <contour>
      <point x="102" y="0" type="line"/>
      <point x="104" y="0" type="line"/>
      <point x="104" y="101" type="line"/>
      <point x="104" y="727" type="line"/>
      <point x="102" y="727" type="line"/>
    </contour>
    <contour>
      <point x="104" y="725" type="line"/>
      <point x="301" y="725" type="line"/>
      <point x="301" y="727" type="line"/>
      <point x="102" y="727" type="line"/>
    </contour>
  </outline>
</glyph>
<glyph name="Tonesix" format="2">
  <advance width="450"/>
  <unicode hex="0184"/>
  <anchor x="225" y="0" name="bottom"/>
  <anchor x="225" y="680" name="top"/>
  <outline>
    <contour>
      <point x="107" y="0" type="line"/>
      <point x="230" y="0" type="line" smooth="yes"/>
      <point x="336" y="0"/>
      <point x="401" y="70"/>
      <point x="401" y="210" type="curve" smooth="yes"/>
      <point x="401" y="335"/>
      <point x="338" y="399"/>
      <point x="226" y="399" type="curve" smooth="yes"/>
      <point x="108" y="399" type="line"/>
      <point x="108" y="397" type="line"/>
      <point x="226" y="397" type="line" smooth="yes"/>
      <point x="337" y="397"/>
      <point x="399" y="333"/>
      <point x="399" y="210" type="curve" smooth="yes"/>
      <point x="399" y="72"/>
      <point x="335" y="2"/>
      <point x="230" y="2" type="curve" smooth="yes"/>
      <point x="109" y="2" type="line"/>
      <point x="109" y="680" type="line"/>
      <point x="107" y="680" type="line"/>
      <point x="107" y="632" type="line"/>
    </contour>
    <contour>
      <point x="107" y="628" type="line"/>
      <point x="107" y="680" type="line"/>
      <point x="104" y="659"/>
      <point x="101" y="647"/>
      <point x="94" y="633" type="curve"/>
    </contour>
  </outline>
</glyph>
<glyph name="tonesix" format="2">
  <advance width="404"/>
  <unicode hex="0185"/>
  <anchor x="202" y="0" name="bottom"/>
  <anchor x="202" y="517" name="top"/>
  <outline>
    <contour>
      <point x="103" y="0" type="line"/>
      <point x="211" y="0" type="line" smooth="yes"/>
      <point x="305" y="0"/>
      <point x="359" y="57"/>
      <point x="359" y="171" type="curve" smooth="yes"/>
      <point x="359" y="269"/>
      <point x="317" y="328"/>
      <point x="211" y="328" type="curve" smooth="yes"/>
      <point x="104" y="328" type="line"/>
      <point x="104" y="326" type="line"/>
      <point x="211" y="326" type="line" smooth="yes"/>
      <point x="316" y="326"/>
      <point x="357" y="267"/>
      <point x="357" y="171" type="curve" smooth="yes"/>
      <point x="357" y="59"/>
      <point x="305" y="2"/>
      <point x="211" y="2" type="curve" smooth="yes"/>
      <point x="105" y="2" type="line"/>
      <point x="105" y="517" type="line"/>
      <point x="103" y="517" type="line"/>
      <point x="103" y="485" type="line"/>
    </contour>
    <contour>
      <point x="103" y="475" type="line"/>
      <point x="103" y="517" type="line"/>
      <point x="100" y="502"/>
      <point x="96" y="490"/>
      <point x="90" y="480" type="curve"/>
    </contour>
  </outline>
</glyph>
<glyph name="Oopen" format="2">
  <advance width="434"/>
  <unicode hex="0186"/>
  <anchor x="168" y="0" name="bottom"/>
  <anchor x="169" y="341" name="center"/>
  <anchor x="168" y="680" name="top"/>
  <outline>
    <contour>
      <point x="165" y="690" type="curve" smooth="yes"/>
      <point x="101" y="690"/>
      <point x="62" y="664"/>
      <point x="28" y="633" type="curve"/>
      <point x="29" y="631" type="line"/>
      <point x="63" y="662"/>
      <point x="102" y="688"/>
      <point x="165" y="688" type="curve" smooth="yes"/>
      <point x="283" y="688"/>
      <point x="362" y="575"/>
      <point x="362" y="339" type="curve" smooth="yes"/>
      <point x="362" y="115"/>
      <point x="278" y="-7"/>
      <point x="158" y="-7" type="curve" smooth="yes"/>
      <point x="92" y="-7"/>
      <point x="52" y="21"/>
      <point x="22" y="52" type="curve"/>
      <point x="21" y="50" type="line"/>
      <point x="51" y="19"/>
      <point x="91" y="-9"/>
      <point x="158" y="-9" type="curve" smooth="yes"/>
      <point x="279" y="-9"/>
      <point x="364" y="114"/>
      <point x="364" y="339" type="curve" smooth="yes"/>
      <point x="364" y="577"/>
      <point x="285" y="690"/>
    </contour>
  </outline>
</glyph>
<glyph name="Chook" format="2">
  <advance width="435"/>
  <unicode hex="0187"/>
  <anchor x="217" y="0" name="bottom"/>
  <anchor x="217" y="680" name="top"/>
  <outline>
    <contour>
      <point x="280" y="-9" type="curve" smooth="yes"/>
      <point x="347" y="-9"/>
      <point x="387" y="23"/>
      <point x="413" y="50" type="curve"/>
      <point x="412" y="52" type="line"/>
      <point x="386" y="25"/>
      <point x="346" y="-7"/>
      <point x="280" y="-7" type="curve" smooth="yes"/>
      <point x="157" y="-7"/>
      <point x="72" y="115"/>
      <point x="72" y="339" type="curve" smooth="yes"/>
      <point x="72" y="575"/>
      <point x="159" y="688"/>
      <point x="281" y="688" type="curve" smooth="yes"/>
      <point x="341" y="688"/>
      <point x="376" y="662"/>
      <point x="405" y="631" type="curve"/>
      <point x="406" y="633" type="line"/>
      <point x="406" y="633"/>
      <point x="405" y="635"/>
      <point x="405" y="633" type="curve"/>
      <point x="377" y="663"/>
      <point x="341" y="690"/>
      <point x="281" y="690" type="curve" smooth="yes"/>
      <point x="157" y="690"/>
      <point x="70" y="577"/>
      <point x="70" y="339" type="curve" smooth="yes"/>
      <point x="70" y="114"/>
      <point x="155" y="-9"/>
    </contour>
    <contour>
      <point x="404" y="633" type="line"/>
      <point x="406" y="633" type="line"/>
      <point x="406" y="708" type="line" smooth="yes"/>
      <point x="406" y="769"/>
      <point x="433" y="801"/>
      <point x="473" y="801" type="curve" smooth="yes"/>
      <point x="503" y="801"/>
      <point x="521" y="789"/>
      <point x="537" y="773" type="curve"/>
      <point x="538" y="775" type="line"/>
      <point x="523" y="790"/>
      <point x="504" y="803"/>
      <point x="473" y="803" type="curve" smooth="yes"/>
      <point x="432" y="803"/>
      <point x="404" y="770"/>
      <point x="404" y="708" type="curve" smooth="yes"/>
    </contour>
  </outline>
</glyph>
<glyph name="chook" format="2">
  <advance width="384"/>
  <unicode hex="0188"/>
  <anchor x="192" y="0" name="bottom"/>
  <anchor x="192" y="727" name="top"/>
  <outline>
    <contour>
      <point x="403" y="733" type="curve" smooth="yes"/>
      <point x="362" y="733"/>
      <point x="334" y="700"/>
      <point x="334" y="638" type="curve" smooth="yes"/>
      <point x="334" y="477" type="line"/>
      <point x="336" y="477" type="line"/>
      <point x="336" y="638" type="line" smooth="yes"/>
      <point x="336" y="699"/>
      <point x="363" y="731"/>
      <point x="403" y="731" type="curve" smooth="yes"/>
      <point x="433" y="731"/>
      <point x="451" y="719"/>
      <point x="467" y="703" type="curve"/>
      <point x="468" y="705" type="line"/>
      <point x="453" y="720"/>
      <point x="434" y="733"/>
    </contour>
    <contour>
      <point x="231" y="527" type="curve" smooth="yes"/>
      <point x="127" y="527"/>
      <point x="65" y="426"/>
      <point x="65" y="256" type="curve" smooth="yes"/>
      <point x="65" y="86"/>
      <point x="135" y="-9"/>
      <point x="229" y="-9" type="curve" smooth="yes"/>
      <point x="279" y="-9"/>
      <point x="312" y="13"/>
      <point x="339" y="44" type="curve"/>
      <point x="337" y="45" type="line"/>
      <point x="310" y="14"/>
      <point x="277" y="-7"/>
      <point x="229" y="-7" type="curve" smooth="yes"/>
      <point x="136" y="-7"/>
      <point x="67" y="88"/>
      <point x="67" y="256" type="curve" smooth="yes"/>
      <point x="67" y="424"/>
      <point x="129" y="525"/>
      <point x="231" y="525" type="curve" smooth="yes"/>
      <point x="273" y="525"/>
      <point x="305" y="509"/>
      <point x="334" y="476" type="curve"/>
      <point x="336" y="477" type="line"/>
      <point x="336" y="477"/>
      <point x="335" y="478"/>
      <point x="335" y="478" type="curve"/>
      <point x="306" y="510"/>
      <point x="273" y="527"/>
    </contour>
  </outline>
</glyph>
<glyph name="Dtopbar" format="2">
  <advance width="564"/>
  <unicode hex="018B"/>
  <anchor x="231" y="0" name="bottom"/>
  <anchor x="231" y="680" name="top"/>
  <outline>
    <contour>
      <point x="111" y="680" type="line"/>
      <point x="111" y="678" type="line"/>
      <point x="355" y="678" type="line"/>
      <point x="356" y="680" type="line"/>
    </contour>
    <component base="Komide-cy" xOffset="12"/>
  </outline>
</glyph>
<glyph name="deltaturned" format="2">
  <advance width="453"/>
  <unicode hex="018D"/>
  <anchor x="227" y="-188" name="bottom"/>
  <anchor x="227" y="517" name="top"/>
  <outline>
    <contour>
      <point x="108" y="-93" type="curve" smooth="yes"/>
      <point x="108" y="-152"/>
      <point x="154" y="-192"/>
      <point x="220" y="-192" type="curve" smooth="yes"/>
      <point x="274" y="-192"/>
      <point x="308" y="-178"/>
      <point x="343" y="-147" type="curve"/>
      <point x="341" y="-146" type="line"/>
      <point x="308" y="-176"/>
      <point x="273" y="-190"/>
      <point x="220" y="-190" type="curve" smooth="yes"/>
      <point x="155" y="-190"/>
      <point x="110" y="-151"/>
      <point x="110" y="-93" type="curve" smooth="yes"/>
      <point x="110" y="-35"/>
      <point x="139" y="-6"/>
      <point x="223" y="34" type="curve" smooth="yes"/>
      <point x="344" y="92"/>
      <point x="388" y="146"/>
      <point x="388" y="291" type="curve" smooth="yes"/>
      <point x="388" y="455"/>
      <point x="325" y="527"/>
      <point x="228" y="527" type="curve" smooth="yes"/>
      <point x="127" y="527"/>
      <point x="65" y="444"/>
      <point x="65" y="285" type="curve" smooth="yes"/>
      <point x="65" y="146"/>
      <point x="130" y="68"/>
      <point x="221" y="34" type="curve"/>
      <point x="223" y="35" type="line"/>
      <point x="133" y="69"/>
      <point x="67" y="146"/>
      <point x="67" y="285" type="curve" smooth="yes"/>
      <point x="67" y="443"/>
      <point x="128" y="525"/>
      <point x="228" y="525" type="curve" smooth="yes"/>
      <point x="324" y="525"/>
      <point x="386" y="454"/>
      <point x="386" y="291" type="curve" smooth="yes"/>
      <point x="386" y="148"/>
      <point x="344" y="93"/>
      <point x="221" y="35" type="curve" smooth="yes"/>
      <point x="136" y="-5"/>
      <point x="108" y="-35"/>
    </contour>
  </outline>
</glyph>
<glyph name="Ereversed" format="2">
  <advance width="406"/>
  <unicode hex="018E"/>
  <outline>
    <contour>
      <point x="47" y="680" type="line"/>
      <point x="47" y="678" type="line"/>
      <point x="298" y="678" type="line"/>
      <point x="298" y="362" type="line"/>
      <point x="84" y="362" type="line"/>
      <point x="84" y="360" type="line"/>
      <point x="298" y="360" type="line"/>
      <point x="298" y="2" type="line"/>
      <point x="41" y="2" type="line"/>
      <point x="41" y="0" type="line"/>
      <point x="300" y="0" type="line"/>
      <point x="300" y="680" type="line"/>
    </contour>
  </outline>
</glyph>
<glyph name="Eopen" format="2">
  <advance width="416"/>
  <unicode hex="0190"/>
  <anchor x="208" y="0" name="bottom"/>
  <anchor x="208" y="680" name="top"/>
  <outline>
    <contour>
      <point x="213" y="690" type="curve"/>
      <point x="120" y="690"/>
      <point x="71" y="621"/>
      <point x="71" y="531" type="curve"/>
      <point x="71" y="426"/>
      <point x="133" y="377"/>
      <point x="199" y="372" type="curve"/>
      <point x="117" y="368"/>
      <point x="53" y="305"/>
      <point x="53" y="195" type="curve" smooth="yes"/>
      <point x="53" y="68"/>
      <point x="120" y="-9"/>
      <point x="220" y="-9" type="curve"/>
      <point x="290" y="-9"/>
      <point x="338" y="23"/>
      <point x="383" y="84" type="curve"/>
      <point x="381" y="85" type="line"/>
      <point x="337" y="25"/>
      <point x="289" y="-7"/>
      <point x="220" y="-7" type="curve"/>
      <point x="121" y="-7"/>
      <point x="55" y="70"/>
      <point x="55" y="195" type="curve" smooth="yes"/>
      <point x="55" y="303"/>
      <point x="119" y="371"/>
      <point x="212" y="371" type="curve" smooth="yes"/>
      <point x="259" y="371" type="line"/>
      <point x="259" y="373" type="line"/>
      <point x="215" y="373" type="line" smooth="yes"/>
      <point x="135" y="373"/>
      <point x="73" y="428"/>
      <point x="73" y="531" type="curve"/>
      <point x="73" y="619"/>
      <point x="121" y="688"/>
      <point x="213" y="688" type="curve"/>
      <point x="278" y="688"/>
      <point x="320" y="658"/>
      <point x="361" y="603" type="curve"/>
      <point x="363" y="605" type="line"/>
      <point x="321" y="660"/>
      <point x="278" y="690"/>
    </contour>
  </outline>
</glyph>
<glyph name="florin" format="2">
  <advance width="242"/>
  <unicode hex="0192"/>
  <outline>
    <contour>
      <point x="192" y="733" type="curve" smooth="yes"/>
      <point x="139" y="733"/>
      <point x="100" y="698"/>
      <point x="100" y="628" type="curve" smooth="yes"/>
      <point x="100" y="0" type="line"/>
      <point x="102" y="2" type="line"/>
      <point x="102" y="628" type="line" smooth="yes"/>
      <point x="102" y="696"/>
      <point x="140" y="731"/>
      <point x="192" y="731" type="curve" smooth="yes"/>
      <point x="228" y="731"/>
      <point x="257" y="717"/>
      <point x="282" y="698" type="curve"/>
      <point x="283" y="700" type="line"/>
      <point x="258" y="719"/>
      <point x="228" y="733"/>
    </contour>
    <contour>
      <point x="226" y="517" type="line"/>
      <point x="25" y="517" type="line"/>
      <point x="25" y="515" type="line"/>
      <point x="226" y="515" type="line"/>
    </contour>
    <contour>
      <point x="102" y="477" type="line"/>
      <point x="100" y="477" type="line"/>
      <point x="100" y="1" type="line" smooth="yes"/>
      <point x="100" y="-117"/>
      <point x="76" y="-153"/>
      <point x="20" y="-189" type="curve"/>
      <point x="21" y="-191" type="line"/>
      <point x="78" y="-154"/>
      <point x="102" y="-118"/>
      <point x="102" y="1" type="curve" smooth="yes"/>
    </contour>
  </outline>
</glyph>
<glyph name="Ghook" format="2">
  <advance width="440"/>
  <unicode hex="0193"/>
  <anchor x="220" y="0" name="bottom"/>
  <anchor x="220" y="680" name="top"/>
  <outline>
    <contour>
      <point x="290" y="-9" type="curve" smooth="yes"/>
      <point x="347" y="-9"/>
      <point x="393" y="15"/>
      <point x="426" y="39" type="curve"/>
      <point x="426" y="342" type="line"/>
      <point x="300" y="342" type="line"/>
      <point x="301" y="340" type="line"/>
      <point x="424" y="340" type="line"/>
      <point x="424" y="40" type="line"/>
      <point x="393" y="17"/>
      <point x="348" y="-7"/>
      <point x="290" y="-7" type="curve" smooth="yes"/>
      <point x="156" y="-7"/>
      <point x="72" y="116"/>
      <point x="72" y="345" type="curve" smooth="yes"/>
      <point x="72" y="580"/>
      <point x="179" y="688"/>
      <point x="282" y="688" type="curve" smooth="yes"/>
      <point x="332" y="688"/>
      <point x="371" y="669"/>
      <point x="410" y="633" type="curve"/>
      <point x="411" y="635" type="line"/>
      <point x="411" y="635"/>
      <point x="410" y="635"/>
      <point x="410" y="635" type="curve"/>
      <point x="373" y="670"/>
      <point x="333" y="690"/>
      <point x="282" y="690" type="curve" smooth="yes"/>
      <point x="178" y="690"/>
      <point x="70" y="582"/>
      <point x="70" y="345" type="curve" smooth="yes"/>
      <point x="70" y="114"/>
      <point x="156" y="-9"/>
    </contour>
    <contour>
      <point x="409" y="635" type="line"/>
      <point x="411" y="635" type="line"/>
      <point x="411" y="708" type="line" smooth="yes"/>
      <point x="411" y="769"/>
      <point x="438" y="801"/>
      <point x="478" y="801" type="curve" smooth="yes"/>
      <point x="508" y="801"/>
      <point x="526" y="789"/>
      <point x="542" y="773" type="curve"/>
      <point x="543" y="775" type="line"/>
      <point x="528" y="790"/>
      <point x="509" y="803"/>
      <point x="478" y="803" type="curve" smooth="yes"/>
      <point x="437" y="803"/>
      <point x="409" y="770"/>
      <point x="409" y="708" type="curve" smooth="yes"/>
    </contour>
  </outline>
</glyph>
<glyph name="Gammaafrican" format="2">
  <advance width="430"/>
  <unicode hex="0194"/>
  <anchor x="215" y="-188" name="bottom"/>
  <anchor x="215" y="680" name="top"/>
  <outline>
    <contour>
      <point x="217" y="-193" type="curve"/>
      <point x="252" y="-193"/>
      <point x="266" y="-161"/>
      <point x="266" y="-127" type="curve" smooth="yes"/>
      <point x="266" y="-80"/>
      <point x="247" y="-28"/>
      <point x="218" y="58" type="curve"/>
      <point x="217" y="60" type="line"/>
      <point x="31" y="680" type="line"/>
      <point x="29" y="680" type="line"/>
      <point x="216" y="58" type="line"/>
      <point x="217" y="56" type="line"/>
      <point x="245" y="-30"/>
      <point x="264" y="-80"/>
      <point x="264" y="-127" type="curve" smooth="yes"/>
      <point x="264" y="-160"/>
      <point x="251" y="-191"/>
      <point x="217" y="-191" type="curve"/>
      <point x="184" y="-191"/>
      <point x="170" y="-161"/>
      <point x="170" y="-127" type="curve" smooth="yes"/>
      <point x="170" y="-81"/>
      <point x="192" y="-29"/>
      <point x="217" y="56" type="curve"/>
      <point x="218" y="58" type="line"/>
      <point x="401" y="680" type="line"/>
      <point x="399" y="680" type="line"/>
      <point x="217" y="60" type="line"/>
      <point x="216" y="58" type="line"/>
      <point x="190" y="-27"/>
      <point x="168" y="-81"/>
      <point x="168" y="-127" type="curve" smooth="yes"/>
      <point x="168" y="-162"/>
      <point x="183" y="-193"/>
    </contour>
  </outline>
</glyph>
<glyph name="hv" format="2">
  <advance width="730"/>
  <unicode hex="0195"/>
  <anchor x="365" y="0" name="bottom"/>
  <anchor x="365" y="727" name="top"/>
  <outline>
    <contour>
      <point x="496" y="-9" type="curve" smooth="yes"/>
      <point x="583" y="-9"/>
      <point x="648" y="71"/>
      <point x="648" y="268" type="curve" smooth="yes"/>
      <point x="648" y="362"/>
      <point x="637" y="448"/>
      <point x="626" y="517" type="curve"/>
      <point x="624" y="517" type="line"/>
      <point x="635" y="448"/>
      <point x="646" y="362"/>
      <point x="646" y="268" type="curve" smooth="yes"/>
      <point x="646" y="72"/>
      <point x="582" y="-7"/>
      <point x="496" y="-7" type="curve" smooth="yes"/>
      <point x="429" y="-7"/>
      <point x="377" y="47"/>
      <point x="377" y="153" type="curve" smooth="yes"/>
      <point x="377" y="317" type="line"/>
      <point x="375" y="317" type="line"/>
      <point x="375" y="153" type="line" smooth="yes"/>
      <point x="375" y="45"/>
      <point x="428" y="-9"/>
    </contour>
    <contour>
      <point x="102" y="0" type="line"/>
      <point x="104" y="0" type="line"/>
      <point x="104" y="730" type="line"/>
      <point x="102" y="730" type="line"/>
    </contour>
    <contour>
      <point x="375" y="300" type="line"/>
      <point x="377" y="300" type="line"/>
      <point x="377" y="368" type="line" smooth="yes"/>
      <point x="377" y="465"/>
      <point x="344" y="527"/>
      <point x="267" y="527" type="curve" smooth="yes"/>
      <point x="195" y="527"/>
      <point x="142" y="475"/>
      <point x="103" y="389" type="curve"/>
      <point x="104" y="387" type="line"/>
      <point x="143" y="473"/>
      <point x="196" y="525"/>
      <point x="267" y="525" type="curve" smooth="yes"/>
      <point x="343" y="525"/>
      <point x="375" y="464"/>
      <point x="375" y="368" type="curve" smooth="yes"/>
    </contour>
  </outline>
</glyph>
<glyph name="Iotaafrican" format="2">
  <advance width="323"/>
  <unicode hex="0196"/>
  <anchor x="157" y="0" name="bottom"/>
  <anchor x="99" y="680" name="top"/>
  <outline>
    <contour>
      <point x="100" y="680" type="line"/>
      <point x="98" y="680" type="line"/>
      <point x="98" y="181" type="line"/>
      <point x="100" y="181" type="line"/>
    </contour>
    <component base="hookHELPER.case" xScale="-1" xOffset="267" yOffset="183"/>
  </outline>
</glyph>
<glyph name="Khook" format="2">
  <advance width="443"/>
  <unicode hex="0198"/>
  <anchor x="221" y="0" name="bottom"/>
  <anchor x="221" y="680" name="top"/>
  <outline>
    <contour>
      <point x="108" y="680" type="line"/>
      <point x="106" y="680" type="line"/>
      <point x="106" y="1" type="line"/>
      <point x="108" y="1" type="line"/>
    </contour>
    <contour>
      <point x="299" y="634" type="line" smooth="yes"/>
      <point x="326" y="674"/>
      <point x="346" y="688"/>
      <point x="375" y="688" type="curve" smooth="yes"/>
      <point x="400" y="688"/>
      <point x="416" y="674"/>
      <point x="429" y="656" type="curve"/>
      <point x="431" y="657" type="line"/>
      <point x="418" y="675"/>
      <point x="401" y="690"/>
      <point x="375" y="690" type="curve" smooth="yes"/>
      <point x="345" y="690"/>
      <point x="324" y="675"/>
      <point x="297" y="635" type="curve" smooth="yes"/>
      <point x="111" y="366" type="line"/>
      <point x="398" y="0" type="line"/>
      <point x="401" y="0" type="line"/>
      <point x="114" y="366" type="line"/>
    </contour>
  </outline>
</glyph>
<glyph name="khook" format="2">
  <advance width="448"/>
  <unicode hex="0199"/>
  <outline>
    <contour>
      <point x="325" y="517" type="line"/>
      <point x="322" y="517" type="line"/>
      <point x="109" y="283" type="line"/>
      <point x="344" y="0" type="line"/>
      <point x="347" y="0" type="line"/>
      <point x="112" y="283" type="line"/>
    </contour>
    <contour>
      <point x="104" y="517" type="line"/>
      <point x="102" y="517" type="line"/>
      <point x="102" y="0" type="line"/>
      <point x="104" y="0" type="line"/>
    </contour>
    <component base="hookaboveHELPER" xOffset="67"/>
  </outline>
</glyph>
<glyph name="lambdastroke" format="2">
  <advance width="364"/>
  <unicode hex="019B"/>
  <anchor x="182" y="0" name="bottom"/>
  <anchor x="182" y="727" name="top"/>
  <outline>
    <contour>
      <point x="43" y="-3" type="line"/>
      <point x="193" y="515" type="line"/>
      <point x="253" y="155"/>
      <point x="300" y="82"/>
      <point x="362" y="-1" type="curve"/>
      <point x="364" y="0" type="line"/>
      <point x="301" y="83"/>
      <point x="255" y="157"/>
      <point x="195" y="515" type="curve" smooth="yes"/>
      <point x="175" y="637"/>
      <point x="155" y="703"/>
      <point x="73" y="732" type="curve"/>
      <point x="73" y="730" type="line"/>
      <point x="155" y="700"/>
      <point x="172" y="636"/>
      <point x="193" y="517" type="curve"/>
      <point x="192" y="517" type="line"/>
      <point x="41" y="-2" type="line"/>
    </contour>
    <contour>
      <point x="78" y="576" type="line"/>
      <point x="150" y="669" type="line"/>
      <point x="151" y="670" type="line"/>
      <point x="202" y="736" type="line"/>
      <point x="201" y="737" type="line"/>
      <point x="150" y="671" type="line"/>
      <point x="149" y="670" type="line"/>
      <point x="76" y="577" type="line"/>
    </contour>
  </outline>
</glyph>
<glyph name="Mturned" format="2">
  <advance width="752"/>
  <unicode hex="019C"/>
  <anchor x="376" y="0" name="bottom"/>
  <anchor x="376" y="680" name="top"/>
  <outline>
    <contour>
      <point x="491" y="-10" type="curve" smooth="yes"/>
      <point x="561" y="-10"/>
      <point x="606" y="42"/>
      <point x="645" y="128" type="curve"/>
      <point x="644" y="130" type="line"/>
      <point x="605" y="44"/>
      <point x="561" y="-8"/>
      <point x="491" y="-8" type="curve" smooth="yes"/>
      <point x="420" y="-8"/>
      <point x="373" y="51"/>
      <point x="373" y="169" type="curve" smooth="yes"/>
      <point x="373" y="680" type="line"/>
      <point x="371" y="680" type="line"/>
      <point x="371" y="169" type="line" smooth="yes"/>
      <point x="371" y="50"/>
      <point x="419" y="-10"/>
    </contour>
    <contour>
      <point x="644" y="0" type="line"/>
      <point x="646" y="0" type="line"/>
      <point x="646" y="680" type="line"/>
      <point x="644" y="680" type="line"/>
      <point x="644" y="128" type="line"/>
    </contour>
    <contour>
      <point x="218" y="-10" type="curve" smooth="yes"/>
      <point x="288" y="-10"/>
      <point x="333" y="42"/>
      <point x="374" y="131" type="curve"/>
      <point x="374" y="133" type="line"/>
      <point x="332" y="44"/>
      <point x="287" y="-8"/>
      <point x="218" y="-8" type="curve" smooth="yes"/>
      <point x="147" y="-8"/>
      <point x="100" y="51"/>
      <point x="100" y="169" type="curve" smooth="yes"/>
      <point x="100" y="680" type="line"/>
      <point x="98" y="680" type="line"/>
      <point x="98" y="169" type="line" smooth="yes"/>
      <point x="98" y="50"/>
      <point x="146" y="-10"/>
    </contour>
  </outline>
</glyph>
<glyph name="Nhookleft" format="2">
  <advance width="654"/>
  <unicode hex="019D"/>
  <anchor x="263" y="0" name="bottom"/>
  <anchor x="271" y="680" name="top"/>
  <outline>
    <contour>
      <point x="39" y="-192" type="curve" smooth="yes"/>
      <point x="80" y="-192"/>
      <point x="108" y="-159"/>
      <point x="108" y="-97" type="curve" smooth="yes"/>
      <point x="108" y="1" type="line"/>
      <point x="106" y="1" type="line"/>
      <point x="106" y="-97" type="line" smooth="yes"/>
      <point x="106" y="-158"/>
      <point x="79" y="-190"/>
      <point x="39" y="-190" type="curve" smooth="yes"/>
      <point x="9" y="-190"/>
      <point x="-9" y="-178"/>
      <point x="-25" y="-162" type="curve"/>
      <point x="-26" y="-164" type="line"/>
      <point x="-11" y="-179"/>
      <point x="8" y="-192"/>
    </contour>
    <component base="N"/>
  </outline>
</glyph>
<glyph name="nlegrightlong" format="2">
  <advance width="580"/>
  <unicode hex="019E"/>
  <anchor x="235" y="0" name="bottom"/>
  <anchor x="242" y="517" name="top"/>
  <anchor x="94" y="517" name="topleft"/>
  <outline>
    <contour>
      <point x="377" y="1" type="line"/>
      <point x="375" y="1" type="line"/>
      <point x="375" y="-190" type="line"/>
      <point x="377" y="-190" type="line"/>
    </contour>
    <component base="n"/>
  </outline>
</glyph>
<glyph name="Oi" format="2">
  <advance width="716"/>
  <unicode hex="01A2"/>
  <anchor x="358" y="-188" name="bottom"/>
  <anchor x="358" y="680" name="top"/>
  <outline>
    <contour>
      <point x="524" y="690" type="curve" smooth="yes"/>
      <point x="477" y="690"/>
      <point x="442" y="673"/>
      <point x="400" y="644" type="curve"/>
      <point x="402" y="643" type="line"/>
      <point x="443" y="671"/>
      <point x="478" y="688"/>
      <point x="524" y="688" type="curve" smooth="yes"/>
      <point x="581" y="688"/>
      <point x="608" y="646"/>
      <point x="608" y="575" type="curve" smooth="yes"/>
      <point x="608" y="-188" type="line"/>
      <point x="610" y="-188" type="line"/>
      <point x="610" y="575" type="line" smooth="yes"/>
      <point x="610" y="647"/>
      <point x="582" y="690"/>
    </contour>
    <contour>
      <point x="282" y="690" type="curve" smooth="yes"/>
      <point x="155" y="690"/>
      <point x="70" y="557"/>
      <point x="70" y="338" type="curve" smooth="yes"/>
      <point x="70" y="119"/>
      <point x="151" y="-9"/>
      <point x="282" y="-9" type="curve" smooth="yes"/>
      <point x="419" y="-9"/>
      <point x="494" y="120"/>
      <point x="494" y="340" type="curve" smooth="yes"/>
      <point x="494" y="563"/>
      <point x="414" y="690"/>
    </contour>
    <contour>
      <point x="282" y="688" type="curve" smooth="yes"/>
      <point x="413" y="688"/>
      <point x="492" y="561"/>
      <point x="492" y="340" type="curve" smooth="yes"/>
      <point x="492" y="122"/>
      <point x="418" y="-7"/>
      <point x="282" y="-7" type="curve" smooth="yes"/>
      <point x="152" y="-7"/>
      <point x="72" y="121"/>
      <point x="72" y="338" type="curve" smooth="yes"/>
      <point x="72" y="555"/>
      <point x="156" y="688"/>
    </contour>
  </outline>
</glyph>
<glyph name="oi" format="2">
  <advance width="596"/>
  <unicode hex="01A3"/>
  <anchor x="298" y="-188" name="bottom"/>
  <anchor x="298" y="517" name="top"/>
  <outline>
    <contour>
      <point x="492" y="-191" type="line"/>
      <point x="494" y="-191" type="line"/>
      <point x="494" y="412" type="line" smooth="yes"/>
      <point x="494" y="484"/>
      <point x="466" y="527"/>
      <point x="405" y="527" type="curve" smooth="yes"/>
      <point x="373" y="527"/>
      <point x="343" y="517"/>
      <point x="312" y="498" type="curve"/>
      <point x="314" y="497" type="line"/>
      <point x="345" y="516"/>
      <point x="374" y="525"/>
      <point x="405" y="525" type="curve" smooth="yes"/>
      <point x="465" y="525"/>
      <point x="492" y="483"/>
      <point x="492" y="412" type="curve" smooth="yes"/>
    </contour>
    <contour>
      <point x="230" y="527" type="curve" smooth="yes"/>
      <point x="131" y="527"/>
      <point x="65" y="431"/>
      <point x="65" y="258" type="curve" smooth="yes"/>
      <point x="65" y="91"/>
      <point x="127" y="-9"/>
      <point x="228" y="-9" type="curve" smooth="yes"/>
      <point x="329" y="-9"/>
      <point x="392" y="89"/>
      <point x="392" y="262" type="curve" smooth="yes"/>
      <point x="392" y="429"/>
      <point x="330" y="527"/>
    </contour>
    <contour>
      <point x="230" y="525" type="curve" smooth="yes"/>
      <point x="329" y="525"/>
      <point x="390" y="427"/>
      <point x="390" y="262" type="curve" smooth="yes"/>
      <point x="390" y="91"/>
      <point x="328" y="-7"/>
      <point x="228" y="-7" type="curve" smooth="yes"/>
      <point x="128" y="-7"/>
      <point x="67" y="93"/>
      <point x="67" y="258" type="curve" smooth="yes"/>
      <point x="67" y="429"/>
      <point x="132" y="525"/>
    </contour>
  </outline>
</glyph>
<glyph name="phook" format="2">
  <advance width="567"/>
  <unicode hex="01A5"/>
  <anchor x="232" y="-188" name="bottom"/>
  <anchor x="232" y="727" name="top"/>
  <outline>
    <contour>
      <point x="251" y="527" type="curve" smooth="yes"/>
      <point x="182" y="527"/>
      <point x="138" y="481"/>
      <point x="103" y="420" type="curve"/>
      <point x="103" y="417" type="line"/>
      <point x="141" y="482"/>
      <point x="183" y="525"/>
      <point x="251" y="525" type="curve" smooth="yes"/>
      <point x="344" y="525"/>
      <point x="393" y="429"/>
      <point x="393" y="264" type="curve" smooth="yes"/>
      <point x="393" y="97"/>
      <point x="343" y="-7"/>
      <point x="247" y="-7" type="curve" smooth="yes"/>
      <point x="183" y="-7"/>
      <point x="137" y="37"/>
      <point x="103" y="103" type="curve"/>
      <point x="103" y="100" type="line"/>
      <point x="136" y="36"/>
      <point x="182" y="-9"/>
      <point x="247" y="-9" type="curve" smooth="yes"/>
      <point x="344" y="-9"/>
      <point x="395" y="95"/>
      <point x="395" y="264" type="curve" smooth="yes"/>
      <point x="395" y="431"/>
      <point x="344" y="527"/>
    </contour>
    <contour>
      <point x="104" y="517" type="line"/>
      <point x="102" y="517" type="line"/>
      <point x="102" y="-190" type="line"/>
      <point x="104" y="-190" type="line"/>
      <point x="104" y="419" type="line"/>
    </contour>
    <component base="hookaboveHELPER" xOffset="67"/>
  </outline>
</glyph>
<glyph name="Yr" format="2">
  <advance width="460"/>
  <unicode hex="01A6"/>
  <anchor x="230" y="-188" name="bottom"/>
  <anchor x="230" y="680" name="top"/>
  <outline>
    <contour>
      <point x="108" y="680" type="line"/>
      <point x="106" y="680" type="line"/>
      <point x="106" y="0" type="line"/>
      <point x="108" y="0" type="line"/>
    </contour>
    <contour>
      <point x="257" y="195" type="line"/>
      <point x="255" y="195" type="line"/>
      <point x="412" y="-140" type="line"/>
      <point x="415" y="-140" type="line"/>
    </contour>
    <contour>
      <point x="107" y="540" type="line"/>
      <point x="107" y="538" type="line"/>
      <point x="219" y="538" type="line" smooth="yes"/>
      <point x="349" y="538"/>
      <point x="393" y="471"/>
      <point x="393" y="366" type="curve" smooth="yes"/>
      <point x="393" y="243"/>
      <point x="321" y="196"/>
      <point x="250" y="196" type="curve" smooth="yes"/>
      <point x="107" y="196" type="line"/>
      <point x="107" y="194" type="line"/>
      <point x="255" y="194" type="line"/>
      <point x="322" y="196"/>
      <point x="395" y="242"/>
      <point x="395" y="366" type="curve" smooth="yes"/>
      <point x="395" y="472"/>
      <point x="350" y="540"/>
      <point x="219" y="540" type="curve" smooth="yes"/>
    </contour>
  </outline>
</glyph>
<glyph name="Tonetwo" format="2">
  <advance width="442"/>
  <unicode hex="01A7"/>
  <anchor x="221" y="0" name="bottom"/>
  <anchor x="221" y="680" name="top"/>
  <outline>
    <contour>
      <point x="232" y="690" type="curve" smooth="yes"/>
      <point x="164" y="690"/>
      <point x="123" y="663"/>
      <point x="84" y="626" type="curve"/>
      <point x="85" y="624" type="line"/>
      <point x="124" y="662"/>
      <point x="166" y="688"/>
      <point x="232" y="688" type="curve" smooth="yes"/>
      <point x="316" y="688"/>
      <point x="368" y="628"/>
      <point x="368" y="545" type="curve" smooth="yes"/>
      <point x="368" y="455"/>
      <point x="334" y="414"/>
      <point x="221" y="370" type="curve" smooth="yes"/>
      <point x="115" y="329"/>
      <point x="65" y="284"/>
      <point x="65" y="171" type="curve" smooth="yes"/>
      <point x="65" y="64"/>
      <point x="131" y="-9"/>
      <point x="221" y="-9" type="curve" smooth="yes"/>
      <point x="304" y="-9"/>
      <point x="349" y="22"/>
      <point x="389" y="69" type="curve"/>
      <point x="388" y="71" type="line"/>
      <point x="348" y="24"/>
      <point x="304" y="-7"/>
      <point x="221" y="-7" type="curve" smooth="yes"/>
      <point x="133" y="-7"/>
      <point x="67" y="65"/>
      <point x="67" y="171" type="curve" smooth="yes"/>
      <point x="67" y="283"/>
      <point x="117" y="327"/>
      <point x="222" y="368" type="curve" smooth="yes"/>
      <point x="334" y="412"/>
      <point x="370" y="453"/>
      <point x="370" y="545" type="curve" smooth="yes"/>
      <point x="370" y="630"/>
      <point x="317" y="690"/>
    </contour>
  </outline>
</glyph>
<glyph name="tonetwo" format="2">
  <advance width="374"/>
  <unicode hex="01A8"/>
  <anchor x="187" y="0" name="bottom"/>
  <anchor x="187" y="517" name="top"/>
  <outline>
    <contour>
      <point x="197" y="527" type="curve" smooth="yes"/>
      <point x="141" y="527"/>
      <point x="105" y="509"/>
      <point x="69" y="475" type="curve"/>
      <point x="70" y="473" type="line"/>
      <point x="107" y="508"/>
      <point x="142" y="525"/>
      <point x="197" y="525" type="curve" smooth="yes"/>
      <point x="263" y="525"/>
      <point x="309" y="479"/>
      <point x="309" y="411" type="curve" smooth="yes"/>
      <point x="309" y="341"/>
      <point x="275" y="308"/>
      <point x="185" y="276" type="curve" smooth="yes"/>
      <point x="91" y="243"/>
      <point x="57" y="208"/>
      <point x="57" y="127" type="curve" smooth="yes"/>
      <point x="57" y="44"/>
      <point x="110" y="-9"/>
      <point x="184" y="-9" type="curve" smooth="yes"/>
      <point x="252" y="-9"/>
      <point x="292" y="19"/>
      <point x="325" y="57" type="curve"/>
      <point x="324" y="59" type="line"/>
      <point x="291" y="21"/>
      <point x="252" y="-7"/>
      <point x="184" y="-7" type="curve" smooth="yes"/>
      <point x="111" y="-7"/>
      <point x="59" y="46"/>
      <point x="59" y="127" type="curve" smooth="yes"/>
      <point x="59" y="208"/>
      <point x="95" y="241"/>
      <point x="186" y="274" type="curve" smooth="yes"/>
      <point x="276" y="306"/>
      <point x="311" y="339"/>
      <point x="311" y="411" type="curve" smooth="yes"/>
      <point x="311" y="480"/>
      <point x="264" y="527"/>
    </contour>
  </outline>
</glyph>
<glyph name="eshreversedloop" format="2">
  <advance width="256"/>
  <unicode hex="01AA"/>
  <anchor x="105" y="-188" name="bottom"/>
  <anchor x="105" y="727" name="top"/>
  <outline>
    <contour>
      <point x="44" y="733" type="curve" smooth="yes"/>
      <point x="1" y="733"/>
      <point x="-28" y="689"/>
      <point x="-28" y="626" type="curve" smooth="yes"/>
      <point x="-28" y="559"/>
      <point x="0" y="526"/>
      <point x="41" y="526" type="curve" smooth="yes"/>
      <point x="69" y="526"/>
      <point x="91" y="539"/>
      <point x="105" y="554" type="curve"/>
      <point x="105" y="556" type="line"/>
      <point x="89" y="540"/>
      <point x="68" y="528"/>
      <point x="41" y="528" type="curve" smooth="yes"/>
      <point x="1" y="528"/>
      <point x="-26" y="560"/>
      <point x="-26" y="626" type="curve" smooth="yes"/>
      <point x="-26" y="688"/>
      <point x="2" y="731"/>
      <point x="44" y="731" type="curve" smooth="yes"/>
      <point x="81" y="731"/>
      <point x="104" y="699"/>
      <point x="104" y="646" type="curve" smooth="yes"/>
      <point x="104" y="0" type="line"/>
      <point x="106" y="0" type="line"/>
      <point x="106" y="646" type="line" smooth="yes"/>
      <point x="106" y="700"/>
      <point x="82" y="733"/>
    </contour>
    <component base="hookHELPER" xScale="-1" xOffset="273"/>
  </outline>
</glyph>
<glyph name="tpalatalhook" format="2">
  <advance width="264"/>
  <unicode hex="01AB"/>
  <anchor x="133" y="-188" name="bottom"/>
  <anchor x="97" y="651" name="top"/>
  <outline>
    <contour>
      <point x="187" y="-192" type="curve" smooth="yes"/>
      <point x="228" y="-192"/>
      <point x="258" y="-159"/>
      <point x="258" y="-97" type="curve" smooth="yes"/>
      <point x="258" y="19" type="line"/>
      <point x="256" y="19" type="line"/>
      <point x="256" y="-97" type="line" smooth="yes"/>
      <point x="256" y="-158"/>
      <point x="227" y="-190"/>
      <point x="187" y="-190" type="curve" smooth="yes"/>
      <point x="156" y="-190"/>
      <point x="138" y="-178"/>
      <point x="125" y="-170" type="curve"/>
      <point x="124" y="-172" type="line"/>
      <point x="136" y="-179"/>
      <point x="155" y="-192"/>
    </contour>
    <contour>
      <point x="98" y="651" type="line"/>
      <point x="96" y="651" type="line"/>
      <point x="96" y="113" type="line" smooth="yes"/>
      <point x="96" y="35"/>
      <point x="128" y="-9"/>
      <point x="181" y="-9" type="curve" smooth="yes"/>
      <point x="214" y="-9"/>
      <point x="237" y="4"/>
      <point x="257" y="19" type="curve"/>
      <point x="257" y="18"/>
      <point x="258" y="19"/>
      <point x="258" y="19" type="curve"/>
      <point x="257" y="21" type="line"/>
      <point x="238" y="6"/>
      <point x="215" y="-7"/>
      <point x="181" y="-7" type="curve" smooth="yes"/>
      <point x="129" y="-7"/>
      <point x="98" y="37"/>
      <point x="98" y="113" type="curve" smooth="yes"/>
    </contour>
    <contour>
      <point x="218" y="517" type="line"/>
      <point x="25" y="517" type="line"/>
      <point x="25" y="515" type="line"/>
      <point x="218" y="515" type="line"/>
    </contour>
  </outline>
</glyph>
<glyph name="thook" format="2">
  <advance width="264"/>
  <unicode hex="01AD"/>
  <anchor x="133" y="0" name="bottom"/>
  <anchor x="133" y="727" name="top"/>
  <outline>
    <contour>
      <point x="181" y="-9" type="curve" smooth="yes"/>
      <point x="215" y="-9"/>
      <point x="238" y="4"/>
      <point x="258" y="19" type="curve"/>
      <point x="257" y="21" type="line"/>
      <point x="238" y="6"/>
      <point x="215" y="-7"/>
      <point x="181" y="-7" type="curve" smooth="yes"/>
      <point x="129" y="-7"/>
      <point x="98" y="37"/>
      <point x="98" y="113" type="curve" smooth="yes"/>
      <point x="98" y="525" type="line"/>
      <point x="96" y="525" type="line"/>
      <point x="96" y="113" type="line" smooth="yes"/>
      <point x="96" y="35"/>
      <point x="128" y="-9"/>
    </contour>
    <contour>
      <point x="25" y="515" type="line"/>
      <point x="218" y="515" type="line"/>
      <point x="218" y="517" type="line"/>
      <point x="25" y="517" type="line"/>
    </contour>
    <contour>
      <point x="96" y="520" type="line"/>
      <point x="98" y="520" type="line"/>
      <point x="98" y="611" type="line" smooth="yes"/>
      <point x="98" y="687"/>
      <point x="129" y="731"/>
      <point x="181" y="731" type="curve" smooth="yes"/>
      <point x="215" y="731"/>
      <point x="238" y="718"/>
      <point x="257" y="703" type="curve"/>
      <point x="258" y="705" type="line"/>
      <point x="238" y="720"/>
      <point x="215" y="733"/>
      <point x="181" y="733" type="curve" smooth="yes"/>
      <point x="128" y="733"/>
      <point x="96" y="689"/>
      <point x="96" y="611" type="curve" smooth="yes"/>
    </contour>
  </outline>
</glyph>
<glyph name="Upsilonafrican" format="2">
  <advance width="564"/>
  <unicode hex="01B1"/>
  <anchor x="282" y="0" name="bottom"/>
  <anchor x="282" y="680" name="top"/>
  <outline>
    <contour>
      <point x="283" y="-10" type="curve" smooth="yes"/>
      <point x="414" y="-10"/>
      <point x="494" y="123"/>
      <point x="494" y="317" type="curve" smooth="yes"/>
      <point x="494" y="525"/>
      <point x="425" y="631"/>
      <point x="360" y="678" type="curve"/>
      <point x="471" y="678" type="line"/>
      <point x="471" y="680" type="line"/>
      <point x="358" y="680" type="line"/>
      <point x="358" y="677" type="line"/>
      <point x="422" y="630"/>
      <point x="492" y="523"/>
      <point x="492" y="317" type="curve" smooth="yes"/>
      <point x="492" y="125"/>
      <point x="413" y="-8"/>
      <point x="283" y="-8" type="curve" smooth="yes"/>
      <point x="153" y="-8"/>
      <point x="72" y="125"/>
      <point x="72" y="315" type="curve"/>
      <point x="72" y="518"/>
      <point x="139" y="628"/>
      <point x="207" y="677" type="curve"/>
      <point x="207" y="680" type="line"/>
      <point x="94" y="680" type="line"/>
      <point x="94" y="678" type="line"/>
      <point x="205" y="678" type="line"/>
      <point x="136" y="629"/>
      <point x="70" y="520"/>
      <point x="70" y="315" type="curve" smooth="yes"/>
      <point x="70" y="123"/>
      <point x="152" y="-10"/>
    </contour>
  </outline>
</glyph>
<glyph name="Vhook" format="2">
  <advance width="511"/>
  <unicode hex="01B2"/>
  <anchor x="247" y="0" name="bottom"/>
  <anchor x="247" y="680" name="top"/>
  <outline>
    <contour>
      <point x="421" y="607" type="line"/>
      <point x="419" y="607" type="line"/>
      <point x="419" y="286" type="line" smooth="yes"/>
      <point x="419" y="79"/>
      <point x="350" y="-7"/>
      <point x="242" y="-7" type="curve" smooth="yes"/>
      <point x="150" y="-7"/>
      <point x="100" y="64"/>
      <point x="100" y="182" type="curve" smooth="yes"/>
      <point x="100" y="680" type="line"/>
      <point x="98" y="680" type="line"/>
      <point x="98" y="182" type="line" smooth="yes"/>
      <point x="98" y="63"/>
      <point x="148" y="-9"/>
      <point x="242" y="-9" type="curve" smooth="yes"/>
      <point x="351" y="-9"/>
      <point x="421" y="78"/>
      <point x="421" y="286" type="curve" smooth="yes"/>
    </contour>
    <contour>
      <point x="419" y="607" type="curve"/>
      <point x="421" y="607" type="line"/>
      <point x="421" y="662"/>
      <point x="406" y="690"/>
      <point x="369" y="690" type="curve" smooth="yes"/>
      <point x="352" y="690"/>
      <point x="340" y="686"/>
      <point x="328" y="679" type="curve"/>
      <point x="329" y="677" type="line"/>
      <point x="339" y="683"/>
      <point x="352" y="688"/>
      <point x="369" y="688" type="curve" smooth="yes"/>
      <point x="405" y="688"/>
      <point x="419" y="660"/>
    </contour>
  </outline>
</glyph>
<glyph name="Yhook" format="2">
  <advance width="414"/>
  <unicode hex="01B3"/>
  <anchor x="207" y="0" name="bottom"/>
  <anchor x="207" y="680" name="top"/>
  <anchor x="12" y="680" name="topleft"/>
  <outline>
    <contour>
      <point x="196" y="0" type="line"/>
      <point x="198" y="0" type="line"/>
      <point x="198" y="271" type="line"/>
      <point x="332" y="612" type="line" smooth="yes"/>
      <point x="353" y="667"/>
      <point x="372" y="688"/>
      <point x="406" y="688" type="curve" smooth="yes"/>
      <point x="436" y="688"/>
      <point x="452" y="674"/>
      <point x="470" y="650" type="curve"/>
      <point x="471" y="652" type="line"/>
      <point x="454" y="675"/>
      <point x="437" y="690"/>
      <point x="406" y="690" type="curve" smooth="yes"/>
      <point x="371" y="690"/>
      <point x="351" y="668"/>
      <point x="330" y="613" type="curve" smooth="yes"/>
      <point x="197" y="273" type="line"/>
      <point x="22" y="680" type="line"/>
      <point x="20" y="680" type="line"/>
      <point x="196" y="271" type="line"/>
    </contour>
  </outline>
</glyph>
<glyph name="yhook" format="2">
  <advance width="363"/>
  <unicode hex="01B4"/>
  <anchor x="182" y="-188" name="bottom"/>
  <anchor x="182" y="517" name="top"/>
  <outline>
    <contour>
      <point x="50" y="-189" type="line"/>
      <point x="135" y="-159"/>
      <point x="153" y="-112"/>
      <point x="186" y="0" type="curve"/>
      <point x="318" y="492" type="line" smooth="yes"/>
      <point x="330" y="539"/>
      <point x="342" y="563"/>
      <point x="375" y="563" type="curve" smooth="yes"/>
      <point x="386" y="563"/>
      <point x="396" y="560"/>
      <point x="406" y="555" type="curve"/>
      <point x="406" y="557" type="line"/>
      <point x="397" y="562"/>
      <point x="386" y="565"/>
      <point x="375" y="565" type="curve" smooth="yes"/>
      <point x="341" y="565"/>
      <point x="329" y="541"/>
      <point x="316" y="492" type="curve" smooth="yes"/>
      <point x="184" y="0" type="line"/>
      <point x="26" y="517" type="line"/>
      <point x="24" y="517" type="line"/>
      <point x="181" y="0" type="line"/>
      <point x="183" y="0" type="line"/>
      <point x="151" y="-112"/>
      <point x="133" y="-157"/>
      <point x="49" y="-187" type="curve"/>
    </contour>
  </outline>
</glyph>
<glyph name="Zstroke" format="2">
  <advance width="504"/>
  <unicode hex="01B5"/>
  <anchor x="207" y="0" name="bottom"/>
  <anchor x="207" y="680" name="top"/>
  <outline>
    <contour>
      <point x="373" y="680" type="line"/>
      <point x="67" y="680" type="line"/>
      <point x="67" y="678" type="line"/>
      <point x="370" y="678" type="line"/>
      <point x="37" y="2" type="line"/>
      <point x="37" y="0" type="line"/>
      <point x="359" y="0" type="line"/>
      <point x="359" y="2" type="line"/>
      <point x="40" y="2" type="line"/>
      <point x="373" y="678" type="line"/>
    </contour>
    <component base="hyphen" xScale="1.1" xOffset="26" yOffset="30"/>
  </outline>
</glyph>
<glyph name="zstroke" format="2">
  <advance width="337"/>
  <unicode hex="01B6"/>
  <anchor x="168" y="0" name="bottom"/>
  <anchor x="168" y="517" name="top"/>
  <outline>
    <contour>
      <point x="304" y="517" type="line"/>
      <point x="54" y="517" type="line"/>
      <point x="54" y="515" type="line"/>
      <point x="301" y="515" type="line"/>
      <point x="29" y="2" type="line"/>
      <point x="29" y="0" type="line"/>
      <point x="295" y="0" type="line"/>
      <point x="295" y="2" type="line"/>
      <point x="32" y="2" type="line"/>
      <point x="304" y="515" type="line"/>
    </contour>
    <component base="hyphen" xOffset="9" yOffset="-45"/>
  </outline>
</glyph>
<glyph name="Ezh" format="2">
  <advance width="380"/>
  <unicode hex="01B7"/>
  <anchor x="190" y="0" name="bottom"/>
  <anchor x="173" y="680" name="top"/>
  <outline>
    <contour>
      <point x="177" y="-9" type="curve" smooth="yes"/>
      <point x="282" y="-9"/>
      <point x="339" y="68"/>
      <point x="339" y="179" type="curve" smooth="yes"/>
      <point x="339" y="299"/>
      <point x="279" y="363"/>
      <point x="165" y="363" type="curve"/>
      <point x="109" y="363" type="line"/>
      <point x="107" y="361" type="line"/>
      <point x="165" y="361" type="line" smooth="yes"/>
      <point x="277" y="361"/>
      <point x="337" y="298"/>
      <point x="337" y="179" type="curve" smooth="yes"/>
      <point x="337" y="70"/>
      <point x="281" y="-7"/>
      <point x="177" y="-7" type="curve" smooth="yes"/>
      <point x="105" y="-7"/>
      <point x="63" y="22"/>
      <point x="26" y="70" type="curve"/>
      <point x="24" y="69" type="line"/>
      <point x="61" y="21"/>
      <point x="104" y="-9"/>
    </contour>
    <contour>
      <point x="107" y="363" type="line"/>
      <point x="107" y="361" type="line"/>
      <point x="110" y="363" type="line"/>
      <point x="316" y="678" type="line"/>
      <point x="316" y="680" type="line"/>
      <point x="30" y="680" type="line"/>
      <point x="30" y="678" type="line"/>
      <point x="313" y="678" type="line"/>
    </contour>
  </outline>
</glyph>
<glyph name="Ezhreversed" format="2">
  <advance width="380"/>
  <unicode hex="01B8"/>
  <anchor x="190" y="0" name="bottom"/>
  <anchor x="190" y="680" name="top"/>
  <outline>
    <contour>
      <point x="197" y="-9" type="curve" smooth="yes"/>
      <point x="276" y="-9"/>
      <point x="319" y="21"/>
      <point x="356" y="69" type="curve"/>
      <point x="354" y="70" type="line"/>
      <point x="317" y="22"/>
      <point x="275" y="-7"/>
      <point x="197" y="-7" type="curve" smooth="yes"/>
      <point x="102" y="-7"/>
      <point x="43" y="65"/>
      <point x="43" y="174" type="curve" smooth="yes"/>
      <point x="43" y="288"/>
      <point x="103" y="361"/>
      <point x="215" y="361" type="curve" smooth="yes"/>
      <point x="273" y="361" type="line"/>
      <point x="271" y="363" type="line"/>
      <point x="215" y="363" type="line"/>
      <point x="101" y="363"/>
      <point x="41" y="289"/>
      <point x="41" y="174" type="curve" smooth="yes"/>
      <point x="41" y="63"/>
      <point x="101" y="-9"/>
    </contour>
    <contour>
      <point x="273" y="363" type="line"/>
      <point x="67" y="678" type="line"/>
      <point x="350" y="678" type="line"/>
      <point x="350" y="680" type="line"/>
      <point x="64" y="680" type="line"/>
      <point x="64" y="678" type="line"/>
      <point x="270" y="363" type="line"/>
      <point x="273" y="361" type="line"/>
    </contour>
  </outline>
</glyph>
<glyph name="ezhreversed" format="2">
  <advance width="359"/>
  <unicode hex="01B9"/>
  <anchor x="180" y="-188" name="bottom"/>
  <anchor x="180" y="517" name="top"/>
  <outline>
    <contour>
      <point x="184" y="-192" type="curve" smooth="yes"/>
      <point x="255" y="-192"/>
      <point x="298" y="-162"/>
      <point x="335" y="-114" type="curve"/>
      <point x="333" y="-113" type="line"/>
      <point x="296" y="-161"/>
      <point x="254" y="-190"/>
      <point x="184" y="-190" type="curve" smooth="yes"/>
      <point x="93" y="-190"/>
      <point x="35" y="-113"/>
      <point x="35" y="-4" type="curve" smooth="yes"/>
      <point x="35" y="116"/>
      <point x="94" y="188"/>
      <point x="207" y="188" type="curve" smooth="yes"/>
      <point x="248" y="188" type="line"/>
      <point x="246" y="190" type="line"/>
      <point x="207" y="190" type="line"/>
      <point x="93" y="190"/>
      <point x="33" y="117"/>
      <point x="33" y="-4" type="curve" smooth="yes"/>
      <point x="33" y="-115"/>
      <point x="92" y="-192"/>
    </contour>
    <contour>
      <point x="248" y="190" type="line"/>
      <point x="60" y="515" type="line"/>
      <point x="322" y="515" type="line"/>
      <point x="322" y="517" type="line"/>
      <point x="57" y="517" type="line"/>
      <point x="57" y="515" type="line"/>
      <point x="245" y="190" type="line"/>
      <point x="248" y="188" type="line"/>
    </contour>
  </outline>
</glyph>
<glyph name="ezhtail" format="2">
  <advance width="363"/>
  <unicode hex="01BA"/>
  <anchor x="181" y="-188" name="bottom"/>
  <anchor x="170" y="517" name="top"/>
  <outline>
    <contour>
      <point x="125" y="-190" type="curve"/>
      <point x="126" y="-188" type="line"/>
      <point x="72" y="-173"/>
      <point x="44" y="-143"/>
      <point x="44" y="-98" type="curve" smooth="yes"/>
      <point x="44" y="-46"/>
      <point x="76" y="-16"/>
      <point x="177" y="-6" type="curve" smooth="yes"/>
      <point x="285" y="5"/>
      <point x="322" y="52"/>
      <point x="322" y="138" type="curve" smooth="yes"/>
      <point x="322" y="228"/>
      <point x="276" y="263"/>
      <point x="194" y="263" type="curve" smooth="yes"/>
      <point x="100" y="263" type="line"/>
      <point x="298" y="515" type="line"/>
      <point x="298" y="517" type="line"/>
      <point x="41" y="517" type="line"/>
      <point x="41" y="515" type="line"/>
      <point x="295" y="515" type="line"/>
      <point x="97" y="263" type="line"/>
      <point x="97" y="261" type="line"/>
      <point x="194" y="261" type="line" smooth="yes"/>
      <point x="275" y="261"/>
      <point x="320" y="227"/>
      <point x="320" y="138" type="curve" smooth="yes"/>
      <point x="320" y="53"/>
      <point x="284" y="7"/>
      <point x="177" y="-4" type="curve" smooth="yes"/>
      <point x="75" y="-15"/>
      <point x="42" y="-45"/>
      <point x="42" y="-98" type="curve" smooth="yes"/>
      <point x="42" y="-143"/>
      <point x="71" y="-174"/>
    </contour>
  </outline>
</glyph>
<glyph name="tonefive" format="2">
  <advance width="345"/>
  <unicode hex="01BD"/>
  <anchor x="173" y="0" name="bottom"/>
  <anchor x="173" y="517" name="top"/>
  <outline>
    <contour>
      <point x="275" y="517" type="line"/>
      <point x="78" y="517" type="line"/>
      <point x="78" y="281" type="line"/>
      <point x="80" y="281" type="line"/>
      <point x="107" y="304"/>
      <point x="133" y="318"/>
      <point x="175" y="318" type="curve" smooth="yes"/>
      <point x="246" y="318"/>
      <point x="286" y="260"/>
      <point x="286" y="166" type="curve" smooth="yes"/>
      <point x="286" y="64"/>
      <point x="243" y="-7"/>
      <point x="159" y="-7" type="curve" smooth="yes"/>
      <point x="115" y="-7"/>
      <point x="76" y="15"/>
      <point x="51" y="49" type="curve"/>
      <point x="49" y="48" type="line"/>
      <point x="76" y="13"/>
      <point x="114" y="-9"/>
      <point x="159" y="-9" type="curve" smooth="yes"/>
      <point x="244" y="-9"/>
      <point x="288" y="63"/>
      <point x="288" y="166" type="curve" smooth="yes"/>
      <point x="288" y="261"/>
      <point x="247" y="320"/>
      <point x="175" y="320" type="curve" smooth="yes"/>
      <point x="132" y="320"/>
      <point x="106" y="305"/>
      <point x="80" y="283" type="curve"/>
      <point x="80" y="515" type="line"/>
      <point x="275" y="515" type="line"/>
    </contour>
  </outline>
</glyph>
<glyph name="glottalinvertedstroke" format="2">
  <advance width="489"/>
  <unicode hex="01BE"/>
  <anchor x="185" y="0" name="bottom"/>
  <anchor x="147" y="727" name="top"/>
  <outline>
    <contour>
      <point x="87" y="585" type="line"/>
      <point x="87" y="583" type="line"/>
      <point x="147" y="583" type="line"/>
      <point x="247" y="583" type="line"/>
      <point x="247" y="585" type="line"/>
    </contour>
    <component base="glottalstopinverted"/>
  </outline>
</glyph>
<glyph name="wynn" format="2">
  <advance width="460"/>
  <unicode hex="01BF"/>
  <anchor x="230" y="-188" name="bottom"/>
  <anchor x="230" y="517" name="top"/>
  <outline>
    <contour>
      <point x="104" y="517" type="line"/>
      <point x="102" y="517" type="line"/>
      <point x="102" y="-190" type="line"/>
      <point x="104" y="-190" type="line"/>
      <point x="104" y="419" type="line"/>
      <point x="104" y="421" type="line"/>
    </contour>
    <contour>
      <point x="103" y="421" type="curve"/>
      <point x="103" y="418" type="line"/>
      <point x="143" y="482"/>
      <point x="188" y="525"/>
      <point x="260" y="525" type="curve" smooth="yes"/>
      <point x="340" y="525"/>
      <point x="393" y="458"/>
      <point x="393" y="353" type="curve" smooth="yes"/>
      <point x="393" y="213"/>
      <point x="318" y="123"/>
      <point x="161" y="24" type="curve" smooth="yes"/>
      <point x="104" y="-12" type="line"/>
      <point x="104" y="-14" type="line"/>
      <point x="161" y="22" type="line" smooth="yes"/>
      <point x="319" y="122"/>
      <point x="395" y="212"/>
      <point x="395" y="353" type="curve" smooth="yes"/>
      <point x="395" y="459"/>
      <point x="341" y="527"/>
      <point x="260" y="527" type="curve" smooth="yes"/>
      <point x="187" y="527"/>
      <point x="142" y="483"/>
    </contour>
  </outline>
</glyph>
<glyph name="clickdental" format="2">
  <advance width="214"/>
  <unicode hex="01C0"/>
  <outline>
    <contour>
      <point x="108" y="730" type="line"/>
      <point x="106" y="730" type="line"/>
      <point x="106" y="0" type="line"/>
      <point x="108" y="0" type="line"/>
    </contour>
  </outline>
</glyph>
<glyph name="clickretroflex" format="2">
  <advance width="224"/>
  <unicode hex="01C3"/>
  <outline>
    <contour>
      <point x="113" y="730" type="line"/>
      <point x="111" y="730" type="line"/>
      <point x="111" y="188" type="line"/>
      <point x="113" y="188" type="line"/>
    </contour>
    <contour>
      <point x="112" y="11" type="curve" smooth="yes"/>
      <point x="109" y="11"/>
      <point x="106" y="8"/>
      <point x="106" y="4" type="curve" smooth="yes"/>
      <point x="106" y="0"/>
      <point x="109" y="-3"/>
      <point x="112" y="-3" type="curve" smooth="yes"/>
      <point x="116" y="-3"/>
      <point x="118" y="0"/>
      <point x="118" y="4" type="curve" smooth="yes"/>
      <point x="118" y="8"/>
      <point x="116" y="11"/>
    </contour>
  </outline>
</glyph>
<glyph name="gstroke" format="2">
  <advance width="399"/>
  <unicode hex="01E5"/>
  <anchor x="200" y="-188" name="bottom"/>
  <anchor x="200" y="517" name="top"/>
  <outline>
    <contour>
      <point x="379" y="544" type="line"/>
      <point x="348" y="534"/>
      <point x="326" y="527"/>
      <point x="198" y="527" type="curve" smooth="yes"/>
      <point x="119" y="527"/>
      <point x="61" y="460"/>
      <point x="61" y="357" type="curve" smooth="yes"/>
      <point x="61" y="286"/>
      <point x="92" y="241"/>
      <point x="133" y="215" type="curve"/>
      <point x="108" y="195"/>
      <point x="87" y="168"/>
      <point x="87" y="128" type="curve" smooth="yes"/>
      <point x="87" y="82"/>
      <point x="117" y="54"/>
      <point x="178" y="54" type="curve" smooth="yes"/>
      <point x="253" y="54" type="line" smooth="yes"/>
      <point x="325" y="54"/>
      <point x="369" y="10"/>
      <point x="369" y="-59" type="curve" smooth="yes"/>
      <point x="369" y="-145"/>
      <point x="316" y="-190"/>
      <point x="207" y="-190" type="curve" smooth="yes"/>
      <point x="96" y="-190"/>
      <point x="47" y="-157"/>
      <point x="47" y="-60" type="curve"/>
      <point x="45" y="-60" type="line"/>
      <point x="45" y="-158"/>
      <point x="94" y="-192"/>
      <point x="207" y="-192" type="curve" smooth="yes"/>
      <point x="318" y="-192"/>
      <point x="371" y="-146"/>
      <point x="371" y="-59" type="curve" smooth="yes"/>
      <point x="371" y="10"/>
      <point x="328" y="56"/>
      <point x="253" y="56" type="curve" smooth="yes"/>
      <point x="178" y="56" type="line" smooth="yes"/>
      <point x="118" y="56"/>
      <point x="89" y="83"/>
      <point x="89" y="128" type="curve" smooth="yes"/>
      <point x="89" y="165"/>
      <point x="108" y="194"/>
      <point x="135" y="214" type="curve"/>
      <point x="155" y="202"/>
      <point x="178" y="194"/>
      <point x="204" y="194" type="curve" smooth="yes"/>
      <point x="288" y="194"/>
      <point x="344" y="252"/>
      <point x="344" y="356" type="curve" smooth="yes"/>
      <point x="344" y="445"/>
      <point x="305" y="513"/>
      <point x="224" y="525" type="curve"/>
      <point x="310" y="525"/>
      <point x="351" y="532"/>
      <point x="379" y="542" type="curve"/>
    </contour>
    <contour>
      <point x="198" y="525" type="curve" smooth="yes"/>
      <point x="270" y="525"/>
      <point x="342" y="481"/>
      <point x="342" y="356" type="curve" smooth="yes"/>
      <point x="342" y="253"/>
      <point x="286" y="196"/>
      <point x="204" y="196" type="curve" smooth="yes"/>
      <point x="137" y="196"/>
      <point x="63" y="250"/>
      <point x="63" y="357" type="curve" smooth="yes"/>
      <point x="63" y="455"/>
      <point x="117" y="525"/>
    </contour>
    <component base="hyphen" xOffset="180" yOffset="-371"/>
  </outline>
</glyph>
<glyph name="Hwair" format="2">
  <advance width="783"/>
  <unicode hex="01F6"/>
  <anchor x="391" y="0" name="bottom"/>
  <anchor x="391" y="680" name="top"/>
  <outline>
    <contour>
      <point x="106" y="0" type="line"/>
      <point x="108" y="0" type="line"/>
      <point x="108" y="360" type="line"/>
      <point x="427" y="360" type="line"/>
      <point x="427" y="185" type="line"/>
      <point x="429" y="185" type="line"/>
      <point x="429" y="680" type="line"/>
      <point x="427" y="680" type="line"/>
      <point x="427" y="362" type="line"/>
      <point x="108" y="362" type="line"/>
      <point x="108" y="680" type="line"/>
      <point x="106" y="680" type="line"/>
    </contour>
    <contour>
      <point x="548" y="-9" type="curve" smooth="yes"/>
      <point x="635" y="-9"/>
      <point x="701" y="71"/>
      <point x="701" y="268" type="curve" smooth="yes"/>
      <point x="701" y="362"/>
      <point x="689" y="448"/>
      <point x="679" y="517" type="curve"/>
      <point x="677" y="517" type="line"/>
      <point x="687" y="448"/>
      <point x="699" y="362"/>
      <point x="699" y="268" type="curve" smooth="yes"/>
      <point x="699" y="72"/>
      <point x="634" y="-7"/>
      <point x="548" y="-7" type="curve" smooth="yes"/>
      <point x="481" y="-7"/>
      <point x="429" y="47"/>
      <point x="429" y="153" type="curve" smooth="yes"/>
      <point x="429" y="517" type="line"/>
      <point x="427" y="517" type="line"/>
      <point x="427" y="153" type="line" smooth="yes"/>
      <point x="427" y="45"/>
      <point x="480" y="-9"/>
    </contour>
  </outline>
</glyph>
<glyph name="Wynn" format="2">
  <advance width="452"/>
  <unicode hex="01F7"/>
  <anchor x="226" y="0" name="bottom"/>
  <anchor x="226" y="680" name="top"/>
  <outline>
    <contour>
      <point x="107" y="600" type="curve"/>
      <point x="107" y="597" type="line"/>
      <point x="142" y="645"/>
      <point x="187" y="688"/>
      <point x="260" y="688" type="curve" smooth="yes"/>
      <point x="341" y="688"/>
      <point x="397" y="621"/>
      <point x="397" y="515" type="curve" smooth="yes"/>
      <point x="397" y="377"/>
      <point x="315" y="319"/>
      <point x="204" y="273" type="curve" smooth="yes"/>
      <point x="108" y="233" type="line"/>
      <point x="108" y="231" type="line"/>
      <point x="204" y="271" type="line" smooth="yes"/>
      <point x="317" y="318"/>
      <point x="399" y="376"/>
      <point x="399" y="515" type="curve" smooth="yes"/>
      <point x="399" y="622"/>
      <point x="343" y="690"/>
      <point x="260" y="690" type="curve" smooth="yes"/>
      <point x="187" y="690"/>
      <point x="141" y="646"/>
    </contour>
    <contour>
      <point x="108" y="680" type="line"/>
      <point x="106" y="680" type="line"/>
      <point x="106" y="0" type="line"/>
      <point x="108" y="0" type="line"/>
    </contour>
  </outline>
</glyph>
